<?xml version="1.0" encoding="UTF-8" standalone="no"?>
<!DOCTYPE svg PUBLIC "-//W3C//DTD SVG 1.1//EN" "http://www.w3.org/Graphics/SVG/1.1/DTD/svg11.dtd">
<!-- Created with Vectornator (http://vectornator.io/) -->
<svg height="100%" stroke-miterlimit="10" style="fill-rule:nonzero;clip-rule:evenodd;stroke-linecap:round;stroke-linejoin:round;" version="1.1" viewBox="0 0 1440 1024" width="100%" xml:space="preserve" xmlns="http://www.w3.org/2000/svg" xmlns:vectornator="http://vectornator.io" xmlns:xlink="http://www.w3.org/1999/xlink">
<defs>
<linearGradient gradientTransform="matrix(1 0 0 1 0 0)" gradientUnits="userSpaceOnUse" id="LinearGradient" x1="497" x2="497" y1="209.679" y2="421.055">
<stop offset="0" stop-color="#d0f6ff"/>
<stop offset="1" stop-color="#8be2f7"/>
</linearGradient>
<linearGradient gradientTransform="matrix(1 0 0 1 0 0)" gradientUnits="userSpaceOnUse" id="LinearGradient_2" x1="763.5" x2="763.5" y1="837.794" y2="932.698">
<stop offset="0" stop-color="#d0f6ff"/>
<stop offset="1" stop-color="#8be2f7"/>
</linearGradient>
<linearGradient gradientTransform="matrix(1 0 0 1 0 0)" gradientUnits="userSpaceOnUse" id="LinearGradient_3" x1="760.495" x2="760.495" y1="148" y2="244.99">
<stop offset="0" stop-color="#ff9485"/>
<stop offset="1" stop-color="#ff676e"/>
</linearGradient>
<linearGradient gradientTransform="matrix(1 0 0 1 0 0)" gradientUnits="userSpaceOnUse" id="LinearGradient_4" x1="169.485" x2="359" y1="224.612" y2="264.968">
<stop offset="0" stop-color="#6eae7c"/>
<stop offset="1" stop-color="#0f575d"/>
</linearGradient>
<linearGradient gradientTransform="matrix(1 0 0 1 0 0)" gradientUnits="userSpaceOnUse" id="LinearGradient_5" x1="295.885" x2="316.275" y1="135.904" y2="217">
<stop offset="0" stop-color="#cfe49f"/>
<stop offset="1" stop-color="#a9d386"/>
</linearGradient>
<linearGradient gradientTransform="matrix(1 0 0 1 0 0)" gradientUnits="userSpaceOnUse" id="LinearGradient_6" x1="258.395" x2="326.282" y1="321.305" y2="345.711">
<stop offset="0" stop-color="#77d791"/>
<stop offset="1" stop-color="#4fa67e"/>
</linearGradient>
<linearGradient gradientTransform="matrix(1 0 0 1 0 0)" gradientUnits="userSpaceOnUse" id="LinearGradient_7" x1="773.5" x2="781.794" y1="796.348" y2="494.428">
<stop offset="0" stop-color="#2b3389"/>
<stop offset="1" stop-color="#444fb7"/>
</linearGradient>
<linearGradient gradientTransform="matrix(1 0 0 1 0 0)" gradientUnits="userSpaceOnUse" id="LinearGradient_8" x1="423.5" x2="425.753" y1="376" y2="790.667">
<stop offset="0" stop-color="#0f1752"/>
<stop offset="1" stop-color="#272884"/>
</linearGradient>
<linearGradient gradientTransform="matrix(1 0 0 1 0 0)" gradientUnits="userSpaceOnUse" id="LinearGradient_9" x1="1029.5" x2="1029.5" y1="643" y2="900">
<stop offset="0" stop-color="#ff9485"/>
<stop offset="1" stop-color="#ff676e"/>
</linearGradient>
<linearGradient gradientTransform="matrix(1 0 0 1 0 0)" gradientUnits="userSpaceOnUse" id="LinearGradient_10" x1="773.5" x2="1217" y1="295.088" y2="295.735">
<stop offset="0" stop-color="#0f1752"/>
<stop offset="1" stop-color="#272884"/>
</linearGradient>
<linearGradient gradientTransform="matrix(1 0 0 1 0 0)" gradientUnits="userSpaceOnUse" id="LinearGradient_11" x1="469" x2="469" y1="550.25" y2="776.69">
<stop offset="0" stop-color="#4dbcfa"/>
<stop offset="1" stop-color="#1486db"/>
</linearGradient>
<linearGradient gradientTransform="matrix(1 0 0 1 0 0)" gradientUnits="userSpaceOnUse" id="LinearGradient_12" x1="469" x2="469" y1="654.41" y2="739.541">
<stop offset="0" stop-color="#4dbcfa"/>
<stop offset="1" stop-color="#1486db"/>
</linearGradient>
<linearGradient gradientTransform="matrix(1 0 0 1 0 0)" gradientUnits="userSpaceOnUse" id="LinearGradient_13" x1="254.155" x2="254.155" y1="875.22" y2="898.69">
<stop offset="0" stop-color="#1d2a78"/>
<stop offset="1" stop-color="#12033b"/>
</linearGradient>
<linearGradient gradientTransform="matrix(1 0 0 1 0 0)" gradientUnits="userSpaceOnUse" id="LinearGradient_14" x1="81.965" x2="81.965" y1="865.18" y2="909.85">
<stop offset="0" stop-color="#1d2a78"/>
<stop offset="1" stop-color="#12033b"/>
</linearGradient>
<linearGradient gradientTransform="matrix(1 0 0 1 0 0)" gradientUnits="userSpaceOnUse" id="LinearGradient_15" x1="280.62" x2="280.62" y1="411.98" y2="481.67">
<stop offset="0" stop-color="#1d2a78"/>
<stop offset="1" stop-color="#12033b"/>
</linearGradient>
<linearGradient gradientTransform="matrix(1 0 0 1 0 0)" gradientUnits="userSpaceOnUse" id="LinearGradient_16" x1="256.107" x2="256.107" y1="537.734" y2="1056.98">
<stop offset="0" stop-color="#1533b6"/>
<stop offset="1" stop-color="#356be9"/>
</linearGradient>
<linearGradient gradientTransform="matrix(1 0 0 1 0 0)" gradientUnits="userSpaceOnUse" id="LinearGradient_17" x1="1024" x2="1024" y1="172.523" y2="652.793">
<stop offset="0" stop-color="#d0f6ff"/>
<stop offset="1" stop-color="#8be2f7"/>
</linearGradient>
<linearGradient gradientTransform="matrix(1 0 0 1 0 0)" gradientUnits="userSpaceOnUse" id="LinearGradient_18" x1="1071" x2="1071" y1="320.26" y2="370.26">
<stop offset="0" stop-color="#ff9485"/>
<stop offset="1" stop-color="#ff676e"/>
</linearGradient>
<linearGradient gradientTransform="matrix(1 0 0 1 0 0)" gradientUnits="userSpaceOnUse" id="LinearGradient_19" x1="1024" x2="1024" y1="148.26" y2="210.59">
<stop offset="0" stop-color="#ff9485"/>
<stop offset="1" stop-color="#ff676e"/>
</linearGradient>
<linearGradient gradientTransform="matrix(1 0 0 1 0 0)" gradientUnits="userSpaceOnUse" id="LinearGradient_20" x1="1307.9" x2="1307.9" y1="871.44" y2="908.14">
<stop offset="0" stop-color="#1d2a78"/>
<stop offset="1" stop-color="#12033b"/>
</linearGradient>
<linearGradient gradientTransform="matrix(1 0 0 1 0 0)" gradientUnits="userSpaceOnUse" id="LinearGradient_21" x1="1207.02" x2="1207.02" y1="887.02" y2="905.76">
<stop offset="0" stop-color="#1d2a78"/>
<stop offset="1" stop-color="#12033b"/>
</linearGradient>
<linearGradient gradientTransform="matrix(1 0 0 1 0 0)" gradientUnits="userSpaceOnUse" id="LinearGradient_22" x1="1234.64" x2="1234.64" y1="434.737" y2="1136.43">
<stop offset="0" stop-color="#1533b6"/>
<stop offset="1" stop-color="#356be9"/>
</linearGradient>
<linearGradient gradientTransform="matrix(1 0 0 1 0 0)" gradientUnits="userSpaceOnUse" id="LinearGradient_23" x1="1207.51" x2="1207.51" y1="410.17" y2="590.5">
<stop offset="0" stop-color="#ff9485"/>
<stop offset="1" stop-color="#ff676e"/>
</linearGradient>
<linearGradient gradientTransform="matrix(1 0 0 1 0 0)" gradientUnits="userSpaceOnUse" id="LinearGradient_24" x1="1150.04" x2="1150.04" y1="374.15" y2="458.9">
<stop offset="0" stop-color="#ff9485"/>
<stop offset="1" stop-color="#ff676e"/>
</linearGradient>
<linearGradient gradientTransform="matrix(1 0 0 1 0 0)" gradientUnits="userSpaceOnUse" id="LinearGradient_25" x1="1227.13" x2="1227.13" y1="332.22" y2="493.21">
<stop offset="0" stop-color="#1d2a78"/>
<stop offset="1" stop-color="#12033b"/>
</linearGradient>
</defs>
<g id="Untitled" vectornator:layerName="Untitled">
<g opacity="1" vectornator:layerName="g">
<path d="M564 199L570.67 199.23L577.15 199.86L583.45 200.89L589.6 202.3L595.61 204.1L602.97 206.89L609.99 210.18L616.68 213.98L623.06 218.29L629.1 223.09L634.71 228.29L639.91 233.9L644.71 239.94L649.02 246.32L652.82 253.01L656.11 260.03L658.9 267.39L660.7 273.4L662.11 279.55L663.14 285.85L663.77 292.33L664 299L664 346L430 346L423.33 345.77L416.85 345.14L410.55 344.11L404.4 342.7L398.39 340.9L391.03 338.11L384.01 334.82L377.32 331.02L370.94 326.71L364.9 321.91L359.29 316.71L354.09 311.1L349.29 305.06L344.98 298.68L341.18 291.99L337.89 284.97L335.1 277.61L333.3 271.6L331.89 265.45L330.86 259.15L330.23 252.67L330 246L330 199L564 199Z" fill="url(#LinearGradient)" fill-rule="evenodd" opacity="1" stroke="none" vectornator:layerName="path"/>
<path d="M145 833L1316 833L1321.48 833.23L1326.77 833.87L1331.89 834.92L1336.86 836.36L1341.72 838.21L1346.35 840.38L1350.77 842.89L1354.98 845.73L1358.97 848.9L1362.67 852.33L1366.1 856.03L1369.27 860.02L1372.11 864.23L1374.62 868.65L1376.79 873.28L1378.64 878.14L1380.08 883.11L1381.13 888.23L1381.77 893.52L1382 899L211 899L205.52 898.77L200.23 898.13L195.11 897.08L190.14 895.64L185.28 893.79L180.65 891.62L176.23 889.11L172.02 886.27L168.03 883.1L164.33 879.67L160.9 875.97L157.73 871.98L154.89 867.77L152.38 863.35L150.21 858.72L148.36 853.86L146.92 848.89L145.87 843.77L145.23 838.48L145 833Z" fill="url(#LinearGradient_2)" fill-rule="evenodd" opacity="1" stroke="none" vectornator:layerName="path"/>
<path d="M720.82 240.58L720.65 241.78L720.22 242.8L719.53 243.7L718.63 244.39L717.61 244.82L716.41 244.99L715.21 244.82L714.19 244.39L713.29 243.7L712.6 242.8L712.17 241.78L712 240.58L712.17 239.38L712.6 238.36L713.29 237.46L714.19 236.77L715.21 236.34L716.41 236.17L717.61 236.34L718.63 236.77L719.53 237.46L720.22 238.36L720.65 239.38L720.82 240.58ZM720.82 222.95L720.65 224.14L720.22 225.17L719.53 226.06L718.63 226.76L717.61 227.18L716.41 227.35L715.21 227.18L714.19 226.76L713.29 226.06L712.6 225.17L712.17 224.14L712 222.95L712.17 221.75L712.6 220.72L713.29 219.83L714.19 219.13L715.21 218.71L716.41 218.54L717.61 218.71L718.63 219.13L719.53 219.83L720.22 220.72L720.65 221.75L720.82 222.95ZM720.82 205.31L720.65 206.51L720.22 207.53L719.53 208.43L718.63 209.12L717.61 209.55L716.41 209.72L715.21 209.55L714.19 209.12L713.29 208.43L712.6 207.53L712.17 206.51L712 205.31L712.17 204.11L712.6 203.09L713.29 202.19L714.19 201.5L715.21 201.07L716.41 200.9L717.61 201.07L718.63 201.5L719.53 202.19L720.22 203.09L720.65 204.11L720.82 205.31ZM720.82 187.68L720.65 188.87L720.22 189.9L719.53 190.79L718.63 191.49L717.61 191.92L716.41 192.09L715.21 191.92L714.19 191.49L713.29 190.79L712.6 189.9L712.17 188.87L712 187.68L712.17 186.48L712.6 185.45L713.29 184.56L714.19 183.87L715.21 183.44L716.41 183.27L717.61 183.44L718.63 183.87L719.53 184.56L720.22 185.45L720.65 186.48L720.82 187.68ZM720.82 170.04L720.65 171.24L720.22 172.27L719.53 173.16L718.63 173.85L717.61 174.28L716.41 174.45L715.21 174.28L714.19 173.85L713.29 173.16L712.6 172.27L712.17 171.24L712 170.04L712.17 168.85L712.6 167.82L713.29 166.93L714.19 166.23L715.21 165.8L716.41 165.63L717.61 165.8L718.63 166.23L719.53 166.93L720.22 167.82L720.65 168.85L720.82 170.04ZM720.82 152.41L720.65 153.61L720.22 154.63L719.53 155.53L718.63 156.22L717.61 156.65L716.41 156.82L715.21 156.65L714.19 156.22L713.29 155.53L712.6 154.63L712.17 153.61L712 152.41L712.17 151.21L712.6 150.19L713.29 149.29L714.19 148.6L715.21 148.17L716.41 148L717.61 148.17L718.63 148.6L719.53 149.29L720.22 150.19L720.65 151.21L720.82 152.41ZM738.45 240.58L738.28 241.78L737.85 242.8L737.16 243.7L736.27 244.39L735.24 244.82L734.04 244.99L732.85 244.82L731.82 244.39L730.93 243.7L730.23 242.8L729.8 241.78L729.64 240.58L729.8 239.38L730.23 238.36L730.93 237.46L731.82 236.77L732.85 236.34L734.04 236.17L735.24 236.34L736.27 236.77L737.16 237.46L737.85 238.36L738.28 239.38L738.45 240.58ZM738.45 222.95L738.28 224.14L737.85 225.17L737.16 226.06L736.27 226.76L735.24 227.18L734.04 227.35L732.85 227.18L731.82 226.76L730.93 226.06L730.23 225.17L729.8 224.14L729.64 222.95L729.8 221.75L730.23 220.72L730.93 219.83L731.82 219.13L732.85 218.71L734.04 218.54L735.24 218.71L736.27 219.13L737.16 219.83L737.85 220.72L738.28 221.75L738.45 222.95ZM738.45 205.31L738.28 206.51L737.85 207.53L737.16 208.43L736.27 209.12L735.24 209.55L734.04 209.72L732.85 209.55L731.82 209.12L730.93 208.43L730.23 207.53L729.8 206.51L729.64 205.31L729.8 204.11L730.23 203.09L730.93 202.19L731.82 201.5L732.85 201.07L734.04 200.9L735.24 201.07L736.27 201.5L737.16 202.19L737.85 203.09L738.28 204.11L738.45 205.31ZM738.45 187.68L738.28 188.87L737.85 189.9L737.16 190.79L736.27 191.49L735.24 191.92L734.04 192.09L732.85 191.92L731.82 191.49L730.93 190.79L730.23 189.9L729.8 188.87L729.64 187.68L729.8 186.48L730.23 185.45L730.93 184.56L731.82 183.87L732.85 183.44L734.04 183.27L735.24 183.44L736.27 183.87L737.16 184.56L737.85 185.45L738.28 186.48L738.45 187.68ZM738.45 170.04L738.28 171.24L737.85 172.27L737.16 173.16L736.27 173.85L735.24 174.28L734.04 174.45L732.85 174.28L731.82 173.85L730.93 173.16L730.23 172.27L729.8 171.24L729.64 170.04L729.8 168.85L730.23 167.82L730.93 166.93L731.82 166.23L732.85 165.8L734.04 165.63L735.24 165.8L736.27 166.23L737.16 166.93L737.85 167.82L738.28 168.85L738.45 170.04ZM738.45 152.41L738.28 153.61L737.85 154.63L737.16 155.53L736.27 156.22L735.24 156.65L734.04 156.82L732.85 156.65L731.82 156.22L730.93 155.53L730.23 154.63L729.8 153.61L729.64 152.41L729.8 151.21L730.23 150.19L730.93 149.29L731.82 148.6L732.85 148.17L734.04 148L735.24 148.17L736.27 148.6L737.16 149.29L737.85 150.19L738.28 151.21L738.45 152.41ZM756.09 240.58L755.92 241.78L755.49 242.8L754.8 243.7L753.9 244.39L752.88 244.82L751.68 244.99L750.48 244.82L749.46 244.39L748.56 243.7L747.87 242.8L747.44 241.78L747.27 240.58L747.44 239.38L747.87 238.36L748.56 237.46L749.46 236.77L750.48 236.34L751.68 236.17L752.88 236.34L753.9 236.77L754.8 237.46L755.49 238.36L755.92 239.38L756.09 240.58ZM756.09 222.95L755.92 224.14L755.49 225.17L754.8 226.06L753.9 226.76L752.88 227.18L751.68 227.35L750.48 227.18L749.46 226.76L748.56 226.06L747.87 225.17L747.44 224.14L747.27 222.95L747.44 221.75L747.87 220.72L748.56 219.83L749.46 219.13L750.48 218.71L751.68 218.54L752.88 218.71L753.9 219.13L754.8 219.83L755.49 220.72L755.92 221.75L756.09 222.95ZM756.09 205.31L755.92 206.51L755.49 207.53L754.8 208.43L753.9 209.12L752.88 209.55L751.68 209.72L750.48 209.55L749.46 209.12L748.56 208.43L747.87 207.53L747.44 206.51L747.27 205.31L747.44 204.11L747.87 203.09L748.56 202.19L749.46 201.5L750.48 201.07L751.68 200.9L752.88 201.07L753.9 201.5L754.8 202.19L755.49 203.09L755.92 204.11L756.09 205.31ZM756.09 187.68L755.92 188.87L755.49 189.9L754.8 190.79L753.9 191.49L752.88 191.92L751.68 192.09L750.48 191.92L749.46 191.49L748.56 190.79L747.87 189.9L747.44 188.87L747.27 187.68L747.44 186.48L747.87 185.45L748.56 184.56L749.46 183.87L750.48 183.44L751.68 183.27L752.88 183.44L753.9 183.87L754.8 184.56L755.49 185.45L755.92 186.48L756.09 187.68ZM756.09 170.04L755.92 171.24L755.49 172.27L754.8 173.16L753.9 173.85L752.88 174.28L751.68 174.45L750.48 174.28L749.46 173.85L748.56 173.16L747.87 172.27L747.44 171.24L747.27 170.04L747.44 168.85L747.87 167.82L748.56 166.93L749.46 166.23L750.48 165.8L751.68 165.63L752.88 165.8L753.9 166.23L754.8 166.93L755.49 167.82L755.92 168.85L756.09 170.04ZM756.09 152.41L755.92 153.61L755.49 154.63L754.8 155.53L753.9 156.22L752.88 156.65L751.68 156.82L750.48 156.65L749.46 156.22L748.56 155.53L747.87 154.63L747.44 153.61L747.27 152.41L747.44 151.21L747.87 150.19L748.56 149.29L749.46 148.6L750.48 148.17L751.68 148L752.88 148.17L753.9 148.6L754.8 149.29L755.49 150.19L755.92 151.21L756.09 152.41ZM773.72 240.58L773.55 241.78L773.13 242.8L772.43 243.7L771.54 244.39L770.51 244.82L769.31 244.99L768.12 244.82L767.09 244.39L766.2 243.7L765.5 242.8L765.08 241.78L764.91 240.58L765.08 239.38L765.5 238.36L766.2 237.46L767.09 236.77L768.12 236.34L769.31 236.17L770.51 236.34L771.54 236.77L772.43 237.46L773.13 238.36L773.55 239.38L773.72 240.58ZM773.72 222.95L773.55 224.14L773.13 225.17L772.43 226.06L771.54 226.76L770.51 227.18L769.31 227.35L768.12 227.18L767.09 226.76L766.2 226.06L765.5 225.17L765.08 224.14L764.91 222.95L765.08 221.75L765.5 220.72L766.2 219.83L767.09 219.13L768.12 218.71L769.31 218.54L770.51 218.71L771.54 219.13L772.43 219.83L773.13 220.72L773.55 221.75L773.72 222.95ZM773.72 205.31L773.55 206.51L773.13 207.53L772.43 208.43L771.54 209.12L770.51 209.55L769.31 209.72L768.12 209.55L767.09 209.12L766.2 208.43L765.5 207.53L765.08 206.51L764.91 205.31L765.08 204.11L765.5 203.09L766.2 202.19L767.09 201.5L768.12 201.07L769.31 200.9L770.51 201.07L771.54 201.5L772.43 202.19L773.13 203.09L773.55 204.11L773.72 205.31ZM773.72 187.68L773.55 188.87L773.13 189.9L772.43 190.79L771.54 191.49L770.51 191.92L769.31 192.09L768.12 191.92L767.09 191.49L766.2 190.79L765.5 189.9L765.08 188.87L764.91 187.68L765.08 186.48L765.5 185.45L766.2 184.56L767.09 183.87L768.12 183.44L769.31 183.27L770.51 183.44L771.54 183.87L772.43 184.56L773.13 185.45L773.55 186.48L773.72 187.68ZM773.72 170.04L773.55 171.24L773.13 172.27L772.43 173.16L771.54 173.85L770.51 174.28L769.31 174.45L768.12 174.28L767.09 173.85L766.2 173.16L765.5 172.27L765.08 171.24L764.91 170.04L765.08 168.85L765.5 167.82L766.2 166.93L767.09 166.23L768.12 165.8L769.31 165.63L770.51 165.8L771.54 166.23L772.43 166.93L773.13 167.82L773.55 168.85L773.72 170.04ZM773.72 152.41L773.55 153.61L773.13 154.63L772.43 155.53L771.54 156.22L770.51 156.65L769.31 156.82L768.12 156.65L767.09 156.22L766.2 155.53L765.5 154.63L765.08 153.61L764.91 152.41L765.08 151.21L765.5 150.19L766.2 149.29L767.09 148.6L768.12 148.17L769.31 148L770.51 148.17L771.54 148.6L772.43 149.29L773.13 150.19L773.55 151.21L773.72 152.41ZM791.36 240.58L791.19 241.78L790.76 242.8L790.07 243.7L789.17 244.39L788.15 244.82L786.95 244.99L785.75 244.82L784.73 244.39L783.83 243.7L783.14 242.8L782.71 241.78L782.54 240.58L782.71 239.38L783.14 238.36L783.83 237.46L784.73 236.77L785.75 236.34L786.95 236.17L788.15 236.34L789.17 236.77L790.07 237.46L790.76 238.36L791.19 239.38L791.36 240.58ZM791.36 222.95L791.19 224.14L790.76 225.17L790.07 226.06L789.17 226.76L788.15 227.18L786.95 227.35L785.75 227.18L784.73 226.76L783.83 226.06L783.14 225.17L782.71 224.14L782.54 222.95L782.71 221.75L783.14 220.72L783.83 219.83L784.73 219.13L785.75 218.71L786.95 218.54L788.15 218.71L789.17 219.13L790.07 219.83L790.76 220.72L791.19 221.75L791.36 222.95ZM791.36 205.31L791.19 206.51L790.76 207.53L790.07 208.43L789.17 209.12L788.15 209.55L786.95 209.72L785.75 209.55L784.73 209.12L783.83 208.43L783.14 207.53L782.71 206.51L782.54 205.31L782.71 204.11L783.14 203.09L783.83 202.19L784.73 201.5L785.75 201.07L786.95 200.9L788.15 201.07L789.17 201.5L790.07 202.19L790.76 203.09L791.19 204.11L791.36 205.31ZM791.36 187.68L791.19 188.87L790.76 189.9L790.07 190.79L789.17 191.49L788.15 191.92L786.95 192.09L785.75 191.92L784.73 191.49L783.83 190.79L783.14 189.9L782.71 188.87L782.54 187.68L782.71 186.48L783.14 185.45L783.83 184.56L784.73 183.87L785.75 183.44L786.95 183.27L788.15 183.44L789.17 183.87L790.07 184.56L790.76 185.45L791.19 186.48L791.36 187.68ZM791.36 170.04L791.19 171.24L790.76 172.27L790.07 173.16L789.17 173.85L788.15 174.28L786.95 174.45L785.75 174.28L784.73 173.85L783.83 173.16L783.14 172.27L782.71 171.24L782.54 170.04L782.71 168.85L783.14 167.82L783.83 166.93L784.73 166.23L785.75 165.8L786.95 165.63L788.15 165.8L789.17 166.23L790.07 166.93L790.76 167.82L791.19 168.85L791.36 170.04ZM791.36 152.41L791.19 153.61L790.76 154.63L790.07 155.53L789.17 156.22L788.15 156.65L786.95 156.82L785.75 156.65L784.73 156.22L783.83 155.53L783.14 154.63L782.71 153.61L782.54 152.41L782.71 151.21L783.14 150.19L783.83 149.29L784.73 148.6L785.75 148.17L786.95 148L788.15 148.17L789.17 148.6L790.07 149.29L790.76 150.19L791.19 151.21L791.36 152.41ZM808.99 240.58L808.82 241.78L808.4 242.8L807.7 243.7L806.81 244.39L805.78 244.82L804.58 244.99L803.39 244.82L802.36 244.39L801.47 243.7L800.77 242.8L800.35 241.78L800.18 240.58L800.35 239.38L800.77 238.36L801.47 237.46L802.36 236.77L803.39 236.34L804.58 236.17L805.78 236.34L806.81 236.77L807.7 237.46L808.4 238.36L808.82 239.38L808.99 240.58ZM808.99 222.95L808.82 224.14L808.4 225.17L807.7 226.06L806.81 226.76L805.78 227.18L804.58 227.35L803.39 227.18L802.36 226.76L801.47 226.06L800.77 225.17L800.35 224.14L800.18 222.95L800.35 221.75L800.77 220.72L801.47 219.83L802.36 219.13L803.39 218.71L804.58 218.54L805.78 218.71L806.81 219.13L807.7 219.83L808.4 220.72L808.82 221.75L808.99 222.95ZM808.99 205.31L808.82 206.51L808.4 207.53L807.7 208.43L806.81 209.12L805.78 209.55L804.58 209.72L803.39 209.55L802.36 209.12L801.47 208.43L800.77 207.53L800.35 206.51L800.18 205.31L800.35 204.11L800.77 203.09L801.47 202.19L802.36 201.5L803.39 201.07L804.58 200.9L805.78 201.07L806.81 201.5L807.7 202.19L808.4 203.09L808.82 204.11L808.99 205.31ZM808.99 187.68L808.82 188.87L808.4 189.9L807.7 190.79L806.81 191.49L805.78 191.92L804.58 192.09L803.39 191.92L802.36 191.49L801.47 190.79L800.77 189.9L800.35 188.87L800.18 187.68L800.35 186.48L800.77 185.45L801.47 184.56L802.36 183.87L803.39 183.44L804.58 183.27L805.78 183.44L806.81 183.87L807.7 184.56L808.4 185.45L808.82 186.48L808.99 187.68ZM808.99 170.04L808.82 171.24L808.4 172.27L807.7 173.16L806.81 173.85L805.78 174.28L804.58 174.45L803.39 174.28L802.36 173.85L801.47 173.16L800.77 172.27L800.35 171.24L800.18 170.04L800.35 168.85L800.77 167.82L801.47 166.93L802.36 166.23L803.39 165.8L804.58 165.63L805.78 165.8L806.81 166.23L807.7 166.93L808.4 167.82L808.82 168.85L808.99 170.04ZM808.99 152.41L808.82 153.61L808.4 154.63L807.7 155.53L806.81 156.22L805.78 156.65L804.58 156.82L803.39 156.65L802.36 156.22L801.47 155.53L800.77 154.63L800.35 153.61L800.18 152.41L800.35 151.21L800.77 150.19L801.47 149.29L802.36 148.6L803.39 148.17L804.58 148L805.78 148.17L806.81 148.6L807.7 149.29L808.4 150.19L808.82 151.21L808.99 152.41Z" fill="url(#LinearGradient_3)" fill-rule="evenodd" opacity="1" stroke="none" vectornator:layerName="path"/>
</g>
<g opacity="1" vectornator:layerName="g">
<path d="M359 295.17L347.17 300.2L335.96 304.36L325.32 307.7L315.22 310.28L305.63 312.15L296.5 313.36L287.81 313.94L279.52 313.92L271.59 313.33L264 312.2L256.71 310.53L249.71 308.34L242.95 305.62L236.43 302.37L230.13 298.57L224.01 294.21L216.57 288.1L209.57 281.63L203.01 274.8L196.87 267.59L191.14 259.99L185.82 251.99L180.9 243.57L176.38 234.7L172.27 225.37L168.56 215.55L165.27 205.21L162.42 194.33L160 182.87L173.3 179.19L185.89 176.33L197.81 174.22L209.11 172.84L219.82 172.12L229.99 172.04L239.65 172.57L248.83 173.66L257.58 175.31L265.92 177.5L273.88 180.22L281.5 183.46L288.79 187.22L295.78 191.52L302.49 196.37L308.93 201.78L315.11 207.79L321.04 214.42L326.72 221.71L332.15 229.71L337.33 238.44L342.25 247.98L346.89 258.36L351.24 269.65L355.29 281.9L359 295.17Z" fill="url(#LinearGradient_4)" fill-rule="evenodd" opacity="1" stroke="none" vectornator:layerName="path"/>
<path d="M275.9 249.47L235.38 226.56L200.89 234.82L200.44 234.83L200.03 234.68L199.71 234.39L199.52 233.97L199.5 233.52L199.66 233.11L199.95 232.79L200.36 232.6L232.45 224.91L170.58 190.14L170.24 189.84L170.04 189.45L170.01 189.02L170.14 188.59L170.44 188.24L170.83 188.04L171.26 188.01L171.69 188.15L275.31 246.51L271.74 211.43L271.85 210.76L272.22 210.36L272.76 210.17L273.31 210.24L273.76 210.56L274 211.19L277.74 247.89L328.36 276.85L350.45 289.88L350.79 290.19L350.97 290.59L350.99 291.02L350.83 291.45L350.52 291.79L350.13 291.97L349.7 291.99L349.27 291.83L337.13 284.6L314.8 271.66L314.67 271.72L283.16 283.27L282.71 283.34L282.29 283.23L281.93 282.98L281.7 282.59L281.63 282.14L281.73 281.72L281.99 281.36L282.37 281.12L312.23 270.18L276.26 249.68L275.9 249.47Z" fill="#ffffff" fill-rule="nonzero" opacity="1" stroke="none" vectornator:layerName="path"/>
<path d="M346.4 327L334.46 322.17L323.57 317.16L313.66 311.99L304.68 306.66L296.55 301.19L289.23 295.57L282.66 289.82L276.79 283.94L271.59 277.92L267 271.74L263.02 265.41L259.6 258.91L256.74 252.21L254.41 245.31L252.62 238.17L251.37 230.78L250.4 221.2L250.01 211.68L250.18 202.22L250.92 192.79L252.22 183.38L254.1 173.98L256.56 164.56L259.62 155.11L263.29 145.63L267.6 136.08L272.56 126.47L278.22 116.78L284.59 107L296.64 113.83L307.6 120.73L317.54 127.69L326.54 134.72L334.64 141.8L341.91 148.95L348.39 156.16L354.12 163.44L359.16 170.8L363.52 178.25L367.25 185.81L370.36 193.48L372.86 201.3L374.78 209.28L376.11 217.44L376.84 225.82L376.98 234.42L376.49 243.29L375.37 252.45L373.57 261.92L371.07 271.74L367.82 281.93L363.79 292.52L358.91 303.55L353.13 315.03L346.4 327Z" fill="url(#LinearGradient_5)" fill-rule="evenodd" opacity="1" stroke="none" vectornator:layerName="path"/>
<path d="M322.56 236.3L337.92 292.7L344.34 317.59L344.36 318.04L344.21 318.45L343.92 318.77L343.51 318.97L343.05 318.98L342.65 318.83L342.33 318.54L342.14 318.13L338.65 304.4L332 279.41L331.87 279.36L301.52 265.17L301.15 264.89L300.93 264.52L300.86 264.09L300.96 263.65L301.23 263.28L301.61 263.06L302.03 262.99L302.47 263.09L331.22 276.54L320.27 236.53L320.15 236.12L307.67 191.17L277.54 172.55L277.21 172.23L277.03 171.84L277.01 171.4L277.17 170.97L277.48 170.64L277.87 170.46L278.3 170.44L278.73 170.6L306.77 187.93L287.57 119.45L287.53 119L287.67 118.59L287.95 118.25L288.35 118.04L288.8 118.01L289.21 118.15L289.54 118.43L289.75 118.83L321.82 233.61L343.96 206.27L344.51 205.88L345.06 205.86L345.56 206.11L345.91 206.56L345.99 207.1L345.72 207.72L322.56 236.3Z" fill="#ffffff" fill-rule="nonzero" opacity="1" stroke="none" vectornator:layerName="path"/>
<path d="M404 366.56L393.87 374.5L384.11 381.44L374.7 387.43L365.62 392.56L356.84 396.86L348.34 400.39L340.1 403.21L332.09 405.35L324.29 406.84L316.67 407.72L309.21 408L301.89 407.7L294.67 406.83L287.54 405.38L280.48 403.35L273.46 400.73L264.7 396.76L256.28 392.33L248.19 387.43L240.41 382.06L232.93 376.21L225.73 369.87L218.81 363.01L212.17 355.62L205.79 347.67L199.69 339.14L193.85 330L188.28 320.23L183 309.78L194.9 302.76L206.32 296.72L217.29 291.58L227.84 287.31L238 283.83L247.79 281.11L257.25 279.11L266.39 277.78L275.26 277.11L283.87 277.05L292.26 277.61L300.44 278.76L308.45 280.5L316.3 282.84L324.02 285.78L331.62 289.33L339.13 293.53L346.56 298.4L353.92 303.97L361.22 310.28L368.47 317.38L375.67 325.31L382.83 334.13L389.94 343.91L397 354.7L404 366.56Z" fill="url(#LinearGradient_6)" fill-rule="nonzero" opacity="1" stroke="none" vectornator:layerName="path"/>
<path d="M313.17 341.12L369.5 355.9L394.18 362.73L394.58 362.94L394.86 363.28L394.99 363.69L394.95 364.14L394.74 364.55L394.41 364.82L394 364.96L393.54 364.92L379.96 361.1L355.08 354.42L354.96 354.51L327.52 373.79L327.1 373.98L326.67 373.98L326.27 373.83L325.93 373.51L325.75 373.1L325.75 372.66L325.9 372.26L326.21 371.93L352.21 353.66L312.21 343.22L311.8 343.12L266.79 331.55L235.63 348.43L235.19 348.57L234.76 348.52L234.38 348.32L234.09 347.97L233.95 347.54L234 347.11L234.2 346.72L234.55 346.43L263.54 330.72L194.86 313.25L194.45 313.05L194.16 312.73L194.01 312.32L194.04 311.87L194.23 311.46L194.56 311.17L194.96 311.02L195.42 311.04L310.47 340.42L297.98 307.55L297.92 306.88L298.18 306.4L298.64 306.08L299.2 306.01L299.71 306.2L300.11 306.74L313.17 341.12Z" fill="#ffffff" fill-rule="nonzero" opacity="1" stroke="none" vectornator:layerName="path"/>
</g>
<g opacity="1" vectornator:layerName="g">
<path d="M350 254L1197 254L1200.65 254.34L1204 255.25L1207.09 256.73L1209.9 258.72L1212.28 261.1L1214.27 263.91L1215.75 267L1216.66 270.35L1217 274L1217 880L1216.66 883.65L1215.75 887L1214.27 890.09L1212.28 892.9L1209.9 895.28L1207.09 897.27L1204 898.75L1200.65 899.66L1197 900L350 900L346.35 899.66L343 898.75L339.91 897.27L337.1 895.28L334.72 892.9L332.73 890.09L331.25 887L330.34 883.65L330 880L330 274L330.34 270.35L331.25 267L332.73 263.91L334.72 261.1L337.1 258.72L339.91 256.73L343 255.25L346.35 254.34L350 254Z" fill="url(#LinearGradient_7)" fill-rule="evenodd" opacity="1" stroke="none" vectornator:layerName="path"/>
<path d="M378 376L469 376L470.57 376.32L471.83 377.17L472.68 378.43L473 380L473 458L472.68 459.57L471.83 460.83L470.57 461.68L469 462L378 462L376.43 461.68L375.17 460.83L374.32 459.57L374 458L374 380L374.32 378.43L375.17 377.17L376.43 376.32L378 376ZM378 502L469 502L470.57 502.32L471.83 503.17L472.68 504.43L473 506L473 584L472.68 585.57L471.83 586.83L470.57 587.68L469 588L378 588L376.43 587.68L375.17 586.83L374.32 585.57L374 584L374 506L374.32 504.43L375.17 503.17L376.43 502.32L378 502ZM378 628L469 628L470.57 628.32L471.83 629.17L472.68 630.43L473 632L473 710L472.68 711.57L471.83 712.83L470.57 713.68L469 714L378 714L376.43 713.68L375.17 712.83L374.32 711.57L374 710L374 632L374.32 630.43L375.17 629.17L376.43 628.32L378 628ZM378 754L469 754L470.57 754.32L471.83 755.17L472.68 756.43L473 758L473 836L472.68 837.57L471.83 838.83L470.57 839.68L469 840L378 840L376.43 839.68L375.17 838.83L374.32 837.57L374 836L374 758L374.32 756.43L375.17 755.17L376.43 754.32L378 754Z" fill="url(#LinearGradient_8)" fill-rule="evenodd" opacity="1" stroke="none" vectornator:layerName="path"/>
<path d="M517 376L1175.86 376L1177.43 376.32L1178.69 377.17L1179.54 378.43L1179.86 380L1179.86 836.72L1179.54 838.29L1178.69 839.55L1177.43 840.4L1175.86 840.72L517 840.72L515.43 840.4L514.17 839.55L513.32 838.29L513 836.72L513 380L513.32 378.43L514.17 377.17L515.43 376.32L517 376Z" fill="#ffffff" fill-rule="evenodd" opacity="1" stroke="none" vectornator:layerName="path"/>
<path d="M543 406L715 406L715 436L543 436L543 406ZM543 466L1185 466L1185 496L543 496L543 466ZM543 526L1075 526L1075 556L543 556L543 526ZM543 586L1185 586L1185 616L543 616L543 586ZM543 646L1135 646L1135 676L543 676L543 646ZM543 706L1185 706L1185 736L543 736L543 706ZM543 766L843.44 766L843.44 796L543 796L543 766Z" fill="#d0f6ff" fill-rule="evenodd" opacity="1" stroke="none" vectornator:layerName="path"/>
<path d="M941.38 721.19L926.06 697.7L925.52 696.43L925.43 695.1L925.79 693.82L926.58 692.69L950.69 668.58L951.82 667.79L953.1 667.43L954.43 667.52L955.7 668.06L979.19 683.38L984.79 680.41L990.57 677.79L996.56 675.52L1002.77 673.61L1008.54 646.18L1009.06 644.89L1009.94 643.89L1011.09 643.24L1012.46 643L1046.54 643L1047.91 643.24L1049.06 643.89L1049.94 644.89L1050.46 646.18L1056.23 673.61L1062.44 675.52L1068.43 677.79L1074.21 680.41L1079.81 683.38L1103.3 668.06L1104.57 667.52L1105.9 667.43L1107.18 667.79L1108.31 668.58L1132.41 692.69L1133.21 693.82L1133.57 695.1L1133.48 696.43L1132.94 697.7L1117.62 721.19L1120.59 726.79L1123.21 732.57L1125.48 738.56L1127.39 744.77L1154.82 750.54L1156.11 751.06L1157.11 751.94L1157.76 753.09L1158 754.46L1158 788.54L1157.76 789.91L1157.11 791.06L1156.11 791.94L1154.82 792.46L1127.39 798.23L1125.48 804.44L1123.21 810.43L1120.59 816.21L1117.62 821.81L1134.71 848.02L1108.31 874.42L1107.18 875.21L1105.9 875.57L1104.57 875.48L1103.3 874.94L1079.81 859.62L1074.21 862.59L1068.43 865.21L1062.44 867.48L1056.23 869.39L1050.46 896.82L1049.94 898.11L1049.06 899.11L1047.91 899.76L1046.54 900L1012.46 900L1011.09 899.76L1009.94 899.11L1009.06 898.11L1008.54 896.82L1002.77 869.39L996.56 867.48L990.57 865.21L984.79 862.59L979.19 859.62L955.7 874.94L954.43 875.48L953.1 875.57L951.82 875.21L950.69 874.42L926.58 850.31L925.79 849.18L925.43 847.9L925.52 846.57L926.06 845.3L941.38 821.81L938.41 816.21L935.79 810.43L933.52 804.44L931.61 798.23L904.18 792.46L902.89 791.94L901.89 791.06L901.24 789.91L901 788.54L901 754.46L901.24 753.09L901.89 751.94L902.89 751.06L904.18 750.54L931.61 744.77L933.52 738.56L935.79 732.57L938.41 726.79L941.38 721.19ZM1029.5 819L1034.43 818.74L1039.14 818.02L1043.65 816.86L1047.99 815.27L1052.17 813.24L1056.07 810.88L1059.7 808.16L1063.09 805.09L1066.16 801.7L1068.88 798.07L1071.24 794.17L1073.27 789.99L1074.86 785.65L1076.02 781.14L1076.74 776.43L1077 771.5L1076.74 766.57L1076.02 761.86L1074.86 757.35L1073.27 753.01L1071.24 748.83L1068.88 744.93L1066.16 741.3L1063.09 737.91L1059.7 734.84L1056.07 732.12L1052.17 729.76L1047.99 727.73L1043.65 726.14L1039.14 724.98L1034.43 724.26L1029.5 724L1024.57 724.26L1019.86 724.98L1015.35 726.14L1011.01 727.73L1006.83 729.76L1002.93 732.12L999.3 734.84L995.91 737.91L992.84 741.3L990.12 744.93L987.76 748.83L985.73 753.01L984.14 757.35L982.98 761.86L982.26 766.57L982 771.5L982.26 776.43L982.98 781.14L984.14 785.65L985.73 789.99L987.76 794.17L990.12 798.07L992.84 801.7L995.91 805.09L999.3 808.16L1002.93 810.88L1006.83 813.24L1011.01 815.27L1015.35 816.86L1019.86 818.02L1024.57 818.74L1029.5 819Z" fill="url(#LinearGradient_9)" fill-rule="evenodd" opacity="1" stroke="none" vectornator:layerName="path"/>
<path d="M350 254L1197 254L1200.65 254.34L1204 255.25L1207.09 256.73L1209.9 258.72L1212.28 261.1L1214.27 263.91L1215.75 267L1216.66 270.35L1217 274L1217 336.9L330 336.9L330 274L330.34 270.35L331.25 267L332.73 263.91L334.72 261.1L337.1 258.72L339.91 256.73L343 255.25L346.35 254.34L350 254Z" fill="url(#LinearGradient_10)" fill-rule="evenodd" opacity="1" stroke="none" vectornator:layerName="path"/>
</g>
<g opacity="1" vectornator:layerName="g">
<path d="M313.52 550.25L624.48 550.25L626.95 550.48L629.21 551.1L631.3 552.11L633.2 553.46L634.81 555.08L636.15 556.98L637.15 559.09L637.77 561.36L638 563.84L638 763.1L637.77 765.58L637.15 767.85L636.15 769.96L634.81 771.87L633.2 773.48L631.3 774.83L629.21 775.84L626.95 776.46L624.48 776.69L313.52 776.69L311.05 776.46L308.79 775.84L306.7 774.83L304.8 773.48L303.19 771.87L301.85 769.96L300.85 767.85L300.23 765.58L300 763.1L300 563.84L300.23 561.36L300.85 559.09L301.85 556.98L303.19 555.08L304.8 553.46L306.7 552.11L308.79 551.1L311.05 550.48L313.52 550.25Z" fill="url(#LinearGradient_11)" fill-rule="evenodd" opacity="1" stroke="none" vectornator:layerName="path"/>
<path d="M469 654.41L624.48 776.69L313.52 776.69L469 654.41Z" fill="url(#LinearGradient_12)" fill-rule="evenodd" opacity="1" stroke="none" vectornator:layerName="path"/>
<path d="M313.52 550.25L624.48 550.25L469 687.35L313.52 550.25Z" fill="#52d7fd" fill-rule="evenodd" opacity="1" stroke="none" vectornator:layerName="path"/>
</g>
<g opacity="1" vectornator:layerName="g">
<path d="M300 589.91L300 612.12L249.95 586.28L223 517.45L264.83 506.24L282.44 576.26L300 589.91Z" fill="#221e41" fill-rule="evenodd" opacity="1" stroke="none" vectornator:layerName="path"/>
<path d="M258.62 505.19L233.63 485.65L241.1 476.09L241.75 471.5L242.97 466.83L244.77 462.05L247.21 457.14L250.35 452.06L254.25 446.8L259 441.33L264.69 435.64L268.09 432.81L271.38 430.74L274.58 429.34L277.74 428.53L280.89 428.29L284.1 428.59L287.4 429.48L290.84 431L294.47 433.24L298.31 436.33L302.41 440.38L306.78 445.56L311.45 452.04L308.58 456.65L306.55 460.68L305.24 464.21L304.53 467.29L304.32 470.02L304.56 472.44L305.21 474.63L306.12 477.47L306.45 479.53L306.36 481L305.91 482.39L305.25 483.34L304.39 483.95L302.85 484.4L301.31 484.31L299.83 484.11L298.37 484.23L296.95 484.75L295.37 485.86L293.9 487.45L292.13 490.04L290.87 491.79L289.64 492.95L288.44 493.63L287.09 494L285.59 494.12L283.92 493.94L281.32 493.37L278.13 492.5L276.3 492.3L274.1 492.72L271.38 493.91L268.01 496.15L263.81 499.78L258.62 505.19Z" fill="#f4b696" fill-rule="evenodd" opacity="1" stroke="none" vectornator:layerName="path"/>
<path d="M232.33 855.33L253.9 856.84L252.39 878.4L230.82 876.89L232.33 855.33Z" fill="#f4b696" fill-rule="evenodd" opacity="1" stroke="none" vectornator:layerName="path"/>
<path d="M230.1 875.22L252.76 876.81L266.78 882.6L273.28 885.44L275.14 886.48L276.65 887.68L277.86 889.02L278.72 890.58L279.21 892.58L279.29 895.17L278.94 896.63L278.21 897.74L277.18 898.48L275.98 898.69L233.48 895.71L232.19 895.44L231.11 894.9L230.19 894.08L229.5 893.05L229.12 891.9L229.02 890.59L230.1 875.22Z" fill="url(#LinearGradient_13)" fill-rule="evenodd" opacity="1" stroke="none" vectornator:layerName="path"/>
<path d="M82.78 849.49L100.27 862.2L87.57 879.69L70.07 866.98L82.78 849.49Z" fill="#f4b696" fill-rule="evenodd" opacity="1" stroke="none" vectornator:layerName="path"/>
<path d="M70.34 865.18L88.72 878.53L97.54 890.88L101.55 896.73L102.57 898.6L103.22 900.41L103.54 902.2L103.44 903.97L102.8 905.93L101.49 908.16L100.42 909.22L99.21 909.78L97.95 909.85L96.82 909.39L62.35 884.35L61.4 883.43L60.77 882.4L60.43 881.22L60.39 879.99L60.67 878.81L61.29 877.64L70.34 865.18Z" fill="url(#LinearGradient_14)" fill-rule="evenodd" opacity="1" stroke="none" vectornator:layerName="path"/>
<path d="M240.92 475.62L239.71 473.8L239.1 472.08L238.99 470.4L239.37 468.7L240.49 466.47L241.05 465.44L241.53 464.2L241.81 462.78L241.86 460.68L241.61 458.29L240.88 454.73L240.15 451.35L239.73 447.84L239.61 444.19L239.9 440.58L240.76 436.79L242.22 432.78L243.62 429.97L245.51 427.01L247.94 423.87L250.98 420.52L254.26 417.55L257.23 415.38L259.92 413.9L262.78 412.79L265.47 412.17L268 411.98L271.81 412.32L275.49 413.27L279.08 414.63L282.62 416.24L288.75 419.32L294.17 422.05L297.05 423.27L300.58 424.52L304.47 425.65L309.65 426.87L313.3 427.92L316.15 429.22L318.34 430.73L319.97 432.43L321.24 434.48L321.99 436.64L322.25 438.98L321.99 441.56L321.29 444.02L320.12 446.59L318.41 449.3L316.08 452.17L313.97 454.05L311.75 455.38L309.41 456.2L306.93 456.62L304.41 456.71L301.84 456.46L298.06 455.63L294.52 454.43L291.2 452.96L288.57 451.57L285.15 449.36L284.17 448.87L283.37 448.91L282.64 449.42L281.68 450.75L280.61 452.95L278.37 458.03L277.38 459.66L276.44 460.76L275.54 461.44L274.05 462.03L272.83 462.05L271.79 461.66L271.21 461.07L270.75 460.35L270.01 459.56L269.08 458.91L267.84 458.48L266.44 458.41L264.58 458.86L263.4 459.51L262.5 460.35L261.83 461.39L261.23 463.15L261.09 464.83L261.4 466.36L262.01 467.26L263.82 468.46L264.67 469.09L265.25 469.74L265.48 470.5L265.23 471.47L264.49 472.65L263.09 474.47L261.45 476.33L259.51 478.25L257.43 479.98L255.44 481.25L254.02 481.67L252.09 481.56L249.44 480.74L245.81 478.89L240.92 475.62Z" fill="url(#LinearGradient_15)" fill-rule="evenodd" opacity="1" stroke="none" vectornator:layerName="path"/>
<path d="M198.42 705.14L175.46 781.88L174.34 784.81L172.83 787.5L170.91 789.98L96.01 873.27L74.49 858.87L132.18 759.89L132.18 652.48L194.42 662.74L198.42 705.14Z" fill="#241f4a" fill-rule="evenodd" opacity="1" stroke="none" vectornator:layerName="path"/>
<path d="M131.73 652.48L215.32 659.88L276.41 723.15L278.6 725.83L280.29 728.73L281.49 731.87L282.19 735.17L282.35 738.52L281.96 741.96L257 869.18L228.54 867.38L233.83 750.63L161.46 720.75L157.05 718.65L152.98 716.21L149.22 713.41L145.76 710.25L142.61 706.77L139.85 703.04L137.46 699.07L135.44 694.83L133.84 690.43L132.69 685.89L131.98 681.19L131.73 676.31L131.73 652.48Z" fill="url(#LinearGradient_16)" fill-rule="evenodd" opacity="1" stroke="none" vectornator:layerName="path"/>
<path d="M131.73 652.48L163.8 572.02L179.38 532L185.33 515.87L187.04 511.64L189.2 507.49L191.85 503.4L194.87 499.58L198.27 496.04L202.07 492.77L206.17 489.9L210.56 487.49L215.28 485.54L218.94 484.44L222.73 483.69L226.68 483.3L230.8 483.26L234.84 483.62L239.02 484.43L243.37 485.71L247.91 487.51L252.17 489.8L255.84 492.41L258.97 495.35L261.62 498.62L263.86 502.21L265.73 506.07L267.22 510.22L268.32 514.68L269.22 520.73L269.6 527.11L269.43 533.87L268.79 540.61L267.77 547.43L266.36 554.35L263.68 564.56L260.52 574.3L256.85 583.98L252.01 595.39L245.81 608.75L238.07 624.29L228.6 642.23L217.18 662.84L131.73 652.48Z" fill="#00adff" fill-rule="evenodd" opacity="1" stroke="none" vectornator:layerName="path"/>
<path d="M228.54 642.42L204.35 547.35L231 538.65L243.65 613.55L228.54 642.42Z" fill="#221e41" fill-rule="evenodd" opacity="1" stroke="none" vectornator:layerName="path"/>
<path d="M252.71 540.85L264.04 602.91L334.68 660.91L347.3 666.35L337.8 668.9L343.37 689.69L338.08 689.88L333.61 689.61L329.83 688.95L326.67 687.95L324.01 686.65L321.8 685.07L319.98 683.21L317.79 680.15L315.63 676.24L313.5 671.34L311.43 665.28L309.46 657.87L231.54 612.92L210.88 552.06L252.71 540.85Z" fill="#f4b696" fill-rule="evenodd" opacity="1" stroke="none" vectornator:layerName="path"/>
<path d="M254.84 526.3L262.81 576.68L220.43 590.67L199.69 538.64" fill="#00adff" fill-rule="evenodd" opacity="1" stroke="none" vectornator:layerName="path"/>
<path d="M164.33 670.21L165.24 669.79L168.11 676.18L167.2 676.59L164.33 670.21ZM171.3 685.71L172.21 685.3L173.89 689.03L175.23 691.53L174.39 692.06L172.97 689.44L171.3 685.71ZM181.83 699.02L182.32 698.15L188.43 701.57L187.94 702.44L181.83 699.02ZM196.67 707.33L197.15 706.46L203.26 709.88L202.77 710.75L196.67 707.33ZM211.5 715.64L211.99 714.77L218.09 718.19L217.6 719.06L211.5 715.64ZM226.33 723.95L226.82 723.08L232.92 726.5L232.43 727.37L226.33 723.95ZM241.16 732.26L241.65 731.39L247.75 734.81L247.27 735.68L241.16 732.26ZM254.41 742.21L255.25 741.67L256.95 744.84L258.07 748.26L257.09 748.49L256.03 745.23L254.41 742.21ZM257.09 758.27L258.08 758.39L257.24 765.34L256.25 765.22L257.09 758.27ZM255.04 775.15L256.04 775.27L255.19 782.22L254.2 782.1L255.04 775.15ZM253 792.03L253.99 792.15L253.15 799.1L252.15 798.98L253 792.03ZM250.95 808.9L251.94 809.02L251.1 815.97L250.11 815.85L250.95 808.9ZM248.9 825.78L249.9 825.9L249.05 832.85L248.06 832.73L248.9 825.78ZM246.86 842.66L247.85 842.78L247.01 849.73L246.01 849.61L246.86 842.66Z" fill="#a587ff" fill-rule="nonzero" opacity="1" stroke="none" vectornator:layerName="path"/>
</g>
<g opacity="1" vectornator:layerName="g">
<path d="M837 148.26L1211 148.26L1213.14 148.55L1215.04 149.36L1216.66 150.61L1217.91 152.23L1218.71 154.12L1219 156.26L1219 474.26L1218.71 476.41L1217.91 478.3L1216.66 479.92L1215.04 481.17L1213.14 481.97L1211 482.26L837 482.26L834.86 481.97L832.96 481.17L831.34 479.92L830.09 478.3L829.29 476.41L829 474.26L829 156.26L829.29 154.12L830.09 152.23L831.34 150.61L832.96 149.36L834.86 148.55L837 148.26Z" fill="url(#LinearGradient_17)" fill-rule="evenodd" opacity="1" stroke="none" vectornator:layerName="path"/>
<path d="M859 240.26L909 240.26L909 290.26L859 290.26L859 240.26ZM859 320.26L909 320.26L909 370.26L859 370.26L859 320.26ZM952 240.26L1002 240.26L1002 290.26L952 290.26L952 240.26ZM952 320.26L1002 320.26L1002 370.26L952 370.26L952 320.26ZM1046 240.26L1096 240.26L1096 290.26L1046 290.26L1046 240.26ZM1139 240.26L1189 240.26L1189 290.26L1139 290.26L1139 240.26ZM1139 320.26L1189 320.26L1189 370.26L1139 370.26L1139 320.26ZM859 400.26L909 400.26L909 450.26L859 450.26L859 400.26ZM952 400.26L1002 400.26L1002 450.26L952 450.26L952 400.26ZM1046 400.26L1096 400.26L1096 450.26L1046 450.26L1046 400.26ZM1139 400.26L1189 400.26L1189 450.26L1139 450.26L1139 400.26Z" fill="#77d0e6" fill-rule="evenodd" opacity="1" stroke="none" vectornator:layerName="path"/>
<path d="M1046 320.26L1096 320.26L1096 370.26L1046 370.26L1046 320.26Z" fill="url(#LinearGradient_18)" fill-rule="evenodd" opacity="1" stroke="none" vectornator:layerName="path"/>
<path d="M837 148.26L1211 148.26L1213.14 148.55L1215.04 149.36L1216.66 150.61L1217.91 152.23L1218.71 154.12L1219 156.26L1219 210.59L829 210.59L829 156.26L829.29 154.12L830.09 152.23L831.34 150.61L832.96 149.36L834.86 148.55L837 148.26Z" fill="url(#LinearGradient_19)" fill-rule="evenodd" opacity="1" stroke="none" vectornator:layerName="path"/>
</g>
<g opacity="1" vectornator:layerName="g">
<path d="M1311.36 884.36L1314.89 878.64L1318.29 874.13L1320.02 872.35L1321.14 871.63L1322.18 871.44L1322.95 871.76L1323.59 872.42L1324.18 873.34L1325.68 875.94L1327.69 879.42L1329.79 883.05L1330.57 884.71L1330.74 885.88L1330.37 886.92L1329.2 888.08L1327.49 889.15L1324.56 890.66L1320.62 892.52L1317.71 893.92L1314.9 895.61L1311.24 898.35L1308.83 900.14L1305.72 902.17L1302.39 904.06L1298.88 905.76L1295.32 907.13L1292.12 907.93L1290.01 908.14L1288.27 907.97L1286.84 907.48L1285.71 906.62L1285.16 905.68L1285.07 904.61L1285.35 903.48L1285.97 902.19L1287.03 900.68L1288.93 898.55L1291.39 896.22L1296.82 891.77L1300.67 889.06L1304.35 886.96L1307.91 885.41L1311.36 884.36Z" fill="url(#LinearGradient_20)" fill-rule="evenodd" opacity="1" stroke="none" vectornator:layerName="path"/>
<path d="M1314.17 856L1324.92 874.63L1321.79 878.55L1318.71 881.9L1315.29 884.74L1311.5 887.11L1307.43 888.95L1303.17 890.23L1298.67 890.94L1307.33 883.1L1297.31 865.73L1314.17 856Z" fill="#f4b696" fill-rule="evenodd" opacity="1" stroke="none" vectornator:layerName="path"/>
<path d="M1297.74 876.21L1225.91 763.53L1245.27 627L1271.6 761.1L1324.12 863.17L1297.74 876.21Z" fill="#241f4a" fill-rule="evenodd" opacity="1" stroke="none" vectornator:layerName="path"/>
<path d="M1215.39 893.16L1221.31 889.97L1226.5 887.76L1228.9 887.08L1230.22 887.02L1231.22 887.38L1231.72 888.04L1231.95 888.93L1232 890.03L1232 893.03L1232 897.04L1232 901.24L1231.85 903.07L1231.41 904.16L1230.57 904.88L1228.98 905.29L1226.96 905.37L1223.67 905.22L1219.32 904.85L1216.11 904.61L1212.83 904.67L1208.29 905.22L1205.31 905.56L1201.6 905.76L1197.77 905.73L1193.88 905.45L1190.12 904.85L1186.94 903.95L1185 903.07L1183.59 902.06L1182.59 900.92L1182.05 899.61L1182.04 898.52L1182.49 897.55L1183.3 896.71L1184.48 895.9L1186.16 895.13L1188.87 894.23L1192.17 893.45L1199.09 892.31L1203.78 891.88L1208.02 891.91L1211.87 892.34L1215.39 893.16Z" fill="url(#LinearGradient_21)" fill-rule="evenodd" opacity="1" stroke="none" vectornator:layerName="path"/>
<path d="M1232 870L1232 891.51L1227.33 893.34L1222.99 894.7L1218.6 895.45L1214.14 895.61L1209.69 895.17L1205.36 894.14L1201.11 892.51L1212.53 890.05L1212.53 870L1232 870Z" fill="#f4b696" fill-rule="evenodd" opacity="1" stroke="none" vectornator:layerName="path"/>
<path d="M1078.69 379.03L1069.99 369.32L1070.48 365.6L1070.38 362.43L1069.78 359.7L1068.71 357.33L1067.16 355.26L1065.09 353.44L1062.54 358.55L1058.08 354.95L1054.16 351.14L1050.74 347.1L1049.65 346.06L1048.55 345.58L1047.39 345.55L1046.22 345.91L1045 346.61L1043.71 347.75L1042.04 349.83L1040.52 352.53L1039.39 355.51L1038.68 358.72L1038.5 360.92L1038.61 363.06L1039 365.17L1039.89 367.64L1041.02 369.77L1042.38 371.61L1044.8 374.06L1047.51 376.17L1053.25 379.9L1056 381.79L1058.42 383.82L1068.69 392.9L1078.69 379.03Z" fill="#f4b696" fill-rule="evenodd" opacity="1" stroke="none" vectornator:layerName="path"/>
<path d="M1213.68 424.34L1210 402L1205.5 402.41L1201.89 402.23L1199 401.58L1196.69 400.52L1194.86 399.09L1193.43 397.26L1192.38 394.95L1191.73 392.07L1189.91 377.16L1183.78 375.18L1191.73 364.92L1195.98 345.15L1199.17 344.23L1202.39 343.8L1205.7 343.86L1209.13 344.41L1212.71 345.51L1216.48 347.2L1220.48 349.56L1224.74 352.68L1229.29 356.66L1232.06 359.71L1234.37 363.08L1236.24 366.79L1237.69 370.7L1238.81 374.79L1239.59 379.1L1240.22 385.63L1240.31 392.18L1239.96 398.64L1239.31 404.6L1238.44 410.29L1237.54 414.95L1235.95 421.82L1235.21 423.65L1234.11 425.07L1232.59 426.13L1230.55 426.86L1227.85 427.18L1224.29 426.99L1219.65 426.11L1213.68 424.34Z" fill="#f4b696" fill-rule="evenodd" opacity="1" stroke="none" vectornator:layerName="path"/>
<path d="M1238 882.64L1204.15 882.64L1161.01 590.22L1248.87 589.8L1249.71 597.84L1250.14 605.89L1250.17 613.96L1249.8 622.02L1249.04 630.05L1247.87 638.05L1227.64 756.08L1238 882.64Z" fill="url(#LinearGradient_22)" fill-rule="evenodd" opacity="1" stroke="none" vectornator:layerName="path"/>
<path d="M1161.01 590.22L1175.09 480.5L1172.64 475.41L1170.79 470.22L1169.51 464.89L1168.81 459.4L1168.68 453.71L1169.16 447.79L1170.27 441.6L1171.61 438.18L1173.26 435.43L1175.2 433.26L1177.44 431.58L1180.01 430.36L1183 429.59L1186.48 429.33L1189.79 428.99L1194.31 427.91L1199.08 426.38L1204.52 424.36L1215.7 419.75L1226.48 415.14L1235.48 411.59L1239.15 410.49L1241.31 410.17L1243.72 411.32L1245.89 412.89L1247.83 414.94L1249.56 417.53L1251.07 420.76L1252.32 424.73L1253.28 429.57L1253.87 435.44L1254.01 442.48L1253.63 450.86L1252.6 467.84L1251.47 494.59L1250.26 534.28L1249.02 590.5L1161.01 590.22Z" fill="url(#LinearGradient_23)" fill-rule="evenodd" opacity="1" stroke="none" vectornator:layerName="path"/>
<path d="M1214.16 457.94L1170.5 468.96L1169.36 464.29L1168.61 458.68L1168.34 452L1168.6 450.63L1169.37 449.58L1170.76 448.77L1173.03 448.25L1176.59 448.17L1181.89 448.78L1189.48 450.37L1200.01 453.3L1214.16 457.94Z" fill="#211d41" fill-rule="evenodd" opacity="1" stroke="none" vectornator:layerName="path"/>
<path d="M1225.96 458.9L1130.93 453.83L1127.59 453.34L1124.44 452.24L1121.55 450.59L1118.98 448.4L1059.32 386.95L1076.59 374.15L1129.61 418.58L1228.43 411.16L1239.84 410.37L1240.4 410.62L1240.76 411.56L1240.72 413.86L1239.84 418.58L1225.96 458.9Z" fill="url(#LinearGradient_24)" fill-rule="evenodd" opacity="1" stroke="none" vectornator:layerName="path"/>
<path d="M1187.34 342.71L1186.27 345.01L1185.8 347.16L1185.84 349.23L1186.4 351.28L1187.54 353.38L1189.36 355.55L1192.02 357.84L1195.72 360.25L1200.69 362.79L1207.19 365.45L1211.66 367.27L1214.81 368.85L1216.92 370.22L1218.79 371.87L1219.92 373.36L1220.48 374.73L1220.71 376.99L1220.31 379.39L1218.86 384.61L1218.43 387.49L1218.58 390.78L1219.1 392.96L1220.17 395.44L1221.91 398.32L1223.55 401.21L1224.56 404.22L1224.99 407.38L1224.97 410.62L1224.62 414.04L1223.94 417.67L1221.22 428.86L1220.01 434.69L1219.3 440.64L1219.24 444.62L1219.67 448.62L1220.61 452.69L1221.67 455.59L1223.16 458.55L1225.13 461.59L1227.64 464.71L1237.81 476.43L1243.88 484.14L1247.07 488.94L1248.4 491.72L1248.65 493.21L1252.53 491.18L1255.96 488.7L1258.98 485.74L1261.62 482.28L1263.89 478.26L1265.77 473.59L1267.24 468.21L1268.26 462L1268.47 458.03L1268.28 454.06L1267.69 450.07L1266.23 444.14L1264.21 438.16L1261.85 432.25L1259.31 426.36L1256.77 420.5L1254.46 414.76L1252.49 409.01L1251.12 403.45L1250.59 399.73L1250.48 396.09L1250.79 392.52L1251.9 384.49L1252.54 376.74L1252.58 371.61L1252.15 366.69L1251.26 361.94L1250.22 358.5L1248.76 355.16L1246.88 351.9L1244.54 348.71L1241.92 345.88L1238.68 343.1L1234.74 340.36L1230 337.67L1224.5 335.2L1219.4 333.52L1214.66 332.55L1210.22 332.22L1206.03 332.49L1202.04 333.32L1198.21 334.73L1194.5 336.73L1190.88 339.36L1187.34 342.71Z" fill="url(#LinearGradient_25)" fill-rule="evenodd" opacity="1" stroke="none" vectornator:layerName="path"/>
<path d="M1219.36 871.47L1218.37 871.58L1217.61 864.62L1218.6 864.51L1219.36 871.47ZM1217.52 854.57L1216.52 854.68L1215.76 847.72L1216.76 847.61L1217.52 854.57ZM1215.67 837.67L1214.67 837.78L1213.91 830.82L1214.91 830.72L1215.67 837.67ZM1213.82 820.77L1212.83 820.88L1212.07 813.92L1213.06 813.82L1213.82 820.77ZM1211.98 803.87L1210.98 803.98L1210.22 797.02L1211.22 796.92L1211.98 803.87ZM1210.13 786.98L1209.14 787.08L1208.38 780.13L1209.37 780.02L1210.13 786.98ZM1208.28 770.08L1207.29 770.18L1206.53 763.23L1207.52 763.12L1208.28 770.08ZM1206.44 753.18L1205.44 753.29L1204.68 746.33L1205.68 746.22L1206.44 753.18ZM1205.59 736.29L1204.59 736.28L1204.67 729.28L1205.67 729.29L1205.59 736.29ZM1205.78 719.29L1204.78 719.28L1204.86 712.28L1205.86 712.29L1205.78 719.29ZM1205.98 702.29L1204.98 702.28L1205.05 695.28L1206.05 695.29L1205.98 702.29ZM1206.17 685.29L1205.17 685.28L1205.25 678.28L1206.25 678.29L1206.17 685.29ZM1206.36 668.29L1205.36 668.28L1205.44 661.28L1206.44 661.29L1206.36 668.29ZM1206.55 651.29L1205.55 651.28L1205.63 644.28L1206.63 644.29L1206.55 651.29ZM1206.74 634.29L1205.74 634.28L1205.82 627.28L1206.82 627.3L1206.74 634.29ZM1206.93 617.3L1205.93 617.28L1206.01 610.29L1207.01 610.3L1206.93 617.3Z" fill="#a587ff" fill-rule="nonzero" opacity="1" stroke="none" vectornator:layerName="path"/>
</g>
</g>
</svg>
