<svg xml:space="preserve" style="enable-background:new 0 0 256.5 253.117;"
    viewBox="0 0 256.5 253.117" height="253.117px" width="256.5px" y="0px" x="0px"
    xmlns:xlink="http://www.w3.org/1999/xlink" xmlns="http://www.w3.org/2000/svg" id="Layer_1"
    version="1.1">
<g id="Layer_4">
	<g style="opacity:0.39;" id="Layer_4_2_">
		<path d="M247.842,121.503c0-39.901-32.425-72.247-72.422-72.247c-0.621,0-1.236,0.03-1.855,0.045
			c-12.629-21.166-35.779-35.36-62.269-35.36c-39.998,0-72.42,32.348-72.42,72.25c0,0.519,0.029,1.028,0.04,1.546
			c0,21.603-36.637,35.89-36.637,62.802c0,39.898,32.425,72.244,72.422,72.244c2.275,0,4.521-0.12,6.744-0.323
			c29.338,0,33.382,26.286,55.88,26.286c36.97,0,67.442-27.639,71.851-63.329C219.357,160.51,247.842,149.242,247.842,121.503z" style="fill:#D5CFFF;"></path>
	</g>
	<path d="M54.986,110.017" style="fill:#F8CFFF;"></path>
</g>
<g id="Layer_13">
	<g id="Layer_1_2_">
		<g style="display:none;" id="Layer_3_4_">
			<g style="display:inline;">
				<g>
					<path d="M82.412,140.542c0-11.563-10.059-20.936-22.467-20.936c-0.194,0-0.385,0.009-0.576,0.014
						c-3.917-6.134-11.102-10.245-19.318-10.245c-12.409,0-22.469,9.372-22.469,20.936c0,0.149,0.009,0.297,0.012,0.446
						c-6.785,3.603-11.365,10.399-11.365,18.198c0,11.562,10.059,20.934,22.468,20.934c0.705,0,1.403-0.033,2.092-0.094
						c4.122,4.65,10.358,7.617,17.335,7.617c11.471,0,20.925-8.01,22.293-18.35C77.549,155.555,82.412,148.579,82.412,140.542z" style="fill:#D7F7E4;"></path>
					<path d="M48.124,178.912c-6.895,0-13.393-2.749-17.95-7.568c-0.499,0.03-0.993,0.045-1.477,0.045
						c-13.216,0-23.968-10.063-23.968-22.434c0-7.768,4.328-14.997,11.357-19.076c0.247-12.173,10.902-22.004,23.964-22.004
						c8.091,0,15.716,3.9,20.112,10.232c13.116,0.11,23.749,10.131,23.749,22.435c0,8.109-4.626,15.515-12.127,19.506
						C69.938,170.857,59.914,178.912,48.124,178.912z M31.411,168.234l0.501,0.565c4.006,4.52,9.916,7.112,16.212,7.112
						c10.575,0,19.52-7.328,20.806-17.046l0.105-0.796l0.72-0.354c6.882-3.385,11.157-9.966,11.157-17.175
						c0-10.717-9.406-19.436-20.967-19.436c-0.115,0-0.229,0.004-0.344,0.008l-1.041,0.027l-0.456-0.714
						c-3.763-5.892-10.68-9.552-18.054-9.552c-11.562,0-20.969,8.719-20.969,19.436l0.029,1.339l-0.814,0.433
						c-6.519,3.461-10.568,9.927-10.568,16.873c0,10.716,9.406,19.434,20.968,19.434c0.637,0,1.296-0.029,1.961-0.088
						L31.411,168.234z" style="fill:#CCCCDE;"></path>
				</g>
				<path d="M59.566,118.853c-0.193,0-0.384,0.009-0.575,0.014
					c-3.141-4.918-8.383-8.534-14.573-9.775c4.898,1.229,9.023,4.208,11.558,8.175c0.165-0.004,2.416,3.886,2.583,3.886
					c10.648,0,15.601,5.738,15.601,15.66c0,6.896-2.583,11.291-8.704,14.302c-1.173,8.875-9.287,15.748-19.129,15.748
					c-5.99,0-11.34-2.544-14.877-6.53c-0.591,0.05-1.189,0.075-1.794,0.075c-10.649,0-19.013-5.048-19.013-14.968
					c0-6.683,2.99-9.973,8.432-13.938c-0.145-0.855-0.75-8.421,1.267-10.437c4.792-4.793,6.963-8.909,11.25-11.038
					c-8.414,3.025-14.385,10.627-14.385,19.536c0,0.147,0.009,0.3,0.012,0.447c-6.787,3.604-11.366,10.396-11.366,18.195
					c0,11.562,10.059,20.938,22.468,20.938c0.707,0,1.403-0.035,2.093-0.098c4.121,4.648,10.356,7.617,17.336,7.617
					c11.469,0,20.924-8.012,22.291-18.354c7.133-3.507,11.997-10.479,11.997-18.521C82.035,128.227,71.976,118.853,59.566,118.853z" style="opacity:0.1;fill:#6E6E96;enable-background:new    ;"></path>
				<g>
					<path d="M27.588,151.865c0,0,11.635,2.277,11.635,13.662c0,0,3.132,19.342-8.976,33.026h27.96
						c-0.277-0.39-24.422-32.646,2.449-51.815C44.268,156.107,27.588,151.865,27.588,151.865z" style="fill:#EDE3DA;"></path>
					<path d="M58.207,200.054h-31.29l2.207-2.494c11.477-12.972,8.648-31.607,8.619-31.794l-0.019-0.238
						c0-9.079-8.398-11.683-10.144-12.124c-0.238-0.053-0.362-0.084-0.362-0.084l0.658-2.926c0,0,0.139,0.026,0.39,0.089
						c0.935,0.203,4.231,0.841,8.802,0.841c5.724,0,14.333-1.021,22.844-5.887l1.616,2.522
						c-6.625,4.727-10.561,10.699-11.699,17.751c-2.42,14.998,8.331,30.236,9.565,31.925l1.744,2.385L58.207,200.054z
						 M33.382,197.054H55.38c-3.445-5.4-10.646-18.605-8.514-31.822c0.805-4.992,2.848-9.486,6.097-13.435
						c-6.069,2.011-11.71,2.526-15.896,2.526c-0.463,0-0.915-0.006-1.352-0.018c2.655,2.276,4.974,5.786,5.007,11.104
						C40.983,167.146,43.152,183.741,33.382,197.054z" style="fill:#CCCCDE;"></path>
				</g>
				<g>
					<path d="M34.955,129.025" style="fill:#D57E58;"></path>
				</g>
				<path d="M53.682,151.833c0,0-17.654,22.793-4.085,46.722h8.611
					C58.207,198.555,40.292,173.518,53.682,151.833z" style="opacity:0.11;fill:#6E6E96;enable-background:new    ;"></path>
			</g>
			<g style="display:inline;">
				<g>
					<path d="M252.252,139.26c0-10.828-9.42-19.604-21.04-19.604c-0.183,0-0.36,0.008-0.539,0.013
						c-3.669-5.744-10.396-9.595-18.091-9.595c-11.62,0-21.041,8.777-21.041,19.604c0,0.141,0.009,0.279,0.012,0.418
						c-6.354,3.375-10.644,9.739-10.644,17.043c0,10.825,9.421,19.604,21.04,19.604c0.66,0,1.312-0.032,1.96-0.089
						c3.858,4.354,9.698,7.134,16.233,7.134c10.735,0,19.596-7.499,20.875-17.185C247.697,153.316,252.252,146.786,252.252,139.26z" style="fill:#D7F7E4;"></path>
					<path d="M220.143,175.288c-6.467,0-12.563-2.573-16.848-7.085c-0.458,0.027-0.902,0.04-1.346,0.04
						c-12.429,0-22.54-9.468-22.54-21.104c0-7.289,4.053-14.077,10.637-17.92c0.262-11.426,10.271-20.646,22.536-20.646
						c7.59,0,14.745,3.652,18.885,9.583c12.312,0.128,22.285,9.545,22.285,21.103c0,7.612-4.335,14.567-11.367,18.328
						C240.629,167.733,231.214,175.288,220.143,175.288z M204.531,165.094l0.501,0.565c3.733,4.213,9.241,6.629,15.11,6.629
						c9.857,0,18.192-6.827,19.388-15.881l0.105-0.795l0.72-0.354c6.413-3.156,10.396-9.286,10.396-15.998
						c0-9.982-8.766-18.104-19.54-18.104c-0.117,0-0.231,0.004-0.346,0.007l-1.001,0.028l-0.456-0.715
						c-3.508-5.491-9.955-8.902-16.827-8.902c-10.775,0-19.541,8.122-19.541,18.104l0.031,1.31l-0.815,0.433
						c-6.074,3.227-9.848,9.25-9.848,15.719c0,9.982,8.766,18.104,19.54,18.104c0.591,0,1.189-0.027,1.829-0.083L204.531,165.094z" style="fill:#CCCCDE;"></path>
				</g>
				<path d="M230.857,118.949c-0.187,0-0.358,0.008-0.539,0.012
					c-2.94-4.606-7.854-7.992-13.646-9.154c4.586,1.15,8.449,3.94,10.822,7.655c0.154-0.004,2.263,3.639,2.419,3.639
					c9.971,0,14.608,5.374,14.608,14.665c0,6.459-2.42,10.573-8.148,13.396c-1.1,8.311-8.698,14.742-17.914,14.742
					c-5.607,0-10.619-2.381-13.934-6.117c-0.56,0.047-1.112,0.072-1.685,0.072c-9.975,0-17.806-4.729-17.806-14.017
					c0-6.26,2.8-9.342,7.896-13.058c-0.14-0.809-0.701-7.885,1.188-9.772c4.482-4.488,6.521-8.343,10.531-10.337
					c-7.879,2.833-13.471,9.952-13.471,18.292c0,0.14,0.006,0.274,0.012,0.418c-6.354,3.373-10.646,9.735-10.646,17.041
					c0,10.823,9.421,19.604,21.041,19.604c0.661,0,1.313-0.031,1.959-0.09c3.858,4.354,9.699,7.136,16.233,7.136
					c10.74,0,19.595-7.5,20.875-17.188c6.681-3.285,11.231-9.812,11.231-17.342C251.898,127.727,242.479,118.949,230.857,118.949z" style="opacity:0.1;fill:#6E6E96;enable-background:new    ;"></path>
				<g>
					<path d="M200.912,149.861c0,0,10.896,2.133,10.896,12.797c0,0,2.934,18.109-8.406,30.927h26.184
						c-0.26-0.358-22.87-30.565,2.294-48.521C216.531,153.836,200.912,149.861,200.912,149.861z" style="fill:#EDE3DA;"></path>
					<path d="M229.586,195.085h-29.514l2.207-2.494c10.744-12.145,8.077-29.519,8.049-29.692l-0.02-0.24
						c0-8.432-7.802-10.853-9.426-11.264c-0.225-0.05-0.341-0.08-0.341-0.08l0.658-2.925c0,0,0.132,0.024,0.369,0.084
						c0.876,0.19,3.955,0.786,8.226,0.786c5.348,0,13.39-0.954,21.341-5.498l1.615,2.523c-6.195,4.421-9.87,10.006-10.924,16.602
						c-2.247,14.071,7.8,28.223,8.952,29.79l1.758,2.389L229.586,195.085z M206.525,192.085h20.232
						c-3.271-5.141-9.861-17.346-7.893-29.672c0.735-4.605,2.589-8.76,5.534-12.422c-5.576,1.803-10.748,2.269-14.604,2.269
						c-0.344,0-0.681-0.004-1.009-0.011c2.417,2.149,4.489,5.412,4.522,10.291C213.557,164.203,215.557,179.631,206.525,192.085z" style="fill:#CCCCDE;"></path>
				</g>
				<g>
					<path d="M207.812,128.477" style="fill:#D57E58;"></path>
				</g>
				<path d="M225.348,149.833c0,0-16.531,21.345-3.824,43.752h8.063
					C229.585,193.585,212.809,170.139,225.348,149.833z" style="opacity:0.11;fill:#6E6E96;enable-background:new    ;"></path>
			</g>
			<g style="display:inline;">
				<g>
					<path d="M215.55,141.02c0-16.621-14.461-30.095-32.299-30.095c-0.278,0-0.554,0.012-0.828,0.019
						c-5.632-8.817-15.959-14.729-27.771-14.729c-17.838,0-32.301,13.475-32.301,30.096c0,0.215,0.014,0.428,0.018,0.646
						c-9.755,5.182-16.339,14.945-16.339,26.156c0,16.621,14.462,30.098,32.3,30.098c1.014,0,2.018-0.05,3.008-0.139
						c5.926,6.688,14.889,10.951,24.921,10.951c16.489,0,30.081-11.515,32.048-26.379C208.559,162.602,215.55,152.572,215.55,141.02
						z" style="fill:#D7F7E4;"></path>
					<path d="M166.259,195.523c-9.839,0-19.102-3.963-25.537-10.897c-0.812,0.057-1.614,0.085-2.392,0.085
						c-18.637,0-33.8-14.175-33.8-31.598c0-11.043,6.23-21.32,16.322-27.035c0.134-17.315,15.246-31.364,33.8-31.364
						c11.535,0,22.398,5.615,28.566,14.71c0.011,0,0.021,0,0.032,0c18.637,0,33.799,14.173,33.799,31.595
						c0,11.516-6.635,22.026-17.371,27.612C197.221,184.018,183.003,195.523,166.259,195.523z M141.958,181.511l0.503,0.566
						c5.881,6.639,14.556,10.446,23.798,10.446c15.531,0,28.669-10.78,30.561-25.075l0.105-0.796l0.72-0.354
						c10.119-4.978,16.405-14.664,16.405-25.279c0-15.767-13.816-28.595-30.799-28.595c-0.179,0-0.355,0.006-0.532,0.011
						l-1.104,0.028l-0.455-0.713c-5.531-8.658-15.688-14.037-26.507-14.037c-16.983,0-30.801,12.828-30.801,28.596
						c0,0.105,0.004,0.209,0.008,0.314l0.026,1.224l-0.812,0.433c-9.587,5.092-15.542,14.606-15.542,24.831
						c0,15.769,13.817,28.598,30.8,28.598c0.926,0,1.893-0.045,2.874-0.133L141.958,181.511z" style="fill:#CCCCDE;"></path>
				</g>
				<path d="M182.708,109.841c-0.276,0-0.552,0.012-0.827,0.019
					c-4.516-7.071-12.051-12.269-20.949-14.052c7.041,1.766,12.971,6.049,16.614,11.751c0.237-0.006,3.474,5.586,3.713,5.586
					c15.308,0,22.429,8.248,22.429,22.511c0,9.914-3.715,16.231-12.513,20.562c-1.687,12.754-13.353,22.635-27.5,22.635
					c-8.61,0-16.302-3.655-21.387-9.396c-0.851,0.071-1.71,0.114-2.58,0.114c-15.31,0-27.332-7.254-27.332-21.516
					c0-9.604,4.298-14.337,12.12-20.039c-0.209-1.235-1.077-12.104,1.82-15.002c6.89-6.89,10.011-12.808,16.174-15.868
					c-12.096,4.349-20.679,15.277-20.679,28.08c0,0.215,0.011,0.428,0.017,0.646c-9.756,5.178-16.34,14.947-16.34,26.156
					c0,16.621,14.461,30.097,32.3,30.097c1.017,0,2.017-0.049,3.008-0.136c5.925,6.688,14.89,10.949,24.922,10.949
					c16.487,0,30.078-11.518,32.046-26.379c10.254-5.043,17.244-15.07,17.244-26.623
					C215.008,123.314,200.547,109.841,182.708,109.841z" style="opacity:0.1;fill:#6E6E96;enable-background:new    ;"></path>
				<g>
					<path d="M136.736,157.296c0,0,16.727,3.272,16.727,19.644c0,0,4.504,27.809-12.904,47.479h40.195
						c-0.398-0.556-35.107-46.922,3.521-74.483C160.716,163.396,136.736,157.296,136.736,157.296z" style="fill:#EDE3DA;"></path>
					<path d="M180.754,225.919h-43.525l2.207-2.494c16.743-18.92,12.591-45.975,12.547-46.245l-0.02-0.24
						c0-13.557-12.515-17.422-15.086-18.071c-0.336-0.074-0.511-0.118-0.511-0.118l0.658-2.926c0,0,0.192,0.037,0.538,0.123
						c1.35,0.295,6.158,1.228,12.813,1.228c8.306,0,20.799-1.481,33.155-8.542l1.615,2.523c-9.681,6.907-15.431,15.647-17.09,25.977
						c-3.512,21.865,12.087,43.917,13.878,46.359l1.749,2.387L180.754,225.919z M143.748,222.919h34.146
						c-4.573-6.926-15.963-26.566-12.799-46.262c1.264-7.868,4.702-14.865,10.257-20.899c-9.522,3.547-18.479,4.417-24.976,4.417
						c-1.404,0-2.727-0.039-3.958-0.104c4.314,3.1,8.506,8.287,8.545,16.75C155.3,179.028,158.653,203.692,143.748,222.919z" style="fill:#CCCCDE;"></path>
				</g>
				<g>
					<path d="M147.329,124.465" style="fill:#D57E58;"></path>
				</g>
				<path d="M174.249,157.251c0,0-25.378,32.767-5.873,67.164h12.378
					C180.754,224.415,155,188.423,174.249,157.251z" style="opacity:0.11;fill:#6E6E96;enable-background:new    ;"></path>
			</g>
			<g style="display:inline;">
				<g>
					<path d="M143.713,142.131c0-13.645-11.873-24.707-26.517-24.707c-0.229,0-0.454,0.01-0.68,0.016
						c-4.624-7.239-13.102-12.092-22.8-12.092c-14.644,0-26.518,11.063-26.518,24.707c0,0.178,0.012,0.354,0.015,0.529
						c-8.01,4.251-13.414,12.271-13.414,21.477c0,13.646,11.872,24.707,26.518,24.707c0.832,0,1.655-0.041,2.469-0.104
						c4.864,5.482,12.224,8.982,20.46,8.982c13.537,0,24.695-9.45,26.309-21.65C137.973,159.85,143.713,151.617,143.713,142.131z" style="fill:#D7F7E4;"></path>
					<path d="M103.246,187.146c-8.109,0-15.748-3.248-21.08-8.937c-0.657,0.039-1.267,0.058-1.849,0.058
						c-15.449,0-28.018-11.757-28.018-26.207c0-9.119,5.111-17.604,13.402-22.355c0.2-14.29,12.69-25.857,28.015-25.857
						c9.509,0,18.468,4.606,23.595,12.076c15.396,0.059,27.902,11.793,27.902,26.207c0,9.51-5.454,18.196-14.288,22.851
						C128.827,177.673,117.076,187.146,103.246,187.146z M83.414,175.111l0.494,0.558c4.78,5.388,11.828,8.478,19.338,8.478
						c12.616,0,23.287-8.747,24.822-20.347l0.105-0.795l0.719-0.354c8.217-4.047,13.321-11.91,13.321-20.52
						c0-12.797-11.223-23.207-25.017-23.207c-0.145,0-0.287,0.005-0.429,0.009l-1.059,0.028l-0.456-0.714
						c-4.492-7.031-12.744-11.399-21.536-11.399c-13.795,0-25.018,10.411-25.018,23.207l0.03,1.423l-0.812,0.432
						c-7.783,4.13-12.617,11.852-12.617,20.151c0,12.797,11.223,23.207,25.018,23.207c0.716,0,1.486-0.032,2.354-0.099
						L83.414,175.111z" style="fill:#CCCCDE;"></path>
				</g>
				<path d="M116.75,116.535c-0.228,0-0.452,0.009-0.679,0.015
					c-3.707-5.805-9.894-10.072-17.199-11.537c5.78,1.45,10.648,4.966,13.641,9.647c0.194-0.005,2.851,4.586,3.048,4.586
					c12.567,0,18.414,6.771,18.414,18.48c0,8.139-3.05,13.325-10.271,16.881c-1.384,10.472-10.961,18.584-22.576,18.584
					c-7.069,0-13.384-3.004-17.559-7.715c-0.698,0.061-1.404,0.096-2.118,0.096c-12.568,0-22.438-5.957-22.438-17.664
					c0-7.885,3.528-11.771,9.949-16.452c-0.171-1.015-0.884-9.938,1.496-12.316c5.655-5.657,8.218-10.515,13.277-13.028
					c-9.93,3.571-16.978,12.542-16.978,23.053c0,0.177,0.01,0.353,0.015,0.528c-8.011,4.25-13.415,12.271-13.415,21.477
					c0,13.645,11.873,24.706,26.518,24.706c0.834,0,1.655-0.04,2.469-0.108c4.864,5.488,12.224,8.988,20.461,8.988
					c13.536,0,24.693-9.451,26.31-21.656c8.418-4.141,14.158-12.371,14.158-21.854C143.268,127.598,131.395,116.535,116.75,116.535z" style="opacity:0.1;fill:#6E6E96;enable-background:new    ;"></path>
				<g>
					<path d="M79.009,155.494c0,0,13.731,2.688,13.731,16.128c0,0,3.697,22.823-10.595,38.978h33
						c-0.328-0.455-28.824-38.521,2.89-61.151C98.695,160.502,79.009,155.494,79.009,155.494z" style="fill:#EDE3DA;"></path>
					<path d="M115.145,212.1h-36.33l2.207-2.494c13.663-15.443,10.274-37.522,10.238-37.743l-0.02-0.24
						c0-10.926-10.095-14.049-12.179-14.576c-0.278-0.062-0.422-0.098-0.422-0.098l0.658-2.926c0,0,0.161,0.03,0.451,0.103
						c1.105,0.241,5.025,1.001,10.455,1.001c6.786,0,16.995-1.211,27.088-6.98l1.615,2.523
						c-7.892,5.632-12.577,12.753-13.924,21.167c-2.861,17.866,9.887,35.854,11.351,37.847l1.753,2.388L115.145,212.1z
						 M85.307,209.1h26.991c-3.932-6.047-12.823-21.844-10.278-37.738c0.989-6.177,3.596-11.703,7.777-16.517
						c-7.478,2.623-14.465,3.281-19.595,3.281c-0.832,0-1.63-0.017-2.389-0.046c3.334,2.627,6.39,6.832,6.426,13.424
						C94.533,173.44,97.185,193.348,85.307,209.1z" style="fill:#CCCCDE;"></path>
				</g>
				<g>
					<path d="M87.705,128.541" style="fill:#D57E58;"></path>
				</g>
				<path d="M109.805,155.458c0,0-20.835,26.899-4.821,55.142h10.162
					C115.146,210.6,94.002,181.049,109.805,155.458z" style="opacity:0.11;fill:#6E6E96;enable-background:new    ;"></path>
			</g>
			<g style="display:inline;">
				<g>
					<path d="M250.936,166.268c0-12.345-10.74-22.35-23.986-22.35c-0.201,0-0.405,0.008-0.609,0.014
						c-4.188-6.549-11.854-10.938-20.625-10.938c-13.248,0-23.982,10.007-23.982,22.35c0,0.161,0.012,0.318,0.014,0.479
						c-7.244,3.852-12.135,11.104-12.135,19.434c0,12.351,10.734,22.354,23.982,22.354c0.754,0,1.497-0.039,2.229-0.104
						c4.399,4.972,11.063,8.138,18.513,8.138c12.245,0,22.339-8.556,23.799-19.596C245.742,182.295,250.936,174.85,250.936,166.268z" style="fill:#D7F7E4;"></path>
					<path d="M214.336,207.145c-7.356,0-14.283-2.938-19.127-8.086c-0.556,0.035-1.089,0.053-1.615,0.053
						c-14.051,0-25.482-10.701-25.482-23.854c0-8.271,4.622-15.974,12.125-20.311c0.228-12.968,11.57-23.452,25.479-23.452
						c8.619,0,16.745,4.166,21.42,10.925c13.968,0.093,25.301,10.756,25.301,23.849c0,8.63-4.935,16.518-12.932,20.766
						C237.563,198.554,226.892,207.145,214.336,207.145z M196.444,195.945l0.502,0.567c4.292,4.851,10.63,7.632,17.39,7.632
						c11.341,0,20.933-7.864,22.312-18.292l0.105-0.794l0.718-0.354c7.38-3.643,11.965-10.706,11.965-18.437
						c0-11.496-10.087-20.85-22.486-20.85c-0.146,0-0.292,0.005-0.439,0.009l-0.976,0.028l-0.458-0.716
						c-4.041-6.319-11.46-10.245-19.361-10.245c-12.396,0-22.482,9.354-22.482,20.85l0.024,1.375l-0.807,0.429
						c-6.994,3.719-11.339,10.658-11.339,18.109c0,11.499,10.086,20.854,22.482,20.854c0.668,0,1.354-0.032,2.096-0.099
						L196.444,195.945z" style="fill:#CCCCDE;"></path>
				</g>
				<path d="M226.544,143.111c-0.206,0-0.409,0.011-0.614,0.016
					c-3.354-5.251-8.949-9.111-15.558-10.438c5.229,1.312,9.633,4.492,12.339,8.728c0.176-0.004,2.579,4.149,2.757,4.149
					c11.368,0,16.655,6.123,16.655,16.718c0,7.362-2.757,12.055-9.291,15.271c-1.252,9.473-9.915,16.813-20.423,16.813
					c-6.396,0-12.106-2.72-15.884-6.979c-0.631,0.055-1.271,0.086-1.916,0.086c-11.368,0-20.299-5.389-20.299-15.979
					c0-7.135,3.188-10.646,9.002-14.885c-0.156-0.918-0.807-8.987,1.353-11.142c5.116-5.116,7.435-9.516,12.011-11.784
					c-8.98,3.229-15.357,11.346-15.357,20.854c0,0.158,0.016,0.316,0.02,0.479c-7.246,3.847-12.139,11.104-12.139,19.429
					c0,12.346,10.736,22.353,23.986,22.353c0.754,0,1.496-0.031,2.231-0.103c4.401,4.969,11.06,8.135,18.509,8.135
					c12.245,0,22.338-8.556,23.799-19.595c7.615-3.74,12.813-11.188,12.813-19.771C250.531,153.118,239.793,143.111,226.544,143.111
					z" style="opacity:0.1;fill:#6E6E96;enable-background:new    ;"></path>
				<g>
					<path d="M192.402,178.355c0,0,12.422,2.431,12.422,14.588c0,0,3.345,20.646-9.584,35.259h29.853
						c-0.296-0.41-26.073-34.847,2.615-55.317C210.212,182.887,192.402,178.355,192.402,178.355z" style="fill:#EDE3DA;"></path>
					<path d="M225.093,229.702H191.91l2.207-2.494c12.288-13.89,9.258-33.826,9.227-34.026l-0.02-0.238
						c0-9.771-9.034-12.57-10.906-13.045c-0.254-0.056-0.386-0.089-0.386-0.089l0.658-2.926c0,0,0.148,0.028,0.414,0.095
						c0.999,0.218,4.531,0.9,9.425,0.9c6.122,0,15.33-1.092,24.435-6.296l1.615,2.522c-7.106,5.071-11.325,11.482-12.537,19.054
						c-2.579,16.108,8.921,32.332,10.241,34.129l1.754,2.389L225.093,229.702z M198.386,226.702h23.868
						c-3.634-5.641-11.454-19.779-9.175-34.017c0.872-5.444,3.125-10.332,6.725-14.611c-6.594,2.236-12.737,2.805-17.274,2.805
						c-0.6,0-1.179-0.009-1.737-0.026c2.908,2.41,5.497,6.182,5.532,11.973C206.597,194.638,208.947,212.473,198.386,226.702z" style="fill:#CCCCDE;"></path>
				</g>
				<g>
					<path d="M200.27,153.975" style="fill:#D57E58;"></path>
				</g>
				<path d="M220.262,178.322c0,0-18.847,24.334-4.361,49.88h9.192
					C225.093,228.202,205.966,201.473,220.262,178.322z" style="opacity:0.11;fill:#6E6E96;enable-background:new    ;"></path>
			</g>
			<g style="display:inline;">
				<g>
					<path d="M86.67,164.416c0-13.111-11.408-23.738-25.479-23.738c-0.22,0-0.436,0.008-0.653,0.014
						c-4.443-6.954-12.589-11.611-21.907-11.611c-14.071,0-25.48,10.629-25.48,23.734c0,0.17,0.011,0.336,0.015,0.507
						c-7.695,4.086-12.889,11.795-12.889,20.643c0,13.104,11.407,23.734,25.479,23.734c0.8,0,1.59-0.041,2.372-0.104
						c4.674,5.271,11.745,8.639,19.659,8.639c13.007,0,23.729-9.082,25.279-20.81C81.155,181.439,86.67,173.531,86.67,164.416z" style="fill:#D7F7E4;"></path>
					<path d="M47.787,207.732c-7.796,0-15.142-3.122-20.277-8.591c-0.619,0.038-1.198,0.057-1.754,0.057
						c-14.876,0-26.979-11.32-26.979-25.234c0-8.774,4.911-16.939,12.877-21.521c0.213-13.743,12.233-24.863,26.977-24.863
						c9.147,0,17.765,4.423,22.703,11.598c14.81,0.073,26.836,11.367,26.836,25.238c0,9.149-5.242,17.508-13.734,21.992
						C72.404,198.621,61.096,207.732,47.787,207.732z M28.753,196.038l0.497,0.561c4.583,5.169,11.339,8.134,18.537,8.134
						c12.094,0,22.322-8.386,23.792-19.506l0.105-0.795l0.719-0.354c7.875-3.878,12.767-11.412,12.767-19.661
						c0-12.263-10.757-22.238-23.979-22.238c-0.162,0-0.321,0.005-0.48,0.01l-0.98,0.026l-0.457-0.715
						c-4.303-6.735-12.213-10.919-20.643-10.919c-13.223,0-23.98,9.975-23.98,22.234l0.036,1.397l-0.817,0.435
						c-7.459,3.96-12.093,11.362-12.093,19.317c0,12.26,10.757,22.234,23.979,22.234c0.689,0,1.426-0.032,2.25-0.1L28.753,196.038z" style="fill:#CCCCDE;"></path>
				</g>
				<path d="M60.763,139.822c-0.219,0-0.435,0.01-0.652,0.015
					c-3.562-5.577-9.506-9.678-16.525-11.085c5.553,1.393,10.231,4.771,13.106,9.27c0.186-0.004,2.739,4.406,2.928,4.406
					c12.076,0,17.692,6.506,17.692,17.758c0,7.82-2.929,12.806-9.87,16.222c-1.33,10.063-10.531,17.854-21.693,17.854
					c-6.792,0-12.859-2.886-16.871-7.412c-0.67,0.058-1.348,0.092-2.035,0.092c-12.076,0-21.561-5.723-21.561-16.975
					c0-7.574,3.391-11.308,9.561-15.807c-0.165-0.975-0.85-9.549,1.437-11.836c5.435-5.434,7.896-10.103,12.758-12.516
					c-9.541,3.43-16.313,12.051-16.313,22.146c0,0.17,0.01,0.338,0.014,0.508c-7.696,4.084-12.889,11.792-12.889,20.64
					c0,13.105,11.407,23.734,25.479,23.734c0.801,0,1.591-0.039,2.373-0.104c4.674,5.271,11.745,8.639,19.659,8.639
					c13.006,0,23.728-9.081,25.278-20.809c8.089-3.979,13.604-11.895,13.604-21.002C86.243,150.449,74.835,139.822,60.763,139.822z" style="opacity:0.1;fill:#6E6E96;enable-background:new    ;"></path>
				<g>
					<path d="M24.5,177.256c0,0,13.193,2.583,13.193,15.496c0,0,3.553,21.932-10.179,37.45h31.707
						c-0.314-0.437-27.694-37.015,2.777-58.759C43.415,182.066,24.5,177.256,24.5,177.256z" style="fill:#EDE3DA;"></path>
					<path d="M59.221,231.702H24.184l2.207-2.494c13.083-14.784,9.855-36.005,9.821-36.217l-0.019-0.239
						c0-10.454-9.661-13.443-11.658-13.948c-0.266-0.059-0.405-0.094-0.405-0.094l0.658-2.926c0,0,0.155,0.029,0.434,0.099
						c1.061,0.231,4.819,0.96,10.029,0.96c6.514,0,16.314-1.163,26.002-6.701l1.616,2.522c-7.567,5.4-12.06,12.228-13.353,20.293
						c-2.748,17.135,9.489,34.414,10.893,36.328l1.751,2.388L59.221,231.702z M30.67,228.702h25.708
						c-3.81-5.884-12.263-21.012-9.824-36.221c0.941-5.871,3.401-11.133,7.34-15.725c-7.116,2.464-13.756,3.086-18.643,3.086
						c-0.734,0-1.44-0.014-2.115-0.038c3.159,2.54,6.021,6.566,6.057,12.829C39.478,194.521,42.007,213.578,30.67,228.702z" style="fill:#CCCCDE;"></path>
				</g>
				<g>
					<path d="M32.855,151.357" style="fill:#D57E58;"></path>
				</g>
				<path d="M54.09,177.221c0,0-20.02,25.848-4.633,52.981h9.764
					C59.221,230.202,38.906,201.811,54.09,177.221z" style="opacity:0.11;fill:#6E6E96;enable-background:new    ;"></path>
			</g>
		</g>
		<g style="display:none;" id="Layer_3_2_">
			<g style="display:inline;">
				<g>
					<path d="M83.412,140.542c0-11.563-10.059-20.936-22.467-20.936c-0.194,0-0.385,0.009-0.576,0.014
						c-3.917-6.134-11.102-10.245-19.318-10.245c-12.409,0-22.469,9.372-22.469,20.936c0,0.149,0.009,0.297,0.012,0.446
						c-6.785,3.603-11.365,10.399-11.365,18.198c0,11.562,10.059,20.934,22.468,20.934c0.705,0,1.403-0.033,2.092-0.094
						c4.122,4.65,10.358,7.617,17.335,7.617c11.471,0,20.925-8.01,22.293-18.35C78.549,155.555,83.412,148.579,83.412,140.542z" style="fill:#D7F7E4;"></path>
					<path d="M49.124,178.912c-6.895,0-13.393-2.749-17.95-7.568c-0.499,0.03-0.993,0.045-1.477,0.045
						c-13.216,0-23.968-10.063-23.968-22.434c0-7.768,4.328-14.997,11.357-19.076c0.247-12.173,10.902-22.004,23.964-22.004
						c8.091,0,15.716,3.9,20.112,10.232c13.116,0.11,23.749,10.131,23.749,22.435c0,8.109-4.626,15.515-12.127,19.506
						C70.938,170.857,60.914,178.912,49.124,178.912z M32.411,168.234l0.501,0.565c4.006,4.52,9.916,7.112,16.212,7.112
						c10.575,0,19.52-7.328,20.806-17.046l0.105-0.796l0.72-0.354c6.882-3.385,11.157-9.966,11.157-17.175
						c0-10.717-9.406-19.436-20.967-19.436c-0.115,0-0.229,0.004-0.344,0.008l-1.041,0.027l-0.456-0.714
						c-3.763-5.892-10.68-9.552-18.054-9.552c-11.562,0-20.969,8.719-20.969,19.436l0.029,1.339l-0.814,0.433
						c-6.519,3.461-10.568,9.927-10.568,16.873c0,10.716,9.406,19.434,20.968,19.434c0.637,0,1.296-0.029,1.961-0.088
						L32.411,168.234z" style="fill:#CCCCDE;"></path>
				</g>
				<path d="M60.566,118.853c-0.193,0-0.384,0.009-0.575,0.014
					c-3.141-4.918-8.383-8.534-14.573-9.775c4.898,1.229,9.023,4.208,11.558,8.175c0.165-0.004,2.416,3.886,2.583,3.886
					c10.648,0,15.601,5.738,15.601,15.66c0,6.896-2.583,11.291-8.704,14.302c-1.173,8.875-9.287,15.748-19.129,15.748
					c-5.99,0-11.34-2.544-14.877-6.531c-0.591,0.05-1.189,0.076-1.794,0.076c-10.649,0-19.013-5.048-19.013-14.968
					c0-6.683,2.99-9.973,8.432-13.938c-0.145-0.855-0.75-8.421,1.267-10.437c4.792-4.793,6.963-8.909,11.25-11.038
					c-8.414,3.025-14.385,10.627-14.385,19.536c0,0.147,0.009,0.3,0.012,0.447c-6.787,3.604-11.366,10.396-11.366,18.195
					c0,11.562,10.059,20.938,22.468,20.938c0.707,0,1.403-0.035,2.093-0.098c4.121,4.648,10.356,7.617,17.336,7.617
					c11.469,0,20.924-8.012,22.291-18.354c7.133-3.507,11.997-10.479,11.997-18.521C83.035,128.227,72.976,118.853,60.566,118.853z" style="opacity:0.1;fill:#6E6E96;enable-background:new    ;"></path>
				<g>
					<path d="M28.588,151.865c0,0,11.635,2.277,11.635,13.662c0,0,3.132,19.342-8.976,33.026h27.96
						c-0.277-0.389-24.422-32.646,2.449-51.815C45.268,156.107,28.588,151.865,28.588,151.865z" style="fill:#EDE3DA;"></path>
					<path d="M59.207,200.054h-31.29l2.207-2.494c11.477-12.972,8.648-31.607,8.619-31.794l-0.019-0.238
						c0-9.079-8.398-11.683-10.144-12.124c-0.238-0.053-0.362-0.084-0.362-0.084l0.658-2.926c0,0,0.139,0.026,0.39,0.089
						c0.935,0.203,4.231,0.841,8.802,0.841c5.724,0,14.333-1.021,22.844-5.887l1.616,2.522c-6.626,4.728-10.563,10.701-11.7,17.755
						c-2.419,15.007,8.333,30.235,9.566,31.922l1.745,2.386L59.207,200.054z M34.382,197.054h21.998
						c-3.445-5.398-10.645-18.595-8.514-31.816c0.805-4.995,2.848-9.491,6.098-13.44c-6.069,2.011-11.71,2.526-15.896,2.526
						c-0.463,0-0.915-0.006-1.352-0.018c2.655,2.276,4.974,5.786,5.007,11.104C41.983,167.146,44.152,183.741,34.382,197.054z" style="fill:#CCCCDE;"></path>
				</g>
				<g>
					<path d="M35.955,129.025" style="fill:#D57E58;"></path>
				</g>
				<path d="M54.682,151.833c0,0-17.654,22.793-4.085,46.722h8.611
					C59.207,198.555,41.292,173.518,54.682,151.833z" style="opacity:0.11;fill:#6E6E96;enable-background:new    ;"></path>
			</g>
			<g style="display:inline;">
				<g>
					<path d="M253.252,139.26c0-10.828-9.42-19.604-21.04-19.604c-0.183,0-0.36,0.008-0.539,0.013
						c-3.669-5.744-10.396-9.595-18.091-9.595c-11.62,0-21.041,8.777-21.041,19.604c0,0.141,0.009,0.279,0.012,0.418
						c-6.354,3.375-10.644,9.739-10.644,17.043c0,10.825,9.421,19.604,21.04,19.604c0.66,0,1.312-0.032,1.96-0.089
						c3.858,4.354,9.698,7.134,16.233,7.134c10.736,0,19.596-7.499,20.875-17.185C248.697,153.316,253.252,146.786,253.252,139.26z" style="fill:#D7F7E4;"></path>
					<path d="M221.143,175.288c-6.467,0-12.563-2.573-16.848-7.085c-0.458,0.027-0.902,0.04-1.346,0.04
						c-12.429,0-22.54-9.468-22.54-21.104c0-7.289,4.053-14.077,10.637-17.92c0.262-11.426,10.271-20.646,22.536-20.646
						c7.59,0,14.745,3.652,18.885,9.583c12.312,0.128,22.285,9.545,22.285,21.103c0,7.612-4.335,14.567-11.367,18.328
						C241.629,167.733,232.214,175.288,221.143,175.288z M205.531,165.094l0.501,0.565c3.733,4.213,9.241,6.629,15.11,6.629
						c9.857,0,18.192-6.827,19.388-15.881l0.105-0.795l0.72-0.354c6.413-3.156,10.396-9.286,10.396-15.998
						c0-9.982-8.766-18.104-19.54-18.104c-0.117,0-0.231,0.004-0.346,0.007l-1.001,0.028l-0.456-0.715
						c-3.508-5.491-9.955-8.902-16.827-8.902c-10.775,0-19.541,8.122-19.541,18.104l0.031,1.31l-0.815,0.433
						c-6.074,3.227-9.848,9.25-9.848,15.719c0,9.982,8.766,18.104,19.54,18.104c0.591,0,1.189-0.027,1.829-0.083L205.531,165.094z" style="fill:#CCCCDE;"></path>
				</g>
				<path d="M231.857,118.949c-0.186,0-0.358,0.008-0.539,0.012
					c-2.94-4.606-7.854-7.992-13.646-9.154c4.586,1.15,8.449,3.94,10.822,7.655c0.154-0.004,2.263,3.639,2.419,3.639
					c9.971,0,14.608,5.374,14.608,14.665c0,6.459-2.42,10.573-8.148,13.396c-1.1,8.311-8.698,14.742-17.914,14.742
					c-5.607,0-10.619-2.381-13.934-6.117c-0.559,0.047-1.112,0.072-1.684,0.072c-9.975,0-17.806-4.729-17.806-14.017
					c0-6.259,2.8-9.341,7.896-13.057c-0.139-0.808-0.701-7.885,1.188-9.772c4.483-4.488,6.521-8.343,10.532-10.337
					c-7.879,2.833-13.471,9.952-13.471,18.292c0,0.139,0.006,0.274,0.012,0.418c-6.354,3.373-10.646,9.735-10.646,17.041
					c0,10.823,9.421,19.604,21.041,19.604c0.661,0,1.313-0.032,1.959-0.091c3.859,4.355,9.699,7.136,16.234,7.136
					c10.739,0,19.594-7.5,20.875-17.188c6.68-3.285,11.231-9.812,11.231-17.342C252.898,127.727,243.479,118.949,231.857,118.949z" style="opacity:0.1;fill:#6E6E96;enable-background:new    ;"></path>
				<g>
					<path d="M201.912,149.861c0,0,10.896,2.133,10.896,12.797c0,0,2.934,18.109-8.406,30.927h26.184
						c-0.26-0.358-22.87-30.565,2.294-48.521C217.531,153.836,201.912,149.861,201.912,149.861z" style="fill:#EDE3DA;"></path>
					<path d="M230.586,195.085h-29.514l2.207-2.494c10.744-12.145,8.077-29.519,8.049-29.692l-0.02-0.24
						c0-8.432-7.802-10.853-9.426-11.264c-0.225-0.05-0.341-0.08-0.341-0.08l0.658-2.925c0,0,0.132,0.024,0.369,0.084
						c0.876,0.19,3.955,0.786,8.226,0.786c5.348,0,13.39-0.954,21.341-5.498l1.615,2.523c-6.195,4.421-9.87,10.006-10.924,16.602
						c-2.247,14.071,7.8,28.223,8.952,29.79l1.758,2.389L230.586,195.085z M207.525,192.085h20.232
						c-3.271-5.141-9.861-17.346-7.893-29.672c0.735-4.605,2.589-8.76,5.534-12.422c-5.576,1.803-10.748,2.269-14.604,2.269
						c-0.344,0-0.681-0.004-1.009-0.011c2.417,2.149,4.489,5.412,4.522,10.291C214.557,164.203,216.557,179.631,207.525,192.085z" style="fill:#CCCCDE;"></path>
				</g>
				<g>
					<path d="M208.812,128.477" style="fill:#D57E58;"></path>
				</g>
				<path d="M226.348,149.833c0,0-16.531,21.345-3.824,43.752h8.063
					C230.585,193.585,213.809,170.139,226.348,149.833z" style="opacity:0.11;fill:#6E6E96;enable-background:new    ;"></path>
			</g>
			<g style="display:inline;">
				<g>
					<path d="M216.55,141.02c0-16.621-14.461-30.095-32.299-30.095c-0.278,0-0.554,0.012-0.828,0.019
						c-5.632-8.817-15.959-14.729-27.771-14.729c-17.838,0-32.301,13.475-32.301,30.096c0,0.215,0.014,0.428,0.018,0.646
						c-9.755,5.182-16.339,14.945-16.339,26.156c0,16.621,14.462,30.098,32.3,30.098c1.014,0,2.018-0.05,3.008-0.139
						c5.926,6.688,14.889,10.951,24.921,10.951c16.489,0,30.081-11.515,32.048-26.379C209.559,162.602,216.55,152.572,216.55,141.02
						z" style="fill:#D7F7E4;"></path>
					<path d="M167.259,195.523c-9.839,0-19.102-3.963-25.537-10.897c-0.812,0.057-1.614,0.085-2.392,0.085
						c-18.637,0-33.8-14.175-33.8-31.598c0-11.043,6.23-21.32,16.322-27.035c0.134-17.315,15.246-31.364,33.8-31.364
						c11.535,0,22.398,5.615,28.566,14.71c0.011,0,0.021,0,0.032,0c18.637,0,33.799,14.173,33.799,31.595
						c0,11.516-6.635,22.026-17.371,27.612C198.221,184.018,184.003,195.523,167.259,195.523z M142.958,181.511l0.503,0.566
						c5.881,6.639,14.556,10.446,23.798,10.446c15.531,0,28.669-10.78,30.561-25.075l0.105-0.796l0.72-0.354
						c10.119-4.978,16.405-14.664,16.405-25.279c0-15.767-13.816-28.595-30.799-28.595c-0.179,0-0.355,0.006-0.532,0.011
						l-1.104,0.028l-0.455-0.713c-5.531-8.658-15.688-14.037-26.507-14.037c-16.983,0-30.801,12.828-30.801,28.596
						c0,0.105,0.004,0.209,0.008,0.314l0.026,1.224l-0.812,0.433c-9.587,5.092-15.542,14.606-15.542,24.831
						c0,15.769,13.817,28.598,30.8,28.598c0.926,0,1.893-0.045,2.874-0.133L142.958,181.511z" style="fill:#CCCCDE;"></path>
				</g>
				<path d="M183.708,109.841c-0.276,0-0.552,0.012-0.827,0.019
					c-4.516-7.071-12.051-12.269-20.949-14.052c7.041,1.766,12.971,6.049,16.614,11.751c0.237-0.006,3.474,5.586,3.713,5.586
					c15.308,0,22.429,8.248,22.429,22.511c0,9.914-3.715,16.231-12.513,20.562c-1.687,12.754-13.353,22.635-27.5,22.635
					c-8.61,0-16.302-3.655-21.387-9.396c-0.851,0.071-1.71,0.114-2.58,0.114c-15.31,0-27.332-7.254-27.332-21.516
					c0-9.604,4.298-14.337,12.12-20.039c-0.209-1.235-1.077-12.104,1.82-15.002c6.89-6.89,10.011-12.808,16.174-15.868
					c-12.096,4.349-20.679,15.277-20.679,28.08c0,0.215,0.011,0.428,0.017,0.646c-9.756,5.178-16.34,14.947-16.34,26.156
					c0,16.621,14.461,30.097,32.3,30.097c1.017,0,2.017-0.049,3.008-0.136c5.925,6.688,14.89,10.949,24.922,10.949
					c16.487,0,30.078-11.517,32.046-26.379c10.254-5.043,17.244-15.07,17.244-26.623
					C216.008,123.314,201.547,109.841,183.708,109.841z" style="opacity:0.1;fill:#6E6E96;enable-background:new    ;"></path>
				<g>
					<path d="M137.736,157.296c0,0,16.727,3.272,16.727,19.644c0,0,4.504,27.808-12.904,47.479h40.195
						c-0.398-0.556-35.107-46.922,3.521-74.483C161.716,163.396,137.736,157.296,137.736,157.296z" style="fill:#EDE3DA;"></path>
					<path d="M181.754,225.919h-43.525l2.207-2.494c16.743-18.921,12.591-45.975,12.547-46.245l-0.02-0.24
						c0-13.557-12.515-17.422-15.086-18.071c-0.336-0.074-0.511-0.118-0.511-0.118l0.658-2.926c0,0,0.192,0.037,0.538,0.123
						c1.35,0.295,6.158,1.228,12.813,1.228c8.306,0,20.799-1.481,33.155-8.542l1.615,2.523c-9.681,6.907-15.431,15.647-17.09,25.977
						c-3.512,21.865,12.087,43.917,13.878,46.359l1.749,2.387L181.754,225.919z M144.748,222.919h34.146
						c-4.573-6.926-15.963-26.566-12.799-46.262c1.264-7.868,4.702-14.865,10.257-20.899c-9.522,3.547-18.479,4.417-24.976,4.417
						c-1.404,0-2.727-0.039-3.958-0.104c4.314,3.1,8.506,8.287,8.545,16.75C156.3,179.028,159.652,203.692,144.748,222.919z" style="fill:#CCCCDE;"></path>
				</g>
				<g>
					<path d="M148.329,124.465" style="fill:#D57E58;"></path>
				</g>
				<path d="M175.249,157.251c0,0-25.378,32.767-5.873,67.164h12.378
					C181.754,224.415,156,188.423,175.249,157.251z" style="opacity:0.11;fill:#6E6E96;enable-background:new    ;"></path>
			</g>
			<g style="display:inline;">
				<g>
					<path d="M144.713,142.131c0-13.645-11.873-24.707-26.517-24.707c-0.229,0-0.454,0.01-0.68,0.016
						c-4.624-7.239-13.102-12.092-22.8-12.092c-14.644,0-26.518,11.063-26.518,24.707c0,0.178,0.012,0.354,0.015,0.529
						c-8.01,4.251-13.414,12.271-13.414,21.477c0,13.646,11.872,24.707,26.518,24.707c0.832,0,1.655-0.041,2.469-0.104
						c4.864,5.483,12.224,8.983,20.46,8.983c13.537,0,24.695-9.45,26.309-21.651C138.973,159.85,144.713,151.617,144.713,142.131z" style="fill:#D7F7E4;"></path>
					<path d="M104.246,187.146c-8.109,0-15.748-3.248-21.08-8.938c-0.654,0.039-1.265,0.059-1.85,0.059
						c-15.449,0-28.018-11.757-28.018-26.207c0-9.119,5.111-17.604,13.402-22.355c0.2-14.29,12.69-25.857,28.015-25.857
						c9.509,0,18.468,4.606,23.595,12.076c15.396,0.059,27.902,11.793,27.902,26.207c0,9.51-5.454,18.196-14.288,22.85
						C129.828,177.673,118.077,187.146,104.246,187.146z M84.413,175.109l0.495,0.559c4.78,5.388,11.828,8.479,19.338,8.479
						c12.617,0,23.288-8.748,24.821-20.348l0.105-0.795l0.719-0.354c8.217-4.046,13.321-11.908,13.321-20.519
						c0-12.797-11.223-23.207-25.017-23.207c-0.145,0-0.287,0.005-0.429,0.009l-1.059,0.028l-0.456-0.714
						c-4.492-7.031-12.744-11.399-21.536-11.399c-13.795,0-25.018,10.411-25.018,23.207l0.03,1.423l-0.812,0.432
						c-7.783,4.13-12.617,11.852-12.617,20.151c0,12.797,11.223,23.207,25.018,23.207c0.721,0,1.49-0.032,2.353-0.1L84.413,175.109z" style="fill:#CCCCDE;"></path>
				</g>
				<path d="M117.75,116.535c-0.228,0-0.452,0.009-0.679,0.015
					c-3.707-5.805-9.894-10.072-17.199-11.537c5.78,1.45,10.648,4.966,13.641,9.647c0.194-0.005,2.851,4.586,3.048,4.586
					c12.567,0,18.414,6.771,18.414,18.48c0,8.139-3.05,13.325-10.271,16.881c-1.384,10.472-10.961,18.584-22.576,18.584
					c-7.069,0-13.384-3.004-17.559-7.715c-0.698,0.061-1.404,0.096-2.118,0.096c-12.568,0-22.438-5.957-22.438-17.664
					c0-7.885,3.528-11.771,9.949-16.452c-0.171-1.015-0.884-9.938,1.496-12.316c5.655-5.657,8.218-10.515,13.277-13.028
					c-9.93,3.571-16.978,12.542-16.978,23.053c0,0.177,0.01,0.353,0.015,0.528c-8.011,4.25-13.415,12.271-13.415,21.477
					c0,13.645,11.873,24.706,26.518,24.706c0.834,0,1.655-0.04,2.469-0.108c4.864,5.488,12.224,8.988,20.461,8.988
					c13.536,0,24.693-9.451,26.31-21.656c8.418-4.141,14.158-12.371,14.158-21.854C144.268,127.598,132.395,116.535,117.75,116.535z" style="opacity:0.1;fill:#6E6E96;enable-background:new    ;"></path>
				<g>
					<path d="M80.009,155.494c0,0,13.731,2.688,13.731,16.128c0,0,3.697,22.823-10.595,38.978h33
						c-0.328-0.455-28.824-38.521,2.89-61.151C99.695,160.502,80.009,155.494,80.009,155.494z" style="fill:#EDE3DA;"></path>
					<path d="M116.145,212.1h-36.33l2.207-2.494c13.663-15.443,10.274-37.522,10.238-37.743l-0.02-0.24
						c0-10.926-10.095-14.049-12.179-14.576c-0.278-0.062-0.422-0.098-0.422-0.098l0.658-2.926c0,0,0.161,0.03,0.451,0.103
						c1.105,0.241,5.025,1.001,10.455,1.001c6.786,0,16.995-1.211,27.088-6.98l1.615,2.523
						c-7.892,5.632-12.577,12.753-13.924,21.167c-2.861,17.866,9.887,35.854,11.351,37.847l1.753,2.388L116.145,212.1z
						 M86.307,209.1h26.991c-3.932-6.047-12.823-21.844-10.278-37.738c0.989-6.177,3.596-11.703,7.777-16.517
						c-7.478,2.623-14.465,3.281-19.595,3.281c-0.832,0-1.63-0.017-2.389-0.046c3.334,2.627,6.39,6.832,6.426,13.424
						C95.533,173.44,98.185,193.348,86.307,209.1z" style="fill:#CCCCDE;"></path>
				</g>
				<g>
					<path d="M88.705,128.541" style="fill:#D57E58;"></path>
				</g>
				<path d="M110.805,155.458c0,0-20.835,26.899-4.821,55.142h10.162
					C116.146,210.6,95.002,181.049,110.805,155.458z" style="opacity:0.11;fill:#6E6E96;enable-background:new    ;"></path>
			</g>
			<g style="display:inline;">
				<g>
					<path d="M251.936,166.268c0-12.345-10.74-22.35-23.986-22.35c-0.202,0-0.406,0.008-0.61,0.014
						c-4.188-6.549-11.854-10.938-20.625-10.938c-13.248,0-23.983,10.007-23.983,22.35c0,0.161,0.012,0.318,0.014,0.479
						c-7.244,3.851-12.135,11.104-12.135,19.433c0,12.35,10.734,22.354,23.983,22.354c0.755,0,1.497-0.038,2.229-0.104
						c4.4,4.971,11.062,8.137,18.513,8.137c12.245,0,22.339-8.555,23.799-19.595C246.742,182.295,251.936,174.85,251.936,166.268z" style="fill:#D7F7E4;"></path>
					<path d="M215.335,207.143c-7.355,0-14.282-2.938-19.127-8.085c-0.552,0.034-1.085,0.052-1.615,0.052
						c-14.052,0-25.483-10.7-25.483-23.854c0-8.271,4.622-15.974,12.125-20.311c0.228-12.967,11.57-23.451,25.479-23.451
						c8.617,0,16.744,4.166,21.42,10.925c13.968,0.093,25.302,10.756,25.302,23.849c0,8.63-4.935,16.519-12.933,20.765
						C238.562,198.552,227.891,207.143,215.335,207.143z M197.443,195.944l0.502,0.567c4.293,4.85,10.632,7.631,17.39,7.631
						c11.341,0,20.933-7.863,22.312-18.291l0.105-0.795l0.719-0.354c7.38-3.64,11.965-10.704,11.965-18.435
						c0-11.496-10.087-20.85-22.486-20.85c-0.146,0-0.294,0.005-0.441,0.009l-0.975,0.028l-0.458-0.715
						c-4.042-6.32-11.461-10.246-19.361-10.246c-12.397,0-22.483,9.354-22.483,20.85l0.024,1.375l-0.807,0.429
						c-6.994,3.718-11.339,10.656-11.339,18.108c0,11.499,10.086,20.854,22.483,20.854c0.676,0,1.361-0.032,2.096-0.098
						L197.443,195.944z" style="fill:#CCCCDE;"></path>
				</g>
				<path d="M227.544,143.111c-0.206,0-0.409,0.011-0.614,0.016
					c-3.354-5.251-8.949-9.111-15.558-10.438c5.229,1.312,9.633,4.492,12.339,8.728c0.176-0.004,2.579,4.149,2.757,4.149
					c11.368,0,16.655,6.123,16.655,16.718c0,7.362-2.757,12.055-9.291,15.271c-1.252,9.473-9.915,16.813-20.423,16.813
					c-6.396,0-12.106-2.72-15.884-6.979c-0.631,0.055-1.271,0.086-1.916,0.086c-11.368,0-20.299-5.389-20.299-15.979
					c0-7.135,3.188-10.646,9.002-14.885c-0.156-0.918-0.806-8.987,1.353-11.142c5.116-5.116,7.435-9.515,12.011-11.784
					c-8.98,3.229-15.357,11.346-15.357,20.854c0,0.158,0.015,0.316,0.019,0.479c-7.246,3.847-12.138,11.104-12.138,19.429
					c0,12.345,10.736,22.352,23.986,22.352c0.754,0,1.496-0.032,2.231-0.102c4.401,4.968,11.06,8.134,18.509,8.134
					c12.245,0,22.338-8.555,23.799-19.594c7.615-3.741,12.813-11.189,12.813-19.771
					C251.531,153.118,240.793,143.111,227.544,143.111z" style="opacity:0.1;fill:#6E6E96;enable-background:new    ;"></path>
				<g>
					<path d="M193.402,178.355c0,0,12.422,2.431,12.422,14.588c0,0,3.345,20.646-9.584,35.259h29.853
						c-0.296-0.41-26.073-34.847,2.615-55.317C211.212,182.887,193.402,178.355,193.402,178.355z" style="fill:#EDE3DA;"></path>
					<path d="M226.093,229.702H192.91l2.207-2.494c12.288-13.89,9.258-33.826,9.227-34.026l-0.02-0.238
						c0-9.771-9.034-12.57-10.906-13.045c-0.254-0.056-0.386-0.089-0.386-0.089l0.658-2.926c0,0,0.148,0.028,0.414,0.095
						c0.999,0.218,4.531,0.9,9.425,0.9c6.122,0,15.33-1.092,24.435-6.296l1.615,2.522c-7.106,5.071-11.325,11.482-12.537,19.054
						c-2.579,16.108,8.921,32.332,10.241,34.129l1.754,2.389L226.093,229.702z M199.386,226.702h23.868
						c-3.634-5.641-11.454-19.779-9.175-34.017c0.872-5.444,3.125-10.332,6.725-14.611c-6.594,2.236-12.737,2.805-17.274,2.805
						c-0.6,0-1.179-0.009-1.737-0.026c2.908,2.41,5.497,6.182,5.532,11.973C207.597,194.638,209.947,212.473,199.386,226.702z" style="fill:#CCCCDE;"></path>
				</g>
				<g>
					<path d="M201.27,153.975" style="fill:#D57E58;"></path>
				</g>
				<path d="M221.262,178.322c0,0-18.847,24.334-4.361,49.88h9.192
					C226.093,228.202,206.966,201.473,221.262,178.322z" style="opacity:0.11;fill:#6E6E96;enable-background:new    ;"></path>
			</g>
			<g style="display:inline;">
				<g>
					<path d="M87.67,164.416c0-13.111-11.408-23.738-25.479-23.738c-0.22,0-0.436,0.008-0.653,0.014
						c-4.443-6.954-12.589-11.612-21.907-11.612c-14.071,0-25.48,10.629-25.48,23.735c0,0.17,0.011,0.336,0.015,0.507
						c-7.695,4.086-12.889,11.795-12.889,20.642c0,13.105,11.407,23.735,25.479,23.735c0.8,0,1.59-0.041,2.372-0.104
						c4.674,5.271,11.745,8.639,19.659,8.639c13.007,0,23.729-9.082,25.279-20.81C82.155,181.439,87.67,173.531,87.67,164.416z" style="fill:#D7F7E4;"></path>
					<path d="M48.787,207.732c-7.796,0-15.142-3.122-20.277-8.591c-0.619,0.038-1.198,0.057-1.754,0.057
						c-14.876,0-26.979-11.32-26.979-25.235c0-8.773,4.911-16.938,12.877-21.52c0.213-13.744,12.233-24.864,26.977-24.864
						c9.147,0,17.765,4.424,22.703,11.599c14.81,0.073,26.836,11.367,26.836,25.238c0,9.149-5.242,17.508-13.734,21.992
						C73.404,198.621,62.096,207.732,48.787,207.732z M29.753,196.038l0.497,0.561c4.583,5.169,11.339,8.134,18.537,8.134
						c12.094,0,22.322-8.386,23.792-19.506l0.105-0.795l0.719-0.354c7.875-3.878,12.767-11.412,12.767-19.661
						c0-12.263-10.757-22.238-23.979-22.238c-0.162,0-0.321,0.005-0.48,0.01l-0.98,0.026l-0.457-0.715
						c-4.303-6.735-12.213-10.92-20.643-10.92c-13.223,0-23.98,9.975-23.98,22.235l0.036,1.397l-0.817,0.435
						c-7.459,3.96-12.093,11.362-12.093,19.316c0,12.261,10.757,22.235,23.979,22.235c0.689,0,1.426-0.032,2.25-0.1L29.753,196.038z" style="fill:#CCCCDE;"></path>
				</g>
				<path d="M61.763,139.822c-0.219,0-0.435,0.01-0.652,0.015
					c-3.562-5.577-9.506-9.678-16.525-11.085c5.553,1.393,10.231,4.771,13.106,9.27c0.186-0.004,2.739,4.406,2.928,4.406
					c12.076,0,17.692,6.506,17.692,17.758c0,7.82-2.929,12.806-9.87,16.222c-1.33,10.063-10.531,17.854-21.693,17.854
					c-6.792,0-12.859-2.886-16.871-7.412c-0.67,0.058-1.348,0.092-2.035,0.092c-12.076,0-21.561-5.723-21.561-16.975
					c0-7.574,3.391-11.308,9.561-15.807c-0.165-0.975-0.85-9.549,1.437-11.836c5.435-5.434,7.896-10.103,12.758-12.516
					c-9.541,3.43-16.313,12.051-16.313,22.146c0,0.17,0.01,0.338,0.014,0.508c-7.696,4.085-12.889,11.793-12.889,20.64
					c0,13.106,11.407,23.735,25.479,23.735c0.801,0,1.591-0.039,2.373-0.104c4.674,5.272,11.745,8.641,19.659,8.641
					c13.006,0,23.728-9.081,25.278-20.811c8.089-3.979,13.604-11.892,13.604-21.002C87.243,150.449,75.835,139.822,61.763,139.822z" style="opacity:0.1;fill:#6E6E96;enable-background:new    ;"></path>
				<g>
					<path d="M25.5,177.256c0,0,13.193,2.583,13.193,15.496c0,0,3.553,21.932-10.179,37.45h31.707
						c-0.314-0.437-27.694-37.015,2.777-58.759C44.415,182.066,25.5,177.256,25.5,177.256z" style="fill:#EDE3DA;"></path>
					<path d="M60.221,231.702H25.184l2.207-2.494c13.083-14.784,9.855-36.005,9.821-36.217l-0.019-0.239
						c0-10.454-9.661-13.443-11.658-13.948c-0.266-0.059-0.405-0.094-0.405-0.094l0.658-2.926c0,0,0.155,0.029,0.434,0.099
						c1.061,0.231,4.819,0.96,10.029,0.96c6.514,0,16.314-1.163,26.002-6.701l1.616,2.522c-7.567,5.4-12.06,12.228-13.353,20.293
						c-2.748,17.135,9.489,34.414,10.893,36.328l1.751,2.388L60.221,231.702z M31.67,228.702h25.708
						c-3.81-5.884-12.263-21.012-9.824-36.221c0.941-5.871,3.401-11.133,7.34-15.725c-7.116,2.464-13.756,3.086-18.643,3.086
						c-0.734,0-1.44-0.014-2.115-0.038c3.159,2.54,6.021,6.566,6.057,12.829C40.478,194.521,43.007,213.578,31.67,228.702z" style="fill:#CCCCDE;"></path>
				</g>
				<g>
					<path d="M33.855,151.357" style="fill:#D57E58;"></path>
				</g>
				<path d="M55.09,177.221c0,0-20.02,25.848-4.633,52.981h9.764
					C60.221,230.202,39.906,201.811,55.09,177.221z" style="opacity:0.11;fill:#6E6E96;enable-background:new    ;"></path>
			</g>
		</g>
	</g>
	<g>
		<circle r="19.07" cy="43.955" cx="180.83" style="fill:#F0F0FF;"></circle>
		<g>
			<path d="M215.771,46.392v-6.294l-8.306-1.582c-0.276-1.648-0.712-3.247-1.274-4.78l6.535-5.281
				l-3.146-5.449l-7.982,2.78c-1.06-1.267-2.229-2.438-3.492-3.495l3.017-7.849l-5.446-3.146l-5.521,6.394
				c-1.53-0.565-3.13-0.994-4.778-1.278l-1.309-8.303h-6.293l-1.582,8.303c-1.647,0.283-3.245,0.713-4.78,1.278l-5.28-6.535
				l-5.443,3.146l2.774,7.986c-1.271,1.058-2.438,2.227-3.491,3.494l-7.851-3.022l-3.146,5.451l6.396,5.521
				c-0.565,1.532-0.994,3.126-1.274,4.778l-8.308,1.307v6.292l8.306,1.584c0.278,1.65,0.709,3.246,1.275,4.779l-6.535,5.281
				l3.146,5.452l7.98-2.783c1.061,1.268,2.229,2.436,3.495,3.494l-3.021,7.85l5.451,3.145l5.521-6.395
				c1.528,0.563,3.129,0.992,4.774,1.275l1.312,8.307h6.291l1.583-8.305c1.648-0.279,3.247-0.713,4.779-1.275l5.281,6.539
				l5.446-3.15l-2.778-7.986c1.271-1.057,2.438-2.227,3.494-3.49l7.848,3.021l3.147-5.454l-6.396-5.52
				c0.562-1.531,0.994-3.127,1.276-4.777L215.771,46.392z M180.721,61.606c-10.166,0-18.41-8.241-18.41-18.411
				c0-10.168,8.244-18.411,18.41-18.411c10.168,0,18.406,8.241,18.406,18.411C199.127,53.365,190.889,61.606,180.721,61.606z" style="fill:#FFFFFF;"></path>
			<path d="M185.027,79.597h-8.814l-1.347-8.532c-1.013-0.213-2.012-0.481-2.987-0.799l-5.665,6.563
				l-7.637-4.406l3.104-8.065c-0.765-0.688-1.495-1.42-2.185-2.186l-8.192,2.857l-4.408-7.638l6.713-5.424
				c-0.321-0.983-0.588-1.984-0.798-2.993l-8.521-1.625v-8.815l8.531-1.342c0.212-1.011,0.479-2.011,0.8-2.991l-6.563-5.666
				l4.406-7.637l8.063,3.104c0.688-0.766,1.419-1.497,2.186-2.185l-2.847-8.196l7.627-4.407l5.425,6.713
				c0.981-0.319,1.981-0.586,2.993-0.798l1.623-8.521h8.816l1.344,8.529c1.016,0.214,2.016,0.482,2.991,0.801l5.666-6.562
				l7.63,4.408l-3.099,8.064c0.763,0.688,1.492,1.419,2.182,2.187l8.194-2.854l4.408,7.635l-6.714,5.425
				c0.322,0.992,0.59,1.992,0.798,2.993l8.521,1.623v8.817l-8.528,1.343c-0.213,1.007-0.48,2.007-0.801,2.989l6.563,5.666
				l-4.408,7.64l-8.063-3.104c-0.692,0.769-1.423,1.498-2.186,2.181l2.852,8.195l-7.631,4.414l-5.426-6.719
				c-0.987,0.321-1.988,0.587-2.992,0.797L185.027,79.597z M178.777,76.597h3.768l1.546-8.11l1.027-0.174
				c1.518-0.257,3.036-0.662,4.514-1.204l1.009-0.37l5.149,6.376l3.262-1.886l-2.712-7.797l0.799-0.665
				c1.184-0.984,2.294-2.094,3.303-3.299l0.688-0.823l7.651,2.945l1.887-3.269l-6.242-5.388l0.357-0.975
				c0.539-1.466,0.944-2.984,1.206-4.512l0.182-1.061l8.101-1.276v-3.771l-8.112-1.545l-0.173-1.03
				c-0.252-1.506-0.657-3.023-1.203-4.512l-0.37-1.008l6.373-5.15l-1.885-3.264l-7.789,2.713l-0.665-0.795
				c-1.003-1.199-2.114-2.312-3.305-3.307l-0.822-0.688l2.942-7.654L196,13.215l-5.389,6.242l-0.976-0.36
				c-1.445-0.534-2.964-0.94-4.514-1.207l-1.06-0.183l-1.276-8.099h-3.77l-1.544,8.105l-1.025,0.176
				c-1.536,0.264-3.056,0.669-4.517,1.207l-1.009,0.371l-5.149-6.373l-3.26,1.884l2.709,7.796l-0.798,0.664
				c-1.195,0.995-2.305,2.105-3.298,3.3l-0.688,0.828l-7.658-2.948l-1.885,3.266l6.244,5.39l-0.36,0.976
				c-0.537,1.457-0.942,2.974-1.203,4.509l-0.18,1.063l-8.106,1.275v3.769l8.111,1.547l0.174,1.028
				c0.258,1.529,0.662,3.045,1.203,4.508l0.373,1.01l-6.375,5.152l1.885,3.266l7.787-2.716l0.665,0.795
				c1.001,1.197,2.113,2.309,3.307,3.305l0.823,0.688l-2.945,7.655l3.266,1.884l5.39-6.243l0.975,0.359
				c1.446,0.533,2.964,0.938,4.511,1.204l1.06,0.183L178.777,76.597z M180.721,63.106c-10.979,0-19.91-8.932-19.91-19.911
				s8.932-19.911,19.91-19.911c10.977,0,19.906,8.932,19.906,19.911S191.697,63.106,180.721,63.106z M180.721,26.284
				c-9.324,0-16.91,7.586-16.91,16.911s7.586,16.911,16.91,16.911c9.322,0,16.906-7.586,16.906-16.911
				S190.043,26.284,180.721,26.284z" style="fill:#CCCCDE;"></path>
		</g>
		<g>
			<circle r="8.298" cy="43.104" cx="180.779" style="fill:#DBDBED;"></circle>
			<path d="M180.779,52.902c-5.403,0-9.799-4.396-9.799-9.798s4.396-9.798,9.799-9.798
				c5.402,0,9.798,4.396,9.798,9.798S186.182,52.902,180.779,52.902z M180.779,36.306c-3.749,0-6.799,3.049-6.799,6.798
				s3.05,6.798,6.799,6.798c3.748,0,6.798-3.049,6.798-6.798S184.527,36.306,180.779,36.306z" style="fill:#CCCCDE;"></path>
		</g>
	</g>
	<g>
		<path d="M228.232,196.703c0-0.121,0.01-0.238,0.01-0.359c0-12.637-11.146-22.882-24.902-22.882
			c-11.836,0-21.742,7.597-24.268,17.771c-0.391-0.026-0.782-0.049-1.178-0.049c-8.183,0-14.813,6.097-14.813,13.612
			c0,1.61,0.31,3.156,0.867,4.591c-2.296,2.981-3.648,6.623-3.648,10.553c0,9.966,8.673,18.063,19.459,18.279v0.01h38.261
			c13.111,0,23.744-9.771,23.744-21.823C241.764,207.713,236.232,200.213,228.232,196.703z" style="fill:#FFFFFF;"></path>
		<path d="M218.02,239.729h-38.261c-0.07,0-0.14-0.005-0.208-0.015c-11.459-0.317-20.751-9.154-20.751-19.774
			c0-3.868,1.196-7.585,3.469-10.802c-0.457-1.41-0.688-2.867-0.688-4.342c0-8.333,7.318-15.112,16.313-15.112
			c0.017,0,0.033,0,0.05,0c3.198-10.495,13.459-17.722,25.396-17.722c14.342,0,26.049,10.614,26.395,23.783
			c8.252,4.004,13.529,12.013,13.529,20.66C243.264,229.266,231.939,239.729,218.02,239.729z M179.931,236.729h38.089
			c12.266,0,22.244-9.117,22.244-20.323c0-7.767-4.959-14.962-12.634-18.328c-0.545-0.239-0.897-0.778-0.897-1.374l0.01-0.359
			c0-11.79-10.498-21.382-23.402-21.382c-10.826,0-20.42,6.995-22.812,16.632c-0.175,0.706-0.836,1.183-1.557,1.136
			c-0.357-0.024-0.716-0.046-1.077-0.046c-7.341,0-13.313,5.434-13.313,12.112c0,1.379,0.258,2.741,0.766,4.048
			c0.189,0.489,0.11,1.042-0.21,1.458c-2.183,2.835-3.337,6.168-3.337,9.638c0,9.054,8.07,16.581,17.989,16.779
			C179.837,236.72,179.884,236.724,179.931,236.729z" style="fill:#CCCCDE;"></path>
	</g>
	<g id="Layer_11_2_">
		<g>
			<path d="M229.705,124.115c0.725-2.219,2.993-4.945,5.045-6.057l0.009-0.005
				c2.054-1.112,2.054-2.931,0-4.043l-0.009-0.005c-2.052-1.112-4.438-3.617-5.3-5.567c-0.863-1.95-2.275-1.95-3.14,0
				c-0.862,1.951-3.248,4.456-5.304,5.567l-0.01,0.005c-2.056,1.112-2.056,2.931,0,4.043l0.01,0.005
				c2.056,1.112,4.321,3.838,5.045,6.057l0.515,1.567c0.724,2.22,1.899,2.22,2.627,0L229.705,124.115z" style="fill:#7FE5FF;"></path>
		</g>
		<g>
			<path d="M50.974,24.917c1.023-3.142,4.237-7.002,7.146-8.575l0.012-0.007c2.906-1.575,2.906-4.151,0-5.725
				l-0.012-0.007c-2.905-1.575-6.283-5.121-7.507-7.884c-1.221-2.761-3.221-2.761-4.44,0c-1.221,2.763-4.601,6.309-7.504,7.884
				l-0.015,0.007c-2.903,1.573-2.903,4.149,0,5.725l0.015,0.007c2.903,1.573,6.119,5.434,7.146,8.575l0.723,2.22
				c1.023,3.145,2.697,3.145,3.721,0L50.974,24.917z" style="fill:#FFB0B8;"></path>
		</g>
		<g>
			<path d="M8.448,138.854c0.615-1.887,2.546-4.207,4.292-5.15l0.007-0.005c1.746-0.944,1.746-2.493,0-3.438
				l-0.007-0.006c-1.746-0.943-3.775-3.076-4.508-4.735c-0.734-1.659-1.936-1.659-2.67,0c-0.733,1.659-2.763,3.792-4.509,4.735
				l-0.007,0.006c-1.746,0.943-1.746,2.492,0,3.438l0.007,0.005c1.746,0.943,3.677,3.267,4.292,5.15l0.435,1.334
				c0.615,1.891,1.621,1.891,2.235,0L8.448,138.854z" style="fill:#9ADFC0;"></path>
		</g>
		<g id="Layer_7_1_">
			<path d="M146.827,246.219c1.077-3.307,4.459-7.369,7.521-9.027l0.014-0.006
				c3.062-1.66,3.062-4.371,0-6.021l-0.014-0.014c-3.062-1.654-6.613-5.391-7.898-8.299c-1.286-2.9-3.396-2.9-4.686,0
				c-1.281,2.908-4.841,6.645-7.899,8.299l-0.013,0.014c-3.062,1.65-3.062,4.361,0,6.021l0.013,0.006
				c3.061,1.658,6.442,5.729,7.52,9.027l0.769,2.336c1.072,3.312,2.842,3.312,3.912,0L146.827,246.219z" style="fill:#DEC2FF;"></path>
		</g>
	</g>
	<g>
		<g>
			<circle r="27.844" cy="203.146" cx="50.161" style="fill:#FFF6D4;"></circle>
			<path d="M50.161,232.49c-16.181,0-29.344-13.163-29.344-29.344s13.164-29.345,29.344-29.345
				c16.18,0,29.344,13.164,29.344,29.345S66.341,232.49,50.161,232.49z M50.161,176.802c-14.526,0-26.344,11.818-26.344,26.345
				s11.818,26.344,26.344,26.344c14.526,0,26.344-11.817,26.344-26.344S64.687,176.802,50.161,176.802z" style="fill:#CCCCDE;"></path>
		</g>
		<path d="M50.413,219.424c-0.191,0-0.381-0.004-0.573-0.012c-6.913-0.285-11.541-5.655-11.734-5.884
			c-0.536-0.632-0.457-1.578,0.175-2.114c0.631-0.534,1.576-0.456,2.112,0.172c0.052,0.061,4.018,4.613,9.597,4.83
			c3.577,0.115,7.103-1.517,10.505-4.918c0.586-0.586,1.535-0.586,2.121,0s0.586,1.535,0,2.121
			C58.761,217.474,54.658,219.424,50.413,219.424z" style="fill:#CCCCDE;"></path>
	</g>
	<g id="Layer_10_1_">
		<circle r="45.059" cy="126.367" cx="55.85" style="fill:#E0ECFF;"></circle>
		<circle r="37.637" cy="126.315" cx="55.898" style="fill:#F2FAFF;"></circle>
		<path d="M42.042,103.687c-0.519,0-1.023-0.27-1.301-0.751l-2.697-4.674
			c-0.414-0.717-0.168-1.635,0.55-2.049c0.718-0.414,1.635-0.168,2.049,0.55l2.697,4.674c0.414,0.717,0.168,1.635-0.55,2.049
			C42.554,103.622,42.296,103.687,42.042,103.687z" style="fill:#CCCCDE;"></path>
		<path d="M31.857,113.864c-0.254,0-0.512-0.065-0.749-0.202l-4.67-2.696
			c-0.717-0.414-0.963-1.332-0.549-2.049c0.414-0.718,1.331-0.963,2.049-0.549l4.67,2.696c0.717,0.414,0.963,1.332,0.549,2.049
			C32.88,113.595,32.376,113.864,31.857,113.864z" style="fill:#CCCCDE;"></path>
		<path d="M27.19,144.373c-0.518,0-1.022-0.269-1.3-0.75c-0.415-0.717-0.169-1.635,0.548-2.049l4.67-2.698
			c0.718-0.416,1.635-0.169,2.049,0.549c0.415,0.717,0.169,1.635-0.548,2.049l-4.67,2.698
			C27.703,144.309,27.445,144.373,27.19,144.373z" style="fill:#CCCCDE;"></path>
		<path d="M39.341,156.527c-0.254,0-0.512-0.064-0.749-0.201c-0.717-0.414-0.963-1.331-0.549-2.049
			l2.697-4.674c0.414-0.718,1.332-0.964,2.049-0.549c0.717,0.414,0.963,1.331,0.549,2.049l-2.697,4.674
			C40.364,156.259,39.86,156.527,39.341,156.527z" style="fill:#CCCCDE;"></path>
		<path d="M72.55,156.525c-0.519,0-1.022-0.269-1.3-0.75l-2.699-4.672c-0.415-0.717-0.169-1.635,0.548-2.049
			c0.719-0.415,1.636-0.169,2.049,0.549l2.699,4.672c0.415,0.717,0.169,1.635-0.548,2.049
			C73.063,156.461,72.805,156.525,72.55,156.525z" style="fill:#CCCCDE;"></path>
		<path d="M84.702,144.371c-0.254,0-0.512-0.064-0.749-0.201l-4.671-2.696
			c-0.717-0.414-0.963-1.331-0.549-2.049c0.415-0.718,1.333-0.964,2.049-0.549l4.671,2.696c0.717,0.414,0.963,1.331,0.549,2.049
			C85.725,144.103,85.22,144.371,84.702,144.371z" style="fill:#CCCCDE;"></path>
		<path d="M80.034,113.864c-0.519,0-1.022-0.269-1.3-0.75c-0.415-0.717-0.168-1.635,0.549-2.049l4.671-2.697
			c0.719-0.415,1.635-0.168,2.049,0.549c0.415,0.717,0.168,1.635-0.549,2.049l-4.671,2.697
			C80.546,113.799,80.288,113.864,80.034,113.864z" style="fill:#CCCCDE;"></path>
		<path d="M69.849,103.685c-0.254,0-0.513-0.065-0.749-0.202c-0.718-0.414-0.963-1.332-0.549-2.049
			l2.699-4.672c0.415-0.717,1.333-0.963,2.049-0.549c0.718,0.414,0.963,1.332,0.549,2.049l-2.699,4.672
			C70.871,103.416,70.367,103.685,69.849,103.685z" style="fill:#CCCCDE;"></path>
		<g style="opacity:0.39;">
			<path d="M55.945,96.181c-0.829,0-1.5-0.671-1.5-1.5v-1.618c0-0.829,0.671-1.5,1.5-1.5s1.5,0.671,1.5,1.5
				v1.618C57.445,95.51,56.773,96.181,55.945,96.181z" style="fill:#CCCCDE;"></path>
			<path d="M50.458,96.662c-0.714,0-1.347-0.512-1.475-1.24l-0.281-1.594
				c-0.144-0.816,0.401-1.594,1.217-1.737c0.817-0.143,1.594,0.401,1.737,1.217l0.281,1.594c0.144,0.816-0.401,1.594-1.217,1.737
				C50.632,96.654,50.544,96.662,50.458,96.662z" style="fill:#CCCCDE;"></path>
			<path d="M45.14,98.085c-0.613,0-1.188-0.378-1.41-0.988l-0.552-1.519
				c-0.283-0.779,0.119-1.639,0.897-1.922c0.777-0.283,1.639,0.118,1.922,0.897l0.552,1.519c0.283,0.779-0.119,1.639-0.897,1.922
				C45.483,98.056,45.311,98.085,45.14,98.085z" style="fill:#CCCCDE;"></path>
			<path d="M40.153,100.413c-0.519,0-1.022-0.269-1.3-0.75l-0.809-1.4c-0.415-0.717-0.169-1.635,0.548-2.049
				c0.719-0.414,1.635-0.168,2.049,0.548l0.809,1.4c0.415,0.717,0.169,1.635-0.548,2.049
				C40.666,100.348,40.408,100.413,40.153,100.413z" style="fill:#CCCCDE;"></path>
			<path d="M35.642,103.572c-0.429,0-0.854-0.183-1.151-0.537l-1.039-1.24
				c-0.532-0.635-0.448-1.581,0.187-2.113c0.635-0.532,1.581-0.448,2.113,0.187l1.039,1.24c0.532,0.635,0.448,1.581-0.187,2.113
				C36.324,103.458,35.982,103.572,35.642,103.572z" style="fill:#CCCCDE;"></path>
			<path d="M31.745,107.465c-0.34,0-0.683-0.115-0.964-0.352l-1.237-1.04
				c-0.634-0.533-0.716-1.479-0.183-2.114c0.534-0.634,1.479-0.716,2.114-0.183l1.237,1.04c0.634,0.533,0.716,1.479,0.183,2.114
				C32.598,107.283,32.173,107.465,31.745,107.465z" style="fill:#CCCCDE;"></path>
			<path d="M28.585,111.976c-0.255,0-0.513-0.065-0.75-0.202l-1.398-0.809
				c-0.717-0.415-0.962-1.333-0.547-2.05s1.332-0.962,2.05-0.547l1.398,0.809c0.717,0.415,0.962,1.333,0.547,2.05
				C29.607,111.707,29.104,111.976,28.585,111.976z" style="fill:#CCCCDE;"></path>
			<path d="M26.262,116.966c-0.171,0-0.344-0.029-0.514-0.091l-1.518-0.554
				c-0.778-0.284-1.179-1.145-0.895-1.923c0.284-0.778,1.144-1.18,1.923-0.895l1.518,0.554c0.778,0.284,1.179,1.145,0.895,1.923
				C27.449,116.588,26.875,116.966,26.262,116.966z" style="fill:#CCCCDE;"></path>
			<path d="M24.839,122.286c-0.087,0-0.175-0.008-0.264-0.023l-1.592-0.282
				c-0.816-0.145-1.36-0.923-1.215-1.739c0.144-0.816,0.923-1.363,1.739-1.215l1.592,0.282c0.816,0.145,1.36,0.923,1.215,1.739
				C26.185,121.774,25.552,122.286,24.839,122.286z" style="fill:#CCCCDE;"></path>
			<path d="M24.356,127.771c0,0-0.001,0-0.002,0l-1.616-0.003c-0.828-0.001-1.499-0.673-1.498-1.501
				c0.001-0.828,0.672-1.498,1.5-1.498c0,0,0.001,0,0.002,0l1.616,0.002c0.828,0.001,1.499,0.673,1.498,1.502
				C25.855,127.101,25.184,127.771,24.356,127.771z" style="fill:#CCCCDE;"></path>
			<path d="M23.243,133.536c-0.714,0-1.347-0.512-1.475-1.239c-0.144-0.815,0.4-1.594,1.216-1.738
				l1.592-0.281c0.816-0.145,1.594,0.4,1.738,1.217c0.144,0.815-0.4,1.594-1.216,1.738l-1.592,0.281
				C23.418,133.529,23.33,133.536,23.243,133.536z" style="fill:#CCCCDE;"></path>
			<path d="M24.744,139.127c-0.613,0-1.188-0.378-1.41-0.987c-0.283-0.778,0.118-1.639,0.897-1.922
				l1.519-0.553c0.776-0.283,1.639,0.117,1.922,0.896c0.283,0.778-0.118,1.639-0.897,1.922l-1.519,0.553
				C25.088,139.098,24.915,139.127,24.744,139.127z" style="fill:#CCCCDE;"></path>
			<path d="M27.19,144.373c-0.518,0-1.021-0.268-1.3-0.748c-0.415-0.717-0.17-1.635,0.547-2.05l1.4-0.811
				c0.716-0.418,1.634-0.171,2.05,0.546c0.415,0.717,0.17,1.635-0.547,2.05l-1.4,0.811C27.704,144.309,27.445,144.373,27.19,144.373
				z" style="fill:#CCCCDE;"></path>
			<path d="M30.51,149.113c-0.428,0-0.853-0.182-1.149-0.535c-0.533-0.635-0.451-1.58,0.184-2.113
				l1.239-1.041c0.635-0.534,1.582-0.451,2.113,0.184c0.533,0.635,0.451,1.58-0.184,2.113l-1.239,1.041
				C31.192,148.998,30.85,149.113,30.51,149.113z" style="fill:#CCCCDE;"></path>
			<path d="M34.601,153.208c-0.339,0-0.681-0.114-0.962-0.35c-0.635-0.532-0.719-1.478-0.188-2.113
				l1.039-1.241c0.532-0.635,1.478-0.721,2.113-0.188c0.635,0.532,0.719,1.478,0.188,2.113l-1.039,1.241
				C35.456,153.025,35.03,153.208,34.601,153.208z" style="fill:#CCCCDE;"></path>
			<path d="M39.341,156.527c-0.254,0-0.512-0.064-0.749-0.201c-0.717-0.414-0.963-1.331-0.549-2.049
				l0.809-1.401c0.415-0.718,1.332-0.964,2.049-0.549c0.717,0.414,0.963,1.331,0.549,2.049l-0.809,1.401
				C40.364,156.259,39.86,156.527,39.341,156.527z" style="fill:#CCCCDE;"></path>
			<path d="M44.588,158.973c-0.171,0-0.344-0.029-0.514-0.091c-0.778-0.284-1.179-1.145-0.895-1.923
				l0.554-1.52c0.284-0.779,1.145-1.177,1.923-0.896c0.778,0.284,1.179,1.145,0.895,1.923l-0.554,1.52
				C45.775,158.596,45.2,158.973,44.588,158.973z" style="fill:#CCCCDE;"></path>
			<path d="M50.182,160.473c-0.086,0-0.173-0.007-0.261-0.022c-0.816-0.144-1.361-0.921-1.218-1.737
				l0.28-1.594c0.144-0.815,0.926-1.362,1.737-1.218c0.816,0.144,1.361,0.921,1.218,1.737l-0.28,1.594
				C51.53,159.96,50.896,160.473,50.182,160.473z" style="fill:#CCCCDE;"></path>
			<path d="M55.946,160.977c-0.829,0-1.5-0.672-1.5-1.5v-1.619c0-0.828,0.671-1.5,1.5-1.5s1.5,0.672,1.5,1.5
				v1.619C57.446,160.305,56.774,160.977,55.946,160.977z" style="fill:#CCCCDE;"></path>
			<path d="M61.71,160.473c-0.714,0-1.348-0.513-1.476-1.24l-0.28-1.594
				c-0.143-0.816,0.402-1.594,1.218-1.737c0.811-0.145,1.593,0.402,1.737,1.218l0.28,1.594c0.143,0.816-0.402,1.594-1.218,1.737
				C61.884,160.466,61.796,160.473,61.71,160.473z" style="fill:#CCCCDE;"></path>
			<path d="M67.303,158.973c-0.613,0-1.188-0.378-1.41-0.987l-0.552-1.52
				c-0.283-0.779,0.119-1.64,0.897-1.923c0.777-0.284,1.639,0.119,1.922,0.897l0.552,1.52c0.283,0.779-0.119,1.64-0.897,1.923
				C67.646,158.944,67.474,158.973,67.303,158.973z" style="fill:#CCCCDE;"></path>
			<path d="M72.55,156.527c-0.519,0-1.024-0.27-1.301-0.751l-0.808-1.402
				c-0.414-0.719-0.167-1.636,0.551-2.049c0.717-0.414,1.635-0.166,2.048,0.551l0.808,1.402c0.414,0.719,0.167,1.636-0.551,2.049
				C73.062,156.463,72.804,156.527,72.55,156.527z" style="fill:#CCCCDE;"></path>
			<path d="M77.293,153.208c-0.428,0-0.853-0.183-1.15-0.535l-1.042-1.241
				c-0.533-0.635-0.45-1.581,0.185-2.113c0.634-0.534,1.581-0.449,2.113,0.184l1.042,1.241c0.533,0.635,0.45,1.581-0.185,2.113
				C77.976,153.093,77.633,153.208,77.293,153.208z" style="fill:#CCCCDE;"></path>
			<path d="M81.382,149.113c-0.34,0-0.683-0.115-0.963-0.352l-1.24-1.041
				c-0.635-0.532-0.717-1.479-0.185-2.113c0.532-0.635,1.479-0.718,2.113-0.184l1.24,1.041c0.635,0.532,0.717,1.479,0.185,2.113
				C82.235,148.932,81.81,149.113,81.382,149.113z" style="fill:#CCCCDE;"></path>
			<path d="M84.702,144.373c-0.255,0-0.514-0.064-0.75-0.202l-1.4-0.811c-0.717-0.415-0.962-1.333-0.547-2.05
				c0.416-0.716,1.334-0.963,2.05-0.546l1.4,0.811c0.717,0.415,0.962,1.333,0.547,2.05
				C85.723,144.104,85.219,144.373,84.702,144.373z" style="fill:#CCCCDE;"></path>
			<path d="M87.147,139.127c-0.171,0-0.345-0.029-0.515-0.092l-1.516-0.555
				c-0.778-0.284-1.178-1.146-0.894-1.924c0.285-0.777,1.147-1.176,1.924-0.893l1.516,0.555c0.778,0.284,1.178,1.146,0.894,1.924
				C88.333,138.75,87.759,139.127,87.147,139.127z" style="fill:#CCCCDE;"></path>
			<path d="M88.65,133.536c-0.087,0-0.176-0.008-0.264-0.023l-1.594-0.283
				c-0.816-0.145-1.359-0.924-1.215-1.739c0.146-0.815,0.929-1.357,1.739-1.214l1.594,0.283c0.816,0.145,1.359,0.924,1.215,1.739
				C89.996,133.025,89.363,133.536,88.65,133.536z" style="fill:#CCCCDE;"></path>
			<path d="M89.153,127.77h-1.62c-0.829,0-1.5-0.672-1.5-1.5s0.671-1.5,1.5-1.5h1.62
				c0.829,0,1.5,0.671,1.5,1.5S89.981,127.77,89.153,127.77z" style="fill:#CCCCDE;"></path>
			<path d="M87.052,122.284c-0.714,0-1.347-0.513-1.476-1.241c-0.143-0.816,0.402-1.594,1.218-1.737
				l1.594-0.28c0.817-0.141,1.594,0.402,1.737,1.218c0.143,0.816-0.402,1.594-1.218,1.737l-1.594,0.28
				C87.226,122.276,87.139,122.284,87.052,122.284z" style="fill:#CCCCDE;"></path>
			<path d="M85.629,116.966c-0.612,0-1.187-0.378-1.409-0.986c-0.284-0.778,0.117-1.64,0.895-1.923
				l1.518-0.554c0.78-0.284,1.639,0.117,1.923,0.895c0.284,0.778-0.117,1.64-0.895,1.923l-1.518,0.554
				C85.973,116.937,85.8,116.966,85.629,116.966z" style="fill:#CCCCDE;"></path>
			<path d="M83.302,111.976c-0.519,0-1.023-0.27-1.301-0.751c-0.414-0.717-0.168-1.635,0.55-2.049
				l1.402-0.809c0.717-0.413,1.635-0.167,2.049,0.55s0.168,1.635-0.55,2.049l-1.402,0.809
				C83.814,111.911,83.557,111.976,83.302,111.976z" style="fill:#CCCCDE;"></path>
			<path d="M80.144,107.465c-0.428,0-0.854-0.182-1.15-0.536c-0.532-0.634-0.449-1.581,0.186-2.113
				l1.24-1.041c0.635-0.532,1.581-0.449,2.113,0.186c0.532,0.634,0.449,1.581-0.186,2.113l-1.24,1.041
				C80.826,107.35,80.484,107.465,80.144,107.465z" style="fill:#CCCCDE;"></path>
			<path d="M76.248,103.572c-0.341,0-0.683-0.115-0.964-0.352c-0.634-0.533-0.716-1.479-0.183-2.113
				l1.043-1.24c0.533-0.634,1.48-0.715,2.113-0.183c0.634,0.533,0.716,1.479,0.183,2.113l-1.043,1.24
				C77.101,103.391,76.676,103.572,76.248,103.572z" style="fill:#CCCCDE;"></path>
			<path d="M71.738,100.415c-0.254,0-0.512-0.065-0.749-0.202c-0.717-0.414-0.963-1.332-0.549-2.049
				l0.81-1.402c0.414-0.716,1.332-0.963,2.049-0.549c0.717,0.414,0.963,1.332,0.549,2.049l-0.81,1.402
				C72.761,100.145,72.256,100.415,71.738,100.415z" style="fill:#CCCCDE;"></path>
			<path d="M66.75,98.087c-0.17,0-0.343-0.029-0.513-0.091c-0.778-0.283-1.18-1.144-0.897-1.922l0.553-1.521
				c0.283-0.779,1.142-1.18,1.922-0.897c0.778,0.283,1.18,1.144,0.897,1.922L68.16,97.1C67.938,97.709,67.363,98.087,66.75,98.087z" style="fill:#CCCCDE;"></path>
			<path d="M61.432,96.664c-0.087,0-0.174-0.008-0.263-0.023c-0.816-0.144-1.36-0.922-1.216-1.738
				l0.282-1.596c0.144-0.816,0.926-1.36,1.738-1.216c0.816,0.144,1.36,0.922,1.216,1.738l-0.282,1.596
				C62.779,96.151,62.146,96.664,61.432,96.664z" style="fill:#CCCCDE;"></path>
		</g>
		<path d="M55.945,99.958c-0.829,0-1.5-0.671-1.5-1.5v-5.395c0-0.829,0.671-1.5,1.5-1.5s1.5,0.671,1.5,1.5
			v5.395C57.445,99.287,56.773,99.958,55.945,99.958z" style="fill:#CCCCDE;"></path>
		<path d="M22.74,127.771c-0.828,0-1.5-0.672-1.5-1.5c0-0.829,0.671-1.5,1.5-1.5l5.396-0.002h0
			c0.828,0,1.5,0.671,1.5,1.5s-0.671,1.5-1.5,1.5L22.74,127.771L22.74,127.771z" style="fill:#CCCCDE;"></path>
		<path d="M55.946,160.977c-0.829,0-1.5-0.671-1.5-1.5l-0.001-5.396c0-0.828,0.671-1.5,1.5-1.5
			c0.829,0,1.5,0.671,1.5,1.5l0.001,5.396C57.446,160.305,56.774,160.977,55.946,160.977z" style="fill:#CCCCDE;"></path>
		<path d="M89.151,127.77h-5.392c-0.829,0-1.5-0.672-1.5-1.5s0.671-1.5,1.5-1.5h5.392
			c0.829,0,1.5,0.671,1.5,1.5S89.979,127.77,89.151,127.77z" style="fill:#CCCCDE;"></path>
		<path d="M72.412,144.327c-0.384,0-0.768-0.146-1.061-0.439l-16.514-16.512
			c-0.282-0.282-0.44-0.665-0.439-1.063c0-0.399,0.16-0.781,0.443-1.062l12.954-12.861c0.588-0.583,1.538-0.581,2.121,0.008
			c0.583,0.588,0.58,1.538-0.008,2.121l-11.886,11.8l15.45,15.448c0.586,0.586,0.586,1.535,0,2.121
			C73.18,144.181,72.796,144.327,72.412,144.327z" style="fill:#CCCCDE;"></path>
		<path d="M35.408,138.73c-0.172,0-0.34-0.089-0.433-0.249c-0.139-0.238-0.058-0.544,0.181-0.684
			l20.491-11.915c0.238-0.139,0.545-0.059,0.684,0.181c0.139,0.239,0.058,0.545-0.181,0.684l-20.491,11.916
			C35.58,138.709,35.493,138.73,35.408,138.73z" style="fill:#CCCCDE;"></path>
		<g>
			<circle r="2.52" cy="126.373" cx="55.873" style="fill:#F0F0FF;"></circle>
			<path d="M55.873,130.393c-2.217,0-4.02-1.803-4.02-4.02s1.803-4.02,4.02-4.02s4.02,1.803,4.02,4.02
				S58.09,130.393,55.873,130.393z M55.873,125.353c-0.562,0-1.02,0.458-1.02,1.02c0,0.562,0.458,1.02,1.02,1.02
				s1.02-0.458,1.02-1.02C56.893,125.811,56.436,125.353,55.873,125.353z" style="fill:#CCCCDE;"></path>
		</g>
		<path d="M12.989,133.247
			c-2.909-23.908,14.116-45.646,38.026-48.554c23.908-2.907,45.647,14.118,48.554,38.024c0.386,3.161,0.412,6.282,0.13,9.327
			c0.577-3.872,0.662-7.883,0.167-11.957C96.905,95.722,74.748,78.371,50.38,81.334c-24.367,2.963-41.717,25.118-38.753,49.484
			c0.828,6.805,3.153,13.062,6.604,18.48C15.528,144.482,13.697,139.07,12.989,133.247z" style="opacity:0.58;fill:#FFFFFF;enable-background:new    ;"></path>
		<path d="M55.85,172.926c-25.673,0-46.559-20.886-46.559-46.559S30.177,79.808,55.85,79.808
			s46.559,20.886,46.559,46.559S81.523,172.926,55.85,172.926z M55.85,82.808c-24.019,0-43.559,19.541-43.559,43.559
			s19.541,43.559,43.559,43.559s43.559-19.54,43.559-43.559S79.869,82.808,55.85,82.808z" style="fill:#CCCCDE;"></path>
		<path d="M55.898,165.452c-21.58,0-39.137-17.557-39.137-39.137s17.557-39.137,39.137-39.137
			c21.581,0,39.137,17.557,39.137,39.137S77.479,165.452,55.898,165.452z M55.898,90.178c-19.926,0-36.137,16.211-36.137,36.137
			s16.211,36.137,36.137,36.137c19.926,0,36.137-16.211,36.137-36.137S75.824,90.178,55.898,90.178z" style="fill:#CCCCDE;"></path>
		<path d="M95.864,107.939c2.101,5.11,3.266,10.702,3.266,16.568
			c0,24.087-19.524,43.608-43.61,43.608c-24.084,0-43.608-19.523-43.608-43.608c0-3.183,0.351-6.282,0.998-9.272
			c-1.042,3.773-1.609,7.743-1.609,11.849c0,24.546,19.9,44.443,44.444,44.443c24.549,0,44.445-19.897,44.445-44.443
			C100.189,120.229,98.637,113.738,95.864,107.939z" style="opacity:0.15;fill:#6E6E96;enable-background:new    ;"></path>
		<path d="M80.4,102.634C74.156,96.272,65.465,92.32,55.845,92.32
			c-19.002,0-34.406,15.405-34.406,34.407c0,6.604,1.864,12.771,5.09,18.009L80.4,102.634z" style="opacity:0.54;fill:#FFFFFF;enable-background:new    ;"></path>
		<g style="opacity:0.1;">
			<path d="M65.822,89.585c13.657,5.068,23.391,18.214,23.391,33.638c0,19.81-16.06,35.871-35.871,35.871
				c-18.934,0-34.432-14.675-35.767-33.27c0.07,20.726,16.891,37.508,37.634,37.508c20.787,0,37.637-16.852,37.637-37.637
				C92.847,108.595,81.438,94.167,65.822,89.585z" style="fill:#6E6E96;"></path>
		</g>
	</g>
</g>
<g style="display:none;" id="Layer_5">
	<g style="display:inline;">
		<g>
			<path d="M113.474,75.247c0,1.898-1.554,3.453-3.453,3.453H36.586c-1.899,0-3.453-1.554-3.453-3.453V24.833
				c0-1.898,1.554-3.453,3.453-3.453h73.435c1.899,0,3.453,1.554,3.453,3.453V75.247z" style="fill:#E6EEFF;"></path>
			<path d="M113.474,75.247c0,1.898-1.554,3.453-3.453,3.453H36.586
				c-1.899,0-3.453-1.554-3.453-3.453V24.833c0-1.898,1.554-3.453,3.453-3.453h73.435c1.899,0,3.453,1.554,3.453,3.453V75.247z" style="fill:none;stroke:#CCCCDE;stroke-width:3;"></path>
		</g>
		<g>
			<rect height="13.456" width="80.326" style="fill:#D8D8F0;stroke:#CCCCDE;stroke-width:3;" y="32.127" x="33.133"></rect>
		</g>
		<rect height="11.036" width="68.663" style="fill:#FFE7D1;" y="56.03" x="39.105"></rect>
		<g>
			<polygon points="39.105,67.066 50.14,56.03 54.187,56.03 43.151,67.066" style="fill:#FFFFFF;"></polygon>
			<polygon points="49.822,67.066 60.856,56.03 64.902,56.03 53.868,67.066" style="fill:#FFFFFF;"></polygon>
			<polygon points="60.538,67.066 71.574,56.03 75.62,56.03 64.584,67.066" style="fill:#FFFFFF;"></polygon>
			<polygon points="71.254,67.066 82.289,56.03 86.335,56.03 75.3,67.066" style="fill:#FFFFFF;"></polygon>
			<polygon points="81.971,67.066 93.005,56.03 97.052,56.03 86.017,67.066" style="fill:#FFFFFF;"></polygon>
			<polygon points="92.688,67.066 103.722,56.03 107.768,56.03 96.733,67.066" style="fill:#FFFFFF;"></polygon>
		</g>
	</g>
	<g style="display:inline;">
		<path d="M159.443,20.168c0.723-2.219,2.992-4.945,5.045-6.057l0.009-0.005c2.052-1.112,2.052-2.931,0-4.043
			l-0.009-0.005c-2.053-1.112-4.438-3.617-5.301-5.567c-0.862-1.95-2.274-1.95-3.14,0c-0.86,1.951-3.248,4.456-5.3,5.567
			l-0.009,0.005c-2.054,1.112-2.054,2.931,0,4.043l0.009,0.005c2.052,1.112,4.32,3.838,5.045,6.057l0.512,1.567
			c0.723,2.22,1.903,2.22,2.627,0L159.443,20.168z" style="fill:#7FE5FF;"></path>
	</g>
	<g style="display:inline;">
		<path d="M13.748,114.131c0.615-1.887,2.546-4.207,4.292-5.152l0.007-0.004c1.746-0.946,1.746-2.494,0-3.439
			l-0.007-0.004c-1.746-0.946-3.775-3.077-4.508-4.737c-0.734-1.659-1.936-1.659-2.67,0c-0.733,1.66-2.763,3.791-4.509,4.737
			l-0.007,0.004c-1.746,0.945-1.746,2.493,0,3.439l0.007,0.004c1.746,0.945,3.677,3.265,4.292,5.152l0.435,1.333
			c0.615,1.889,1.621,1.889,2.235,0L13.748,114.131z" style="fill:#9ADFC0;"></path>
	</g>
	<g style="display:inline;">
		<path d="M246.137,151.816c1.022-3.143,4.236-7,7.143-8.574l0.013-0.006c2.906-1.576,2.906-4.152,0-5.726
			l-0.013-0.009c-2.904-1.573-6.282-5.121-7.504-7.883c-1.223-2.761-3.223-2.761-4.442,0c-1.222,2.762-4.601,6.31-7.504,7.883
			l-0.013,0.009c-2.905,1.571-2.905,4.147,0,5.726l0.013,0.006c2.903,1.574,6.119,5.434,7.144,8.574l0.723,2.221
			c1.022,3.143,2.697,3.143,3.722,0L246.137,151.816z" style="fill:#FFB0B8;"></path>
	</g>
	<g style="display:inline;">
		<polygon points="188.75,183.4 188.75,223.793 231.794,223.793 
			241.254,194.01 241.254,183.4 210.373,183.4 216.902,158.921 209.966,151.984" style="fill:#FFFFFF;stroke:#CCCCDE;stroke-width:3;"></polygon>
		<rect height="40.393" width="22.236" style="fill:#CFE4FF;stroke:#CCCCDE;stroke-width:3;" y="183.4" x="166.514"></rect>
	</g>
	<g style="display:inline;">
		<path d="M68.079,191.059v-25.332v-42.746c0-1.743-1.424-3.167-3.166-3.167
			H3.168c-1.741,0-3.167,1.424-3.167,3.167v42.746c0,1.742,1.425,3.168,3.167,3.168h42.43L68.079,191.059z" style="fill:#DFFFFD;stroke:#CCCCDE;stroke-width:3;"></path>
		<g style="opacity:0.55;">
			<rect height="3.166" width="43.38" style="fill:#CCCCDE;" y="134.695" x="12.351"></rect>
		</g>
		<g style="opacity:0.55;">
			<rect height="3.168" width="25.964" style="fill:#CCCCDE;" y="143.244" x="29.767"></rect>
		</g>
		<g style="opacity:0.55;">
			<rect height="3.166" width="31.981" style="fill:#CCCCDE;" y="151.479" x="23.75"></rect>
		</g>
	</g>
	<g style="display:inline;">
		<path d="M175.914,67.537l0.566-2.112
			C176.314,66.126,176.124,66.831,175.914,67.537z" style="opacity:0.25;fill:#997070;enable-background:new    ;"></path>
		<polygon points="160.395,52.059 182.928,68.431 174.32,94.923 196.855,78.55 219.391,94.923 210.468,68.431 233.318,52.059 205.148,52.059 
			196.855,25.567 188.248,52.059" style="fill:#FFEEA1;stroke:#CCCCDE;stroke-width:3;stroke-linecap:round;stroke-linejoin:round;"></polygon>
		<polygon points="183.82,70.774 186.27,64.115 165.229,53.63" style="opacity:0.15;fill:#6E6E96;enable-background:new    ;"></polygon>
		<polygon points="177.311,90.809 196.562,71.558 216.331,90.756 
			196.855,78.55" style="opacity:0.15;fill:#6E6E96;enable-background:new    ;"></polygon>
		<polygon points="228.427,53.63 209.825,61.368 211.3,65.903" style="opacity:0.15;fill:#6E6E96;enable-background:new    ;"></polygon>
		<polygon points="165.229,53.63 191.984,57.259 196.828,30.737 
			188.843,52.859" style="opacity:0.59;fill:#FFFFFF;enable-background:new    ;"></polygon>
	</g>
</g>
<g id="Layer_10">
</g>
<g id="Layer_11">
</g>
<g style="display:none;" id="Layer_3_3_">
	<g style="display:inline;">
		<path d="M149.68,63.022c0-6.961-10.553-12.896-10.553-24.376
			c0-10.757,8.721-19.479,19.479-19.479c10.759,0,19.479,8.721,19.479,19.479c0,11.223-10.75,14.451-10.888,23.937" style="fill:#FFF8BD;stroke:#CCCCDE;"></path>
		<path d="M167.154,61.849c0,0,0,3.213,0,5.877c0,4.928-4.924,6.911-8.473,6.911l0,0
			c-3.546,0-9.143-1.81-9.143-6.911c0-2.664,0-5.877,0-5.877" style="fill:#F0F0FF;"></path>
		<path d="M149.557,61.533c0-6.961-10.412-11.723-10.412-23.204
			c0-10.757,8.723-19.479,19.479-19.479c10.758,0,19.479,8.721,19.479,19.479c0,11.223-10.808,14.036-10.945,23.52" style="fill:none;stroke:#CCCCDE;stroke-width:3;"></path>
		<path d="M167.172,61.533c0,0,0,3.212,0,5.877c0,4.929-4.923,6.909-8.471,6.909
			l0,0c-3.549,0-9.145-1.808-9.145-6.909c0-2.665,0-5.877,0-5.877" style="fill:none;stroke:#CCCCDE;stroke-width:3;"></path>
		<line y2="61.517" x2="167.172" y1="61.517" x1="149.529" style="fill:none;stroke:#CCCCDE;stroke-width:3;"></line>
		<line y2="2.004" x2="158.622" y1="10.469" x1="158.622" style="fill:none;stroke:#CCCCDE;stroke-width:3;"></line>
		<line y2="6.779" x2="140.802" y1="14.109" x1="145.034" style="fill:none;stroke:#CCCCDE;stroke-width:3;"></line>
		<line y2="19.825" x2="127.756" y1="24.057" x1="135.088" style="fill:none;stroke:#CCCCDE;stroke-width:3;"></line>
		<line y2="37.645" x2="122.982" y1="37.645" x1="131.445" style="fill:none;stroke:#CCCCDE;stroke-width:3;"></line>
		<line y2="55.466" x2="127.758" y1="51.233" x1="135.088" style="fill:none;stroke:#CCCCDE;stroke-width:3;"></line>
		<line y2="55.466" x2="189.488" y1="51.233" x1="182.158" style="fill:none;stroke:#CCCCDE;stroke-width:3;"></line>
		<line y2="37.645" x2="194.266" y1="37.645" x1="185.8" style="fill:none;stroke:#CCCCDE;stroke-width:3;"></line>
		<line y2="19.825" x2="189.488" y1="24.057" x1="182.158" style="fill:none;stroke:#CCCCDE;stroke-width:3;"></line>
		<line y2="6.778" x2="176.441" y1="14.109" x1="172.21" style="fill:none;stroke:#CCCCDE;stroke-width:3;"></line>
	</g>
	<g style="display:inline;">
		<path d="M20.565,51.029c-1.744,1.969-1.749,5.27-0.01,7.336l17.614,20.926
			c1.739,2.065,4.653,2.126,6.476,0.133l37.154-40.626c1.823-1.993,1.934-4.82,0.245-6.284c-1.688-1.463-4.799-1.285-6.916,0.393
			L45.179,56.673c-2.116,1.679-5.66,1.788-7.874,0.241l-9.541-6.655C25.548,48.713,22.31,49.06,20.565,51.029z" style="fill:#DFFFD9;"></path>
		<path d="M20.565,51.029c-1.744,1.969-1.749,5.27-0.01,7.336l17.614,20.926
			c1.739,2.065,4.653,2.126,6.476,0.133l37.154-40.626c1.823-1.993,1.934-4.82,0.245-6.284c-1.688-1.463-4.799-1.285-6.916,0.393
			L45.179,56.673c-2.116,1.679-5.66,1.788-7.874,0.241l-9.541-6.655C25.548,48.713,22.31,49.06,20.565,51.029z" style="fill:none;stroke:#CCCCDE;stroke-width:3;"></path>
	</g>
</g>
<g style="display:none;" id="Layer_2_1_">
	<circle r="73.213" cy="132.114" cx="123.671" style="display:inline;fill:#E0ECFF;"></circle>
	<circle r="61.155" cy="132.03" cx="123.755" style="display:inline;fill:#F2FAFF;"></circle>
	
		<line y2="92.822" x2="101.235" y1="85.229" x1="96.852" style="display:inline;fill:none;stroke:#6E6E96;stroke-width:3;stroke-linecap:round;stroke-linejoin:round;"></line>
	
		<line y2="109.362" x2="84.695" y1="104.979" x1="77.104" style="display:inline;fill:none;stroke:#6E6E96;stroke-width:3;stroke-linecap:round;stroke-linejoin:round;"></line>
	
		<line y2="154.549" x2="84.695" y1="158.934" x1="77.104" style="display:inline;fill:none;stroke:#6E6E96;stroke-width:3;stroke-linecap:round;stroke-linejoin:round;"></line>
	
		<line y2="171.089" x2="101.235" y1="178.684" x1="96.854" style="display:inline;fill:none;stroke:#6E6E96;stroke-width:3;stroke-linecap:round;stroke-linejoin:round;"></line>
	
		<line y2="171.089" x2="146.424" y1="178.682" x1="150.809" style="display:inline;fill:none;stroke:#6E6E96;stroke-width:3;stroke-linecap:round;stroke-linejoin:round;"></line>
	
		<line y2="154.549" x2="162.966" y1="158.932" x1="170.557" style="display:inline;fill:none;stroke:#6E6E96;stroke-width:3;stroke-linecap:round;stroke-linejoin:round;"></line>
	
		<line y2="109.361" x2="162.965" y1="104.977" x1="170.555" style="display:inline;fill:none;stroke:#6E6E96;stroke-width:3;stroke-linecap:round;stroke-linejoin:round;"></line>
	
		<line y2="92.821" x2="146.423" y1="85.229" x1="150.807" style="display:inline;fill:none;stroke:#6E6E96;stroke-width:3;stroke-linecap:round;stroke-linejoin:round;"></line>
	<g style="display:inline;opacity:0.39;">
		
			<line y2="80.629" x2="123.829" y1="78" x1="123.829" style="fill:none;stroke:#6E6E96;stroke-width:3;stroke-linecap:round;stroke-linejoin:round;"></line>
		
			<line y2="81.408" x2="114.917" y1="78.82" x1="114.46" style="fill:none;stroke:#6E6E96;stroke-width:3;stroke-linecap:round;stroke-linejoin:round;"></line>
		
			<line y2="83.724" x2="106.274" y1="81.254" x1="105.376" style="fill:none;stroke:#6E6E96;stroke-width:3;stroke-linecap:round;stroke-linejoin:round;"></line>
		
			<line y2="87.505" x2="98.166" y1="85.229" x1="96.853" style="fill:none;stroke:#6E6E96;stroke-width:3;stroke-linecap:round;stroke-linejoin:round;"></line>
		
			<line y2="92.638" x2="90.837" y1="90.625" x1="89.148" style="fill:none;stroke:#6E6E96;stroke-width:3;stroke-linecap:round;stroke-linejoin:round;"></line>
		
			<line y2="98.964" x2="84.51" y1="97.274" x1="82.499" style="fill:none;stroke:#6E6E96;stroke-width:3;stroke-linecap:round;stroke-linejoin:round;"></line>
		
			<line y2="106.292" x2="79.378" y1="104.978" x1="77.104" style="fill:none;stroke:#6E6E96;stroke-width:3;stroke-linecap:round;stroke-linejoin:round;"></line>
		
			<line y2="114.402" x2="75.598" y1="113.501" x1="73.129" style="fill:none;stroke:#6E6E96;stroke-width:3;stroke-linecap:round;stroke-linejoin:round;"></line>
		
			<line y2="123.044" x2="73.282" y1="122.586" x1="70.695" style="fill:none;stroke:#6E6E96;stroke-width:3;stroke-linecap:round;stroke-linejoin:round;"></line>
		
			<line y2="131.956" x2="72.502" y1="131.955" x1="69.875" style="fill:none;stroke:#6E6E96;stroke-width:3;stroke-linecap:round;stroke-linejoin:round;"></line>
		
			<line y2="140.869" x2="73.283" y1="141.325" x1="70.695" style="fill:none;stroke:#6E6E96;stroke-width:3;stroke-linecap:round;stroke-linejoin:round;"></line>
		
			<line y2="149.512" x2="75.599" y1="150.409" x1="73.129" style="fill:none;stroke:#6E6E96;stroke-width:3;stroke-linecap:round;stroke-linejoin:round;"></line>
		
			<line y2="157.619" x2="79.38" y1="158.934" x1="77.104" style="fill:none;stroke:#6E6E96;stroke-width:3;stroke-linecap:round;stroke-linejoin:round;"></line>
		
			<line y2="164.947" x2="84.512" y1="166.637" x1="82.499" style="fill:none;stroke:#6E6E96;stroke-width:3;stroke-linecap:round;stroke-linejoin:round;"></line>
		
			<line y2="171.273" x2="90.838" y1="173.288" x1="89.148" style="fill:none;stroke:#6E6E96;stroke-width:3;stroke-linecap:round;stroke-linejoin:round;"></line>
		
			<line y2="176.406" x2="98.167" y1="178.684" x1="96.853" style="fill:none;stroke:#6E6E96;stroke-width:3;stroke-linecap:round;stroke-linejoin:round;"></line>
		
			<line y2="180.188" x2="106.276" y1="182.656" x1="105.376" style="fill:none;stroke:#6E6E96;stroke-width:3;stroke-linecap:round;stroke-linejoin:round;"></line>
		
			<line y2="182.503" x2="114.918" y1="185.092" x1="114.461" style="fill:none;stroke:#6E6E96;stroke-width:3;stroke-linecap:round;stroke-linejoin:round;"></line>
		
			<line y2="183.283" x2="123.83" y1="185.91" x1="123.83" style="fill:none;stroke:#6E6E96;stroke-width:3;stroke-linecap:round;stroke-linejoin:round;"></line>
		
			<line y2="182.503" x2="132.743" y1="185.092" x1="133.199" style="fill:none;stroke:#6E6E96;stroke-width:3;stroke-linecap:round;stroke-linejoin:round;"></line>
		
			<line y2="180.186" x2="141.387" y1="182.656" x1="142.284" style="fill:none;stroke:#6E6E96;stroke-width:3;stroke-linecap:round;stroke-linejoin:round;"></line>
		
			<line y2="176.404" x2="149.494" y1="178.684" x1="150.809" style="fill:none;stroke:#6E6E96;stroke-width:3;stroke-linecap:round;stroke-linejoin:round;"></line>
		
			<line y2="171.273" x2="156.822" y1="173.288" x1="158.514" style="fill:none;stroke:#6E6E96;stroke-width:3;stroke-linecap:round;stroke-linejoin:round;"></line>
		
			<line y2="164.945" x2="163.146" y1="166.637" x1="165.163" style="fill:none;stroke:#6E6E96;stroke-width:3;stroke-linecap:round;stroke-linejoin:round;"></line>
		
			<line y2="157.618" x2="168.279" y1="158.934" x1="170.557" style="fill:none;stroke:#6E6E96;stroke-width:3;stroke-linecap:round;stroke-linejoin:round;"></line>
		
			<line y2="149.51" x2="172.062" y1="150.409" x1="174.529" style="fill:none;stroke:#6E6E96;stroke-width:3;stroke-linecap:round;stroke-linejoin:round;"></line>
		
			<line y2="140.865" x2="174.376" y1="141.325" x1="176.965" style="fill:none;stroke:#6E6E96;stroke-width:3;stroke-linecap:round;stroke-linejoin:round;"></line>
		
			<line y2="131.954" x2="175.154" y1="131.955" x1="177.784" style="fill:none;stroke:#6E6E96;stroke-width:3;stroke-linecap:round;stroke-linejoin:round;"></line>
		
			<line y2="123.042" x2="174.375" y1="122.586" x1="176.965" style="fill:none;stroke:#6E6E96;stroke-width:3;stroke-linecap:round;stroke-linejoin:round;"></line>
		
			<line y2="114.401" x2="172.061" y1="113.501" x1="174.529" style="fill:none;stroke:#6E6E96;stroke-width:3;stroke-linecap:round;stroke-linejoin:round;"></line>
		
			<line y2="106.292" x2="168.277" y1="104.978" x1="170.557" style="fill:none;stroke:#6E6E96;stroke-width:3;stroke-linecap:round;stroke-linejoin:round;"></line>
		
			<line y2="98.964" x2="163.146" y1="97.274" x1="165.163" style="fill:none;stroke:#6E6E96;stroke-width:3;stroke-linecap:round;stroke-linejoin:round;"></line>
		
			<line y2="92.639" x2="156.82" y1="90.624" x1="158.514" style="fill:none;stroke:#6E6E96;stroke-width:3;stroke-linecap:round;stroke-linejoin:round;"></line>
		
			<line y2="87.507" x2="149.491" y1="85.229" x1="150.809" style="fill:none;stroke:#6E6E96;stroke-width:3;stroke-linecap:round;stroke-linejoin:round;"></line>
		
			<line y2="83.726" x2="141.383" y1="81.254" x1="142.284" style="fill:none;stroke:#6E6E96;stroke-width:3;stroke-linecap:round;stroke-linejoin:round;"></line>
		
			<line y2="81.41" x2="132.741" y1="78.82" x1="133.199" style="fill:none;stroke:#6E6E96;stroke-width:3;stroke-linecap:round;stroke-linejoin:round;"></line>
	</g>
	
		<line y2="86.768" x2="123.829" y1="78" x1="123.829" style="display:inline;fill:none;stroke:#FF9FB0;stroke-width:3;stroke-linecap:round;stroke-linejoin:round;"></line>
	
		<line y2="131.955" x2="78.642" y1="131.956" x1="69.875" style="display:inline;fill:none;stroke:#FF9FB0;stroke-width:3;stroke-linecap:round;stroke-linejoin:round;"></line>
	
		<line y2="177.145" x2="123.829" y1="185.91" x1="123.831" style="display:inline;fill:none;stroke:#FF9FB0;stroke-width:3;stroke-linecap:round;stroke-linejoin:round;"></line>
	
		<line y2="131.954" x2="169.02" y1="131.953" x1="177.783" style="display:inline;fill:none;stroke:#FF9FB0;stroke-width:3;stroke-linecap:round;stroke-linejoin:round;"></line>
	<polyline points="144.8,111.131 123.755,132.029 150.587,158.861" style="display:inline;fill:none;stroke:#6E6E96;stroke-width:3;stroke-linecap:round;stroke-linejoin:round;"></polyline>
	
		<line y2="151.391" x2="90.458" y1="132.029" x1="123.755" style="display:inline;fill:none;stroke:#FF9FB0;stroke-linecap:round;stroke-linejoin:round;"></line>
	
		<circle r="4.095" cy="132.124" cx="123.711" style="display:inline;fill:#F0F0FF;stroke:#6E6E96;stroke-width:3;stroke-linecap:round;stroke-linejoin:round;"></circle>
	<path d="M54.03,143.293
		c-4.725-38.847,22.938-74.168,61.787-78.893c38.847-4.723,74.169,22.938,78.894,61.785c0.626,5.135,0.668,10.208,0.21,15.154
		c0.938-6.291,1.076-12.808,0.271-19.427c-4.812-39.591-40.812-67.784-80.404-62.969c-39.594,4.815-67.785,40.813-62.97,80.405
		c1.345,11.058,5.125,21.226,10.733,30.03C58.159,161.55,55.181,152.757,54.03,143.293z" style="display:inline;opacity:0.58;fill:#FFFFFF;enable-background:new    ;"></path>
	<circle r="73.213" cy="132.114" cx="123.671" style="display:inline;fill:none;stroke:#6E6E96;stroke-width:3;"></circle>
	<circle r="61.155" cy="132.03" cx="123.755" style="display:inline;fill:none;stroke:#6E6E96;stroke-width:3;"></circle>
	<path d="M188.691,102.172
		c3.412,8.301,5.307,17.388,5.307,26.919c0,39.136-31.725,70.858-70.859,70.858s-70.858-31.725-70.858-70.858
		c0-5.171,0.568-10.208,1.621-15.065c-1.693,6.131-2.615,12.581-2.615,19.251c0,39.883,32.332,72.215,72.216,72.215
		c39.886,0,72.216-32.332,72.216-72.215C195.719,122.139,193.193,111.593,188.691,102.172z" style="display:inline;opacity:0.15;fill:#6E6E96;enable-background:new    ;"></path>
	<path d="M163.564,93.552
		c-10.146-10.339-24.27-16.759-39.898-16.759c-30.875,0-55.905,25.03-55.905,55.906c0,10.729,3.028,20.751,8.271,29.263
		L163.564,93.552z" style="display:inline;opacity:0.54;fill:#FFFFFF;enable-background:new    ;"></path>
	<g style="display:inline;opacity:0.1;">
		<g>
			<path d="M139.875,72.35c22.191,8.236,38.008,29.597,38.008,54.656c0,32.188-26.094,58.284-58.283,58.284
				c-30.766,0-55.946-23.843-58.115-54.056c0.114,33.677,27.445,60.944,61.149,60.944c33.775,0,61.155-27.382,61.155-61.153
				C183.789,103.238,165.252,79.795,139.875,72.35z" style="fill:#6E6E96;"></path>
		</g>
	</g>
</g>
<g id="Layer_12">
</g>
<g id="Layer_6">
	<rect height="100.156" width="131.913" style="fill:#F5D8BD;" y="102.322" x="60.622"></rect>
	<polygon points="179.507,71.381 73.651,71.381 60.622,102.322 192.535,102.322" style="fill:#FFEBC5;"></polygon>
	<rect height="8.008" width="131.913" style="opacity:0.15;fill:#6E6E96;enable-background:new    ;" y="194.473" x="60.622"></rect>
	<rect height="3.934" width="131.913" style="opacity:0.4;fill:#FFFFFF;enable-background:new    ;" y="102.322" x="60.622"></rect>
	<path d="M192.535,203.979H60.622c-0.829,0-1.5-0.672-1.5-1.5V102.322c0-0.829,0.671-1.5,1.5-1.5h131.913
		c0.828,0,1.5,0.671,1.5,1.5v100.156C194.035,203.307,193.363,203.979,192.535,203.979z M62.122,200.979h128.913v-97.156H62.122
		V200.979z" style="fill:#6E6E96;"></path>
	<path d="M192.535,103.822H60.622c-0.502,0-0.972-0.251-1.25-0.67c-0.278-0.418-0.328-0.949-0.133-1.412
		l13.029-30.941c0.234-0.556,0.779-0.918,1.382-0.918h105.856c0.604,0,1.148,0.362,1.383,0.918l13.028,30.941
		c0.194,0.463,0.145,0.993-0.133,1.412C193.507,103.571,193.038,103.822,192.535,103.822z M62.881,100.822h127.395l-11.766-27.941
		H74.647L62.881,100.822z" style="fill:#6E6E96;"></path>
	<g>
		<polygon points="73.651,71.381 48.516,58.194 31.417,82.398 60.622,102.322" style="fill:#FFEBC5;"></polygon>
		<path d="M60.622,103.822c-0.298,0-0.593-0.089-0.845-0.261L30.572,83.637
			c-0.333-0.227-0.56-0.577-0.631-0.973c-0.071-0.396,0.019-0.804,0.251-1.132l17.099-24.204c0.434-0.614,1.256-0.812,1.922-0.462
			l25.135,13.187c0.69,0.362,0.988,1.192,0.686,1.91l-13.029,30.941c-0.175,0.415-0.526,0.729-0.958,0.857
			C60.907,103.802,60.764,103.822,60.622,103.822z M33.522,82.018l26.43,18.031l11.782-27.98l-22.75-11.936L33.522,82.018z" style="fill:#6E6E96;"></path>
	</g>
	<g>
		<polygon points="204.309,57.354 219.471,85.168 192.535,102.322 179.507,71.381" style="fill:#FFEBC5;"></polygon>
		<path d="M192.535,103.822c-0.15,0-0.301-0.022-0.447-0.068c-0.422-0.131-0.764-0.442-0.936-0.85
			l-13.028-30.941c-0.295-0.702-0.019-1.513,0.645-1.888l24.802-14.027c0.351-0.198,0.767-0.247,1.15-0.137
			c0.387,0.111,0.713,0.372,0.905,0.725l15.162,27.814c0.377,0.692,0.153,1.559-0.512,1.983l-26.936,17.154
			C193.098,103.743,192.817,103.822,192.535,103.822z M181.407,72.029l11.821,28.073l24.255-15.447L203.721,59.41L181.407,72.029z" style="fill:#6E6E96;"></path>
	</g>
	<g>
		<polygon points="60.622,102.322 54.34,123.184 200.213,123.184 192.535,102.322" style="fill:#FFEBC5;"></polygon>
		<path d="M200.213,124.684H54.34c-0.475,0-0.921-0.225-1.204-0.605c-0.283-0.38-0.369-0.873-0.232-1.327
			l6.282-20.862c0.191-0.634,0.775-1.067,1.437-1.067h131.913c0.629,0,1.19,0.392,1.407,0.982l7.678,20.862
			c0.17,0.46,0.104,0.974-0.177,1.376C201.163,124.444,200.703,124.684,200.213,124.684z M56.358,121.684h141.705l-6.573-17.862
			H61.737L56.358,121.684z" style="fill:#6E6E96;"></path>
	</g>
	<g>
		<polygon points="73.651,71.381 79.009,61.262 172.229,61.262 180.502,71.381" style="fill:#FFEBC5;"></polygon>
		<path d="M180.521,72.881c-0.005,0-0.013,0-0.02,0H73.651c-0.526,0-1.014-0.275-1.285-0.727
			c-0.271-0.451-0.287-1.01-0.041-1.476l5.358-10.119c0.26-0.491,0.77-0.798,1.326-0.798h93.22c0.45,0,0.876,0.202,1.161,0.551
			l8.146,9.962c0.299,0.274,0.486,0.668,0.486,1.106C182.021,72.209,181.351,72.881,180.521,72.881z M76.143,69.881h101.195
			l-5.82-7.119H79.912L76.143,69.881z" style="fill:#6E6E96;"></path>
	</g>
	<g>
		<g>
			<path d="M106.696,157.34c-1.329,1.499-1.332,4.016-0.007,5.589l13.423,15.947
				c1.326,1.576,3.546,1.622,4.934,0.104l28.315-30.963c1.389-1.519,1.476-3.675,0.188-4.787c-1.286-1.114-3.657-0.981-5.271,0.298
				l-22.825,18.11c-1.612,1.278-4.314,1.361-6,0.186l-7.271-5.073C110.493,155.573,108.023,155.843,106.696,157.34z" style="fill:#80FFB3;"></path>
			<path d="M122.621,181.589c-1.39,0-2.723-0.637-3.657-1.747l-13.422-15.947
				c-1.819-2.16-1.806-5.477,0.032-7.55c1.03-1.162,2.564-1.828,4.208-1.828c1.19,0,2.317,0.347,3.259,1.004l7.272,5.073
				c1.096,0.765,3.16,0.701,4.209-0.131l22.825-18.109c1.105-0.877,2.544-1.379,3.946-1.379c1.254,0,2.403,0.398,3.239,1.122
				c0.847,0.732,1.352,1.784,1.421,2.962c0.083,1.401-0.459,2.849-1.484,3.972l-28.316,30.963
				C125.211,181.022,123.957,181.589,122.621,181.589z M109.782,157.517c-0.775,0-1.509,0.306-1.963,0.818
				c-0.83,0.936-0.821,2.631,0.018,3.628l13.423,15.947c0.719,0.853,1.928,0.88,2.68,0.058l28.316-30.963
				c0.475-0.52,0.738-1.182,0.704-1.771c-0.016-0.256-0.095-0.614-0.39-0.869c-0.287-0.249-0.752-0.391-1.276-0.391
				c-0.738,0-1.497,0.266-2.082,0.729l-22.825,18.109c-1.09,0.865-2.541,1.341-4.083,1.341c-1.374,0-2.69-0.391-3.707-1.1
				l-7.271-5.073C110.895,157.682,110.347,157.517,109.782,157.517z" style="fill:#6E6E96;"></path>
		</g>
		<path d="M149.136,147.463l-23.882,26.11
			c-1.388,1.52-3.609,1.473-4.935-0.101l-13.623-16.134c-0.934,0.136-3.174,1.906-2.052,4.364c0.832,1.824,0.927,4.017,2.253,5.591
			l13.422,15.947c1.326,1.573,3.546,1.62,4.935,0.101l28.314-30.959c1.39-1.52,1.266-8.041-0.02-9.152
			C152.427,142.257,153.548,143.23,149.136,147.463z" style="opacity:0.15;fill:#6E6E96;enable-background:new    ;"></path>
	</g>
	<rect height="4.914" width="131.795" style="opacity:0.15;fill:#6E6E96;enable-background:new    ;" y="123.778" x="60.741"></rect>
	<polygon points="70.577,78.682 182.58,78.682 179.507,71.381 
		73.651,71.381" style="opacity:0.15;fill:#6E6E96;enable-background:new    ;"></polygon>
	<polygon points="69.324,69.11 54.876,98.402 60.622,102.322 
		73.651,71.381" style="opacity:0.15;fill:#6E6E96;enable-background:new    ;"></polygon>
	<polygon points="180.502,71.381 192.535,102.322 197.643,99.07 
		184.386,68.62" style="opacity:0.15;fill:#6E6E96;enable-background:new    ;"></polygon>
	<polygon points="75.969,67.004 176.127,67.004 179.507,71.381 
		73.651,71.381" style="opacity:0.15;fill:#6E6E96;enable-background:new    ;"></polygon>
	<g>
		<polygon points="179.076,102.322 73.057,102.322 85.112,71.469 167.17,71.469" style="fill:#C5FFEA;"></polygon>
		<path d="M179.096,103.822c-0.004,0.001-0.012,0-0.02,0H73.057c-0.496,0-0.959-0.245-1.239-0.654
			c-0.279-0.409-0.339-0.93-0.158-1.392l12.055-30.854c0.225-0.575,0.779-0.954,1.397-0.954h82.058c0.62,0,1.176,0.381,1.399,0.96
			l11.823,30.639c0.13,0.222,0.203,0.479,0.203,0.755C180.596,103.151,179.925,103.822,179.096,103.822z M75.253,100.822H176.89
			l-10.749-27.854H86.136L75.253,100.822z" style="fill:#6E6E96;"></path>
	</g>
	<g>
		<polygon points="183.01,82.305 69.762,82.305 82.639,49.348 170.292,49.348" style="fill:#C5EEFF;"></polygon>
		<path d="M183.029,83.805c-0.005,0-0.012,0.001-0.02,0H69.762c-0.496,0-0.959-0.245-1.239-0.654
			c-0.279-0.409-0.339-0.93-0.158-1.392l12.877-32.957c0.225-0.575,0.779-0.954,1.397-0.954h87.653c0.62,0,1.176,0.381,1.399,0.96
			l12.635,32.742c0.13,0.222,0.203,0.479,0.203,0.755C184.529,83.134,183.858,83.805,183.029,83.805z M71.958,80.805h108.865
			l-11.561-29.957H83.664L71.958,80.805z" style="fill:#6E6E96;"></path>
	</g>
	<g>
		<rect height="20.073" width="113.248" style="fill:#ADCBE0;" y="82.305" x="69.762"></rect>
		<path d="M183.01,103.878H69.762c-0.829,0-1.5-0.671-1.5-1.5V82.305c0-0.829,0.671-1.5,1.5-1.5H183.01
			c0.828,0,1.5,0.671,1.5,1.5v20.073C184.51,103.207,183.838,103.878,183.01,103.878z M71.262,100.878H181.51V83.805H71.262V100.878
			z" style="fill:#6E6E96;"></path>
	</g>
	<rect height="5.392" width="128.699" style="opacity:0.2;fill:#6E6E96;enable-background:new    ;" y="96.986" x="61.541"></rect>
</g>
<g id="Layer_7">
</g>
<g id="Layer_8">
</g>
<g id="Layer_9">
</g>
</svg>
