<svg height="729" node-id="1" sillyvg="true" template-height="729" template-width="1240"
  version="1.1" viewBox="0 0 1240 729" width="1240" xmlns="http://www.w3.org/2000/svg"
  xmlns:xlink="http://www.w3.org/1999/xlink">
  <defs node-id="127"></defs>
  <g node-id="129">
    <g node-id="130">
      <path d="M 331.55 520.95 L 475.38 520.95 L 475.38 377.07 L 331.55 377.07 Z" fill="#e5f5ff"
        fill-rule="evenodd" group-id="1,2" id="Fill-1" node-id="7" stroke="none"
        target-height="143.88" target-width="143.83002" target-x="331.55" target-y="377.07"></path>
      <path d="M 394.38 590.09 L 252.31 590.09 L 252.31 310.62 L 394.38 218.37 Z" fill="#f1faff"
        fill-rule="evenodd" group-id="1,2" id="Fill-2" node-id="8" stroke="none"
        target-height="371.72003" target-width="142.07" target-x="252.31" target-y="218.37"></path>
      <path d="M 432.31 562.89 L 459.69 562.89 L 459.69 175.30 L 432.31 175.30 Z" fill="#e5f5ff"
        fill-rule="evenodd" group-id="1,2" id="Fill-3" node-id="9" stroke="none"
        target-height="387.59003" target-width="27.380005" target-x="432.31" target-y="175.3"></path>
      <path d="M 459.69 562.89 L 535.20 562.89 L 535.20 175.30 L 459.69 175.30 Z" fill="#f1faff"
        fill-rule="evenodd" group-id="1,2" id="Fill-4" node-id="10" stroke="none"
        target-height="387.59003" target-width="75.51001" target-x="459.69" target-y="175.3"></path>
      <path d="M 899.12 577.04 L 934.17 577.04 L 934.17 243.90 L 899.12 243.90 Z" fill="#e5f5ff"
        fill-rule="evenodd" group-id="1,2" id="Fill-5" node-id="11" stroke="none"
        target-height="333.13998" target-width="35.049988" target-x="899.12" target-y="243.9"></path>
      <path d="M 934.17 577.04 L 1030.88 577.04 L 1030.88 243.90 L 934.17 243.90 Z" fill="#f1faff"
        fill-rule="evenodd" group-id="1,2" id="Fill-6" node-id="12" stroke="none"
        target-height="333.13998" target-width="96.71002" target-x="934.17" target-y="243.9"></path>
      <path d="M 1056.32 565.90 L 1141.99 565.90 L 1141.99 357.95 L 1056.32 357.95 Z" fill="#f1faff"
        fill-rule="evenodd" group-id="1,2" id="Fill-7" node-id="13" stroke="none"
        target-height="207.95001" target-width="85.670044" target-x="1056.32" target-y="357.95"></path>
      <path d="M 183.84 546.90 L 221.93 546.90 L 221.93 329.52 L 183.84 329.52 Z" fill="#f1faff"
        fill-rule="evenodd" group-id="1,2" id="Fill-8" node-id="14" stroke="none"
        target-height="217.38004" target-width="38.089996" target-x="183.84" target-y="329.52"></path>
      <path d="M 133.98 563.00 L 183.84 563.00 L 183.84 345.62 L 133.98 345.62 Z" fill="#e5f5ff"
        fill-rule="evenodd" group-id="1,2" id="Fill-9" node-id="15" stroke="none"
        target-height="217.38" target-width="49.86" target-x="133.98" target-y="345.62"></path>
      <path d="M 574.78 607.51 L 650.29 607.51 L 650.29 234.28 L 574.78 234.28 Z" fill="#f1faff"
        fill-rule="evenodd" group-id="1,2" id="Fill-10" node-id="16" stroke="none"
        target-height="373.23" target-width="75.50995" target-x="574.78" target-y="234.28"></path>
      <path d="M 575.90 607.51 L 602.84 607.51 L 602.84 234.28 L 575.90 234.28 Z" fill="#e5f5ff"
        fill-rule="evenodd" group-id="1,2" id="Fill-11" node-id="17" stroke="none"
        target-height="373.23" target-width="26.940002" target-x="575.9" target-y="234.28"></path>
      <path d="M 626.08 234.28 L 653.02 234.28 L 653.02 201.37 L 626.08 201.37 Z" fill="#e5f5ff"
        fill-rule="evenodd" group-id="1,2" id="Fill-12" node-id="18" stroke="none"
        target-height="32.910004" target-width="26.940002" target-x="626.08" target-y="201.37"></path>
      <path d="M 667.11 578.18 L 777.89 578.18 L 777.89 291.20 L 667.11 291.20 Z" fill="#f1faff"
        fill-rule="evenodd" group-id="1,2" id="Fill-13" node-id="19" stroke="none"
        target-height="286.97998" target-width="110.78003" target-x="667.11" target-y="291.2"></path>
      <path d="M 650.29 574.61 L 683.93 574.61 L 683.93 201.37 L 650.29 201.37 Z" fill="#f1faff"
        fill-rule="evenodd" group-id="1,2" id="Fill-14" node-id="20" stroke="none"
        target-height="373.24" target-width="33.640015" target-x="650.29" target-y="201.37"></path>
      <path d="M 683.93 606.35 L 710.87 606.35 L 710.87 291.20 L 683.93 291.20 Z" fill="#e5f5ff"
        fill-rule="evenodd" group-id="1,2" id="Fill-15" node-id="21" stroke="none"
        target-height="315.14996" target-width="26.940002" target-x="683.93" target-y="291.2"></path>
      <path d="M 794.68 554.46 L 837.33 554.46 L 837.33 102.07 L 794.68 102.07 Z" fill="#f1faff"
        fill-rule="evenodd" group-id="1,2" id="Fill-16" node-id="22" stroke="none"
        target-height="452.39" target-width="42.650024" target-x="794.68" target-y="102.07"></path>
      <path d="M 761.07 597.13 L 800.22 597.13 L 800.22 144.74 L 761.07 144.74 Z" fill="#f1faff"
        fill-rule="evenodd" group-id="1,2" id="Fill-17" node-id="23" stroke="none"
        target-height="452.39" target-width="39.149963" target-x="761.07" target-y="144.74"></path>
      <path d="M 828.96 588.60 L 868.11 588.60 L 868.11 136.21 L 828.96 136.21 Z" fill="#f1faff"
        fill-rule="evenodd" group-id="1,2" id="Fill-18" node-id="24" stroke="none"
        target-height="452.38995" target-width="39.149963" target-x="828.96" target-y="136.21"></path>
      <path d="M 810.06 483.53 L 820.54 483.53 L 820.54 137.95 L 810.06 137.95 Z" fill="#e5f5ff"
        fill-rule="evenodd" group-id="1,2" id="Fill-19" node-id="25" stroke="none"
        target-height="345.58002" target-width="10.47998" target-x="810.06" target-y="137.95"></path>
      <path d="M 776.82 508.30 L 787.30 508.30 L 787.30 162.72 L 776.82 162.72 Z" fill="#e5f5ff"
        fill-rule="evenodd" group-id="1,2" id="Fill-20" node-id="26" stroke="none"
        target-height="345.58" target-width="10.47998" target-x="776.82" target-y="162.72"></path>
      <path d="M 843.29 508.30 L 853.77 508.30 L 853.77 162.72 L 843.29 162.72 Z" fill="#e5f5ff"
        fill-rule="evenodd" group-id="1,2" id="Fill-21" node-id="27" stroke="none"
        target-height="345.58" target-width="10.4800415" target-x="843.29" target-y="162.72"></path>
      <g node-id="131">
        <path
          d="M 28.38 607.51 L 30.88 603.21 L 38.09 591.53 L 43.13 583.82 L 49.60 574.35 L 56.67 564.50 L 64.98 553.53 L 73.88 542.48 L 83.82 530.95 L 90.75 523.39 L 98.03 515.90 L 105.69 508.48 L 113.58 501.32 L 121.74 494.48 L 130.16 487.97 L 138.87 481.86 L 147.76 476.31 L 156.83 471.31 L 163.84 467.93 L 170.91 464.98 L 178.05 462.46 L 185.27 460.35 L 192.61 458.71 L 200.01 457.60 L 207.49 457.02 L 215.06 456.98 L 227.66 457.71 L 238.75 458.89 L 248.48 460.46 L 258.15 462.55 L 266.73 464.91 L 274.31 467.49 L 281.77 470.49 L 288.51 473.61 L 294.61 476.83 L 303.42 482.04 L 311.42 487.24 L 326.81 497.49 L 331.94 500.65 L 337.27 503.59 L 342.82 506.33 L 348.51 508.71 L 354.73 510.78 L 361.51 512.53 L 368.39 513.76 L 376.17 514.55 L 384.94 514.84 L 391.51 514.60 L 398.20 513.97 L 405.01 512.93 L 411.95 511.47 L 421.07 509.07 L 430.49 506.12 L 440.22 502.60 L 454.76 496.74 L 470.05 490.04 L 501.76 475.57 L 518.31 468.23 L 535.67 460.99 L 547.43 456.43 L 559.56 452.13 L 572.08 448.08 L 584.73 444.47 L 597.80 441.32 L 611.31 438.63 L 621.47 437.02 L 631.91 435.78 L 642.63 434.92 L 653.66 434.44 L 663.48 434.45 L 672.85 434.86 L 681.76 435.65 L 690.26 436.80 L 701.59 438.90 L 712.38 441.50 L 722.66 444.56 L 732.78 448.11 L 742.59 451.98 L 752.09 456.16 L 766.10 462.91 L 779.80 470.01 L 807.05 484.56 L 820.85 491.59 L 835.07 498.24 L 844.73 502.31 L 854.74 506.06 L 865.13 509.47 L 875.66 512.37 L 886.76 514.78 L 898.46 516.68 L 907.22 517.66 L 916.43 518.28 L 926.12 518.50 L 936.31 518.31 L 957.04 517.60 L 977.14 517.29 L 996.63 517.36 L 1016.12 517.93 L 1034.85 519.04 L 1052.85 520.69 L 1066.37 522.38 L 1079.41 524.46 L 1091.99 526.93 L 1104.11 529.77 L 1116.21 533.14 L 1127.80 536.99 L 1138.91 541.31 L 1149.56 546.09 L 1157.91 550.36 L 1165.96 555.00 L 1173.70 560.01 L 1181.14 565.38 L 1188.31 571.14 L 1195.12 577.25 L 1201.64 583.82 L 1207.87 590.85 L 1213.83 598.38 L 1219.51 606.41"
          fill="#e5f5ff" fill-rule="evenodd" group-id="1,2,3" id="Fill-22" node-id="29"
          stroke="none" target-height="173.07" target-width="1191.13" target-x="28.38"
          target-y="434.44"></path>
        <path
          d="M 619.78 604.14 L 166.76 604.92 L 160.33 599.01 L 153.26 591.66 L 146.32 583.70 L 139.18 574.75 L 132.29 565.38 L 125.62 555.52 L 119.34 545.40 L 113.66 535.28 L 110.16 528.41 L 107.09 521.77 L 104.42 515.34 L 102.06 508.79 L 100.27 502.70 L 98.99 497.03 L 98.19 491.28 L 98.04 486.19 L 98.47 481.67 L 99.25 478.34 L 100.43 475.42 L 102.00 472.84 L 103.96 470.56 L 105.51 469.39 L 107.29 468.55 L 109.34 468.04 L 111.72 467.88 L 114.88 468.12 L 118.49 468.81 L 122.61 470.02 L 128.74 472.33 L 135.54 475.37 L 149.42 482.34 L 163.17 489.34 L 169.81 492.42 L 175.69 494.77 L 179.62 496.02 L 183.00 496.74 L 185.88 497.03 L 188.05 496.90 L 189.86 496.43 L 191.38 495.64 L 192.67 494.52 L 193.43 493.25 L 193.87 491.68 L 193.95 489.70 L 193.57 487.20 L 192.66 484.02 L 191.19 480.21 L 189.05 475.67 L 185.41 468.89 L 180.85 461.10 L 170.72 444.66 L 165.46 436.08 L 160.39 427.50 L 155.64 418.91 L 151.61 410.82 L 149.24 405.35 L 147.43 400.35 L 146.12 395.76 L 145.42 392.19 L 145.14 388.99 L 145.23 386.11 L 145.66 383.51 L 146.52 381.03 L 147.83 378.84 L 149.62 376.92 L 151.97 375.23 L 154.24 374.20 L 156.69 373.54 L 159.37 373.24 L 162.31 373.34 L 165.55 373.88 L 169.36 374.94 L 173.52 376.49 L 178.07 378.60 L 183.05 381.34 L 189.33 385.27 L 196.08 389.95 L 203.33 395.46 L 213.99 404.23 L 225.23 414.11 L 236.39 424.43 L 247.61 435.16 L 269.33 456.46 L 289.24 475.89 L 298.44 484.48 L 306.20 491.30 L 311.40 495.49 L 315.64 498.51 L 319.06 500.56 L 321.88 501.82 L 323.96 502.26 L 325.50 502.12 L 326.66 501.54 L 327.92 500.14 L 328.84 498.44 L 329.43 496.38 L 329.66 493.85 L 329.49 490.49 L 328.87 486.54 L 327.72 481.91 L 325.50 474.95 L 322.60 467.09 L 316.07 450.78 L 312.81 442.44 L 309.90 434.37 L 308.17 428.95 L 306.83 423.91 L 305.85 419.23 L 305.25 414.49 L 305.22 410.36 L 305.68 406.75 L 306.45 404.16 L 307.62 401.92 L 309.17 399.99 L 311.16 398.32 L 313.34 397.21 L 315.59 396.63 L 317.96 396.56 L 320.53 397.04 L 323.82 398.29 L 327.44 400.31 L 331.47 403.27 L 335.24 406.55 L 339.26 410.49 L 343.56 415.16 L 349.80 422.52 L 356.38 430.86 L 369.49 448.54 L 382.47 466.34 L 388.88 474.84 L 394.89 482.41 L 400.94 489.42 L 406.33 494.92 L 410.10 498.18 L 413.42 500.48 L 416.36 502.00 L 418.72 502.75 L 420.82 502.93 L 422.75 502.63 L 424.56 501.83 L 426.02 500.50 L 427.03 498.72 L 427.59 496.37 L 427.72 493.88 L 427.55 490.96 L 427.04 487.54 L 425.93 482.37 L 424.47 476.66 L 421.45 465.09 L 420.25 459.36 L 419.56 454.18 L 419.44 450.77 L 419.72 447.82 L 420.36 445.26 L 421.15 443.49 L 422.24 441.99 L 423.65 440.73 L 425.42 439.69 L 428.04 438.89 L 430.72 438.69 L 433.54 439.09 L 436.56 440.16 L 439.35 441.64 L 442.32 443.60 L 445.47 446.13 L 448.84 449.30 L 452.96 453.68 L 457.28 458.77 L 461.83 464.64 L 468.38 473.75 L 475.11 483.73 L 488.26 504.12 L 494.74 514.16 L 500.87 523.35 L 507.01 532.01 L 512.51 538.97 L 516.37 543.25 L 519.77 546.37 L 522.76 548.53 L 525.23 549.77 L 527.41 550.29 L 529.37 550.21 L 531.21 549.57 L 532.79 548.46 L 533.98 547.16 L 534.83 545.67 L 535.67 543.15 L 536.12 540.25 L 536.46 534.11 L 536.71 530.99 L 537.24 528.03 L 537.83 526.15 L 538.69 524.43 L 539.84 522.83 L 541.26 521.48 L 543.16 520.30 L 545.65 519.28 L 547.69 518.93 L 549.89 519.00 L 552.30 519.55 L 554.98 520.64 L 558.29 522.54 L 561.94 525.16 L 565.95 528.62 L 571.69 534.36 L 577.84 541.39 L 583.84 548.93 L 589.91 557.15 L 595.79 565.60 L 601.42 574.07 L 611.62 590.34 L 619.78 604.14"
          fill="#d6eeff" fill-rule="evenodd" group-id="1,2,3" id="Fill-24" node-id="30"
          stroke="none" target-height="231.68" target-width="521.74005" target-x="98.04"
          target-y="373.24"></path>
        <path
          d="M 417.91 24.31 L 507.36 24.31 L 507.36 33.69 L 507.09 36.63 L 506.35 39.33 L 505.16 41.82 L 503.56 44.08 L 501.64 46.00 L 499.38 47.61 L 496.88 48.80 L 494.19 49.53 L 491.25 49.81 L 434.02 49.81 L 431.08 49.53 L 428.39 48.80 L 425.89 47.61 L 423.63 46.00 L 421.71 44.08 L 420.11 41.82 L 418.92 39.33 L 418.18 36.63 L 417.91 33.69 L 417.91 24.31 Z"
          fill="#e5f5ff" fill-rule="evenodd" group-id="1,2,3" id="Fill-26" node-id="31"
          stroke="none" target-height="25.500002" target-width="89.44998" target-x="417.91"
          target-y="24.31"></path>
        <path
          d="M 278.03 505.10 L 278.03 147.65 L 278.33 138.97 L 279.18 130.54 L 280.58 122.32 L 282.51 114.30 L 284.97 106.40 L 287.90 98.78 L 291.29 91.44 L 295.15 84.34 L 299.46 77.49 L 304.16 70.99 L 309.26 64.81 L 314.75 58.95 L 320.61 53.45 L 326.79 48.36 L 333.29 43.65 L 340.13 39.34 L 347.23 35.48 L 354.58 32.09 L 362.19 29.16 L 370.09 26.69 L 378.10 24.76 L 386.32 23.37 L 394.75 22.52 L 403.43 22.21"
          fill="none" group-id="1,2,3" id="Stroke-28" node-id="32" stroke="#cfecff"
          stroke-linecap="butt" stroke-width="12.6" target-height="482.89" target-width="125.399994"
          target-x="278.03" target-y="22.21"></path>
        <path d="M 297.74 606.41 L 258.31 606.41 L 262.47 463.80 L 293.58 463.80 Z" fill="#bce4ff"
          fill-rule="evenodd" group-id="1,2,3" id="Fill-30" node-id="33" stroke="none"
          target-height="142.60999" target-width="39.429993" target-x="258.31" target-y="463.8"></path>
        <path
          d="M 524.47 35.95 L 400.80 35.95 L 400.80 16.82 L 401.08 13.88 L 401.81 11.18 L 403.00 8.68 L 404.60 6.42 L 406.52 4.50 L 408.78 2.90 L 411.28 1.71 L 413.97 0.97 L 416.91 0.70 L 508.35 0.70 L 511.30 0.97 L 513.99 1.71 L 516.49 2.90 L 518.75 4.50 L 520.67 6.42 L 522.27 8.68 L 523.46 11.18 L 524.19 13.88 L 524.47 16.82 L 524.47 35.95 Z"
          fill="#bce4ff" fill-rule="evenodd" group-id="1,2,3" id="Fill-32" node-id="34"
          stroke="none" target-height="35.25" target-width="123.66998" target-x="400.8"
          target-y="0.7"></path>
        <path d="M 950.61 607.51 L 1029.18 607.51 L 1029.18 470.56 L 950.61 470.56 Z" fill="#aad5ff"
          fill-rule="evenodd" group-id="1,2,3" id="Fill-34" node-id="35" stroke="none"
          target-height="136.95001" target-width="78.57007" target-x="950.61" target-y="470.56"></path>
        <path d="M 525.70 490.73 L 1048.57 490.73 L 1048.57 470.56 L 525.70 470.56 Z" fill="#cfecff"
          fill-rule="evenodd" group-id="1,2,3" id="Fill-36" node-id="36" stroke="none"
          target-height="20.170013" target-width="522.86993" target-x="525.7" target-y="470.56"></path>
        <path d="M 953.90 398.32 L 512.23 398.32 L 504.70 357.95 L 946.37 357.95 Z" fill="#cfecff"
          fill-rule="evenodd" group-id="1,2,3" id="Fill-37" node-id="37" stroke="none"
          target-height="40.369995" target-width="449.2" target-x="504.7" target-y="357.95"></path>
        <path d="M 964.40 454.63 L 522.73 454.63 L 515.20 414.25 L 956.88 414.25 Z" fill="#cfecff"
          fill-rule="evenodd" group-id="1,2,3" id="Fill-38" node-id="38" stroke="none"
          target-height="40.380005" target-width="449.2" target-x="515.2" target-y="414.25"></path>
        <path d="M 512.22 398.32 L 490.92 398.32 L 482.93 357.95 L 504.70 357.95 Z" fill="#aad5ff"
          fill-rule="evenodd" group-id="1,2,3" id="Fill-39" node-id="39" stroke="none"
          target-height="40.369995" target-width="29.289978" target-x="482.93" target-y="357.95"></path>
        <path d="M 522.73 454.63 L 502.05 454.63 L 494.07 414.25 L 515.20 414.25 Z" fill="#aad5ff"
          fill-rule="evenodd" group-id="1,2,3" id="Fill-40" node-id="40" stroke="none"
          target-height="40.380005" target-width="28.659973" target-x="494.07" target-y="414.25"></path>
        <path d="M 920.89 357.95 L 941.89 470.56 L 916.54 470.56 L 895.54 357.95 Z" fill="#c3e4ff"
          fill-rule="evenodd" group-id="1,2,3" id="Fill-41" node-id="41" stroke="none"
          target-height="112.609985" target-width="46.350037" target-x="895.54" target-y="357.95"></path>
        <path d="M 555.53 357.95 L 576.54 470.56 L 551.19 470.56 L 530.18 357.95 Z" fill="#c3e4ff"
          fill-rule="evenodd" group-id="1,2,3" id="Fill-42" node-id="42" stroke="none"
          target-height="112.609985" target-width="46.359985" target-x="530.18" target-y="357.95"></path>
        <path d="M 604.26 607.51 L 623.65 607.51 L 623.65 470.56 L 604.26 470.56 Z" fill="#c3e4ff"
          fill-rule="evenodd" group-id="1,2,3" id="Fill-43" node-id="43" stroke="none"
          target-height="136.95001" target-width="19.390015" target-x="604.26" target-y="470.56"></path>
        <path d="M 623.65 490.77 L 643.04 490.77 L 643.04 470.56 L 623.65 470.56 Z" fill="#c3e4ff"
          fill-rule="evenodd" group-id="1,2,3" id="Fill-44" node-id="44" stroke="none"
          target-height="20.209991" target-width="19.389954" target-x="623.65" target-y="470.56"></path>
        <path d="M 1009.79 490.77 L 1029.18 490.77 L 1029.18 470.56 L 1009.79 470.56 Z"
          fill="#c3e4ff" fill-rule="evenodd" group-id="1,2,3" id="Fill-45" node-id="45"
          stroke="none" target-height="20.209991" target-width="19.390076" target-x="1009.79"
          target-y="470.56"></path>
        <path d="M 1029.18 607.51 L 1048.57 607.51 L 1048.57 470.56 L 1029.18 470.56 Z"
          fill="#c3e4ff" fill-rule="evenodd" group-id="1,2,3" id="Fill-46" node-id="46"
          stroke="none" target-height="136.95001" target-width="19.389893" target-x="1029.18"
          target-y="470.56"></path>
        <path d="M 525.70 607.51 L 604.26 607.51 L 604.26 470.56 L 525.70 470.56 Z" fill="#aad5ff"
          fill-rule="evenodd" group-id="1,2,3" id="Fill-47" node-id="47" stroke="none"
          target-height="136.95001" target-width="78.56" target-x="525.7" target-y="470.56"></path>
        <g node-id="134">
          <path d="M 1232.57 606.37 L 7.00 606.37" fill="#e8f6ff" fill-rule="evenodd"
            group-id="1,2,3,6" id="Fill-48" node-id="49" stroke="none" target-height="0"
            target-width="1225.57" target-x="7" target-y="606.37"></path>
          <path d="M 1232.57 606.37 L 7.00 606.37" fill="none" group-id="1,2,3,6" id="Stroke-49"
            node-id="50" stroke="#d6eeff" stroke-linecap="round" stroke-width="14" target-height="0"
            target-width="1225.57" target-x="7" target-y="606.37"></path>
        </g>
      </g>
      <g node-id="132">
        <path
          d="M 1021.99 725.25 L 1021.23 725.53 L 1015.61 726.05 L 997.83 726.75 L 970.72 727.29 L 936.34 727.65 L 896.75 727.78 L 857.17 727.65 L 822.79 727.29 L 795.68 726.75 L 777.90 726.05 L 772.27 725.53 L 771.51 725.25 L 772.27 724.97 L 777.90 724.45 L 795.68 723.76 L 822.79 723.21 L 857.17 722.85 L 896.75 722.72 L 936.34 722.85 L 970.72 723.21 L 997.83 723.76 L 1015.61 724.45 L 1021.23 724.97 L 1021.99 725.25"
          fill="#afb4c8" fill-rule="evenodd" group-id="1,2,4" id="Fill-52" node-id="52"
          stroke="none" target-height="5.0600586" target-width="250.47998" target-x="771.51"
          target-y="722.72"></path>
        <path
          d="M 1031.82 359.19 L 1036.32 356.91 L 1038.38 356.07 L 1043.18 354.42 L 1047.27 353.61 L 1049.53 353.12 L 1051.99 352.27 L 1053.57 351.47 L 1055.23 350.31 L 1057.00 348.73 L 1058.79 347.23 L 1059.61 347.00 L 1060.13 347.38 L 1060.30 348.45 L 1060.10 349.78 L 1059.61 351.37 L 1058.90 352.87 L 1058.09 354.02 L 1056.93 355.03 L 1055.29 356.05 L 1051.88 357.97 L 1050.40 359.01 L 1049.52 360.01 L 1051.10 360.98 L 1051.82 361.30 L 1074.41 366.94 L 1074.93 367.16 L 1075.31 367.53 L 1075.55 368.02 L 1075.60 368.58 L 1075.53 369.44 L 1075.33 370.08 L 1074.92 370.55 L 1074.36 370.82 L 1073.70 370.83 L 1068.65 369.83 L 1062.26 368.52 L 1056.77 367.43 L 1054.44 367.09 L 1054.17 367.61 L 1076.98 375.86 L 1077.48 376.13 L 1077.84 376.55 L 1078.03 377.06 L 1078.02 377.63 L 1077.78 378.83 L 1077.53 379.41 L 1077.09 379.83 L 1076.53 380.05 L 1075.89 380.02 L 1071.51 378.76 L 1065.62 376.90 L 1059.65 374.97 L 1055.01 373.50 L 1053.14 373.00 L 1052.90 373.65 L 1071.69 382.39 L 1072.21 382.69 L 1072.57 383.13 L 1072.74 383.68 L 1072.70 384.27 L 1072.43 385.21 L 1072.15 385.77 L 1071.70 386.15 L 1071.14 386.33 L 1070.52 386.29 L 1052.00 378.37 L 1051.55 379.02 L 1064.85 387.11 L 1065.32 387.44 L 1065.62 387.89 L 1065.75 388.42 L 1065.67 388.99 L 1065.52 389.44 L 1065.22 389.97 L 1064.77 390.33 L 1064.21 390.50 L 1063.60 390.44 L 1062.11 389.85 L 1059.95 388.78 L 1054.93 386.12 L 1052.10 384.72 L 1049.13 383.44 L 1044.66 381.99 L 1040.18 380.64 L 1037.83 379.74 L 1035.08 378.45 L 1033.27 377.37 L 1031.40 376.06 L 1028.34 373.66"
          fill="#ff77ca" fill-rule="evenodd" group-id="1,2,4" id="Fill-54" node-id="53"
          stroke="none" target-height="43.5" target-width="49.690063" target-x="1028.34"
          target-y="347"></path>
        <path
          d="M 851.49 684.76 L 851.29 703.91 L 853.30 704.34 L 855.37 704.94 L 858.33 706.04 L 861.42 707.49 L 864.89 709.58 L 867.12 711.23 L 869.32 713.21 L 871.49 715.56 L 873.40 718.11 L 875.12 721.10 L 876.63 724.56 L 826.16 724.56 L 829.82 703.06 L 831.98 684.40 L 851.49 684.76 Z"
          fill="#0b096f" fill-rule="evenodd" group-id="1,2,4" id="Fill-56" node-id="54"
          stroke="none" target-height="40.159973" target-width="50.47003" target-x="826.16"
          target-y="684.4"></path>
        <path d="M 832.37 679.72 L 829.82 703.06 L 851.29 703.91 L 851.40 685.46 Z" fill="#ef3c86"
          fill-rule="evenodd" group-id="1,2,4" id="Fill-58" node-id="55" stroke="none"
          target-height="24.190002" target-width="21.580017" target-x="829.82" target-y="679.72"></path>
        <path
          d="M 743.85 240.59 L 742.12 242.13 L 741.07 243.49 L 740.32 244.89 L 739.86 246.12 L 739.01 248.28 L 738.38 249.10 L 737.35 249.77 L 735.98 250.15 L 733.99 250.34 L 731.86 250.32 L 729.51 250.13 L 725.06 249.43 L 724.84 249.38 L 724.83 249.38 L 724.72 249.36 L 724.03 249.20 L 723.90 249.17 L 721.62 248.47 L 719.66 247.36 L 717.44 245.57 L 715.34 243.47 L 713.39 241.18 L 711.68 238.80 L 710.50 236.79 L 709.78 234.91 L 709.82 233.92 L 710.62 233.22 L 712.43 232.51 L 717.12 231.41 L 721.98 230.32 L 724.02 229.65 L 725.11 228.99 L 725.58 228.13 L 725.49 227.06 L 724.99 225.93 L 724.15 224.61 L 722.27 221.96 L 721.46 220.63 L 721.00 219.48 L 720.86 218.23 L 720.99 216.71 L 721.34 215.23 L 721.84 214.06 L 722.51 213.25 L 723.17 213.15 L 723.79 213.67 L 724.63 215.60 L 725.39 217.59 L 726.29 219.20 L 727.29 220.48 L 729.04 222.16 L 730.81 223.46 L 734.02 225.75 L 737.46 229.02 L 738.87 230.52 L 743.85 240.59 Z"
          fill="#ff77ca" fill-rule="evenodd" group-id="1,2,4" id="Fill-60" node-id="56"
          stroke="none" target-height="37.190002" target-width="34.069946" target-x="709.78"
          target-y="213.15"></path>
        <path
          d="M 941.46 688.51 L 939.45 703.55 L 942.28 704.23 L 949.65 706.19 L 959.87 709.32 L 965.49 711.26 L 971.27 713.48 L 976.92 715.94 L 982.14 718.57 L 986.98 721.50 L 990.82 724.46 L 917.38 724.56 L 923.83 681.48 L 941.46 688.51 Z"
          fill="#0b096f" fill-rule="evenodd" group-id="1,2,4" id="Fill-62" node-id="57"
          stroke="none" target-height="43.080017" target-width="73.44" target-x="917.38"
          target-y="681.48"></path>
        <path d="M 923.42 684.75 L 920.55 702.95 L 939.45 703.55 L 941.15 691.07 Z" fill="#ef3c86"
          fill-rule="evenodd" group-id="1,2,4" id="Fill-64" node-id="58" stroke="none"
          target-height="18.799988" target-width="20.600037" target-x="920.55" target-y="684.75"></path>
        <path
          d="M 730.51 246.65 L 737.68 234.32 L 800.46 259.57 L 841.71 242.89 L 851.87 273.09 L 848.93 273.93 L 841.35 275.99 L 830.95 278.61 L 819.56 281.11 L 813.94 282.12 L 809.01 282.82 L 804.39 283.18 L 801.13 283.08 L 798.17 282.56 L 794.71 281.65 L 790.69 280.29 L 784.70 277.87 L 778.06 274.79 L 771.39 271.40 L 764.63 267.72 L 751.77 260.22 L 740.88 253.45 L 733.34 248.54 L 730.51 246.65"
          fill="#ff77ca" fill-rule="evenodd" group-id="1,2,4" id="Fill-66" node-id="59"
          stroke="none" target-height="48.859985" target-width="121.359985" target-x="730.51"
          target-y="234.32"></path>
        <path
          d="M 860.94 167.82 L 861.23 173.43 L 862.04 178.78 L 863.35 183.92 L 865.16 188.86 L 867.45 193.62 L 870.13 198.06 L 873.21 202.20 L 876.71 206.05 L 880.55 209.56 L 884.68 212.65 L 889.11 215.35 L 893.86 217.66 L 898.79 219.48 L 903.92 220.80 L 909.27 221.63 L 914.88 221.93 L 920.49 221.64 L 925.85 220.84 L 930.98 219.53 L 935.91 217.72 L 940.68 215.43 L 945.11 212.74 L 949.25 209.66 L 953.10 206.16 L 956.61 202.32 L 959.70 198.19 L 962.40 193.76 L 964.71 189.00 L 966.53 184.07 L 967.85 178.94 L 968.67 173.59 L 968.98 167.98 L 968.69 162.37 L 967.89 157.01 L 966.58 151.88 L 964.77 146.94 L 962.47 142.17 L 959.79 137.74 L 956.71 133.60 L 953.22 129.74 L 949.37 126.24 L 945.25 123.14 L 940.82 120.45 L 936.06 118.14 L 931.13 116.31 L 926.00 114.99 L 920.65 114.17 L 915.04 113.86 L 909.43 114.15 L 904.08 114.96 L 898.95 116.26 L 894.01 118.07 L 889.25 120.37 L 884.81 123.05 L 880.67 126.14 L 876.82 129.63 L 873.32 133.47 L 870.22 137.60 L 867.53 142.03 L 865.22 146.79 L 863.39 151.72 L 862.07 156.85 L 861.25 162.21 L 860.94 167.82"
          fill="#25003f" fill-rule="evenodd" group-id="1,2,4" id="Fill-68" node-id="60"
          stroke="none" target-height="108.06999" target-width="108.03998" target-x="860.94"
          target-y="113.86"></path>
        <path
          d="M 743.25 241.97 L 743.25 241.97 L 634.80 198.22 L 635.80 196.25 L 637.35 194.36 L 639.24 192.78 L 641.33 191.60 L 643.53 190.93 L 645.59 190.93 L 650.91 191.93 L 658.24 193.51 L 666.09 195.45 L 675.35 198.08 L 684.88 201.19 L 695.22 205.07 L 705.38 209.45 L 714.46 213.86 L 723.02 218.42 L 730.13 222.51 L 736.60 226.49 L 741.21 229.50 L 742.22 230.41 L 743.02 231.51 L 743.59 232.86 L 744.06 235.05 L 744.13 237.44 L 743.83 239.82 L 743.25 241.97"
          fill="#007eff" fill-rule="evenodd" group-id="1,2,4" id="Fill-70" node-id="61"
          stroke="none" target-height="51.04001" target-width="109.33002" target-x="634.8"
          target-y="190.93"></path>
        <path
          d="M 743.25 241.97 L 742.67 242.56 L 741.19 242.93 L 738.07 242.85 L 733.09 242.05 L 725.70 240.28 L 717.69 237.95 L 707.96 234.75 L 697.83 231.10 L 686.66 226.76 L 675.60 222.13 L 665.74 217.72 L 656.47 213.25 L 649.01 209.34 L 642.38 205.45 L 638.14 202.53 L 635.75 200.40 L 634.87 199.07 L 634.80 198.22 L 635.38 197.62 L 636.86 197.25 L 639.98 197.34 L 644.96 198.14 L 652.35 199.91 L 660.36 202.24 L 670.09 205.44 L 680.22 209.08 L 691.39 213.43 L 702.45 218.05 L 712.31 222.47 L 721.58 226.94 L 729.04 230.85 L 735.67 234.74 L 739.91 237.66 L 742.30 239.79 L 743.18 241.12 L 743.25 241.97"
          fill="#2c2cc6" fill-rule="evenodd" group-id="1,2,4" id="Fill-72" node-id="62"
          stroke="none" target-height="45.679993" target-width="108.45001" target-x="634.8"
          target-y="197.25"></path>
        <path
          d="M 953.90 279.95 L 954.70 283.11 L 956.91 291.23 L 960.22 302.34 L 962.20 308.38 L 964.34 314.43 L 966.66 320.33 L 968.98 325.51 L 971.52 330.24 L 973.85 333.59 L 977.86 337.11 L 983.11 341.38 L 994.93 350.34 L 1007.43 359.31 L 1018.70 367.14 L 1026.85 372.68 L 1029.99 374.78 L 1033.47 358.74 L 991.28 319.04 L 974.55 271.99 L 953.90 279.95 Z"
          fill="#ff77ca" fill-rule="evenodd" group-id="1,2,4" id="Fill-74" node-id="63"
          stroke="none" target-height="102.79001" target-width="79.56995" target-x="953.9"
          target-y="271.99"></path>
        <path
          d="M 947.99 689.24 L 914.61 689.14 L 922.76 533.18 L 910.10 394.48 L 859.10 691.74 L 825.46 691.74 L 825.95 686.22 L 827.30 670.88 L 829.32 647.52 L 831.84 617.92 L 834.69 583.89 L 837.68 547.22 L 840.64 509.72 L 843.38 473.17 L 845.74 439.39 L 847.24 419.97 L 848.82 404.37 L 850.63 390.04 L 852.32 379.10 L 854.13 369.28 L 855.61 362.44 L 857.08 356.57 L 858.04 353.28 L 859.00 350.47 L 956.75 350.47 L 957.71 355.75 L 959.97 370.25 L 961.24 379.95 L 962.58 391.94 L 963.70 404.60 L 964.59 418.81 L 966.14 450.76 L 967.24 474.82 L 967.87 493.08 L 968.03 507.64 L 967.70 520.58 L 966.87 534.01 L 965.21 551.87 L 962.67 574.71 L 959.60 600.25 L 956.32 626.24 L 953.19 650.40 L 950.53 670.47 L 948.68 684.17 L 947.99 689.24"
          fill="#272636" fill-rule="evenodd" group-id="1,2,4" id="Fill-76" node-id="64"
          stroke="none" target-height="341.27" target-width="142.57" target-x="825.46"
          target-y="350.47"></path>
        <path
          d="M 978.84 104.98 L 978.56 108.97 L 977.79 112.72 L 976.55 116.27 L 974.85 119.64 L 972.78 122.70 L 970.32 125.49 L 967.53 127.94 L 964.46 130.00 L 961.09 131.69 L 957.53 132.93 L 953.78 133.68 L 949.80 133.95 L 945.81 133.67 L 942.06 132.90 L 938.51 131.66 L 935.15 129.96 L 932.09 127.89 L 929.30 125.43 L 926.85 122.63 L 924.79 119.56 L 923.10 116.19 L 921.86 112.64 L 921.11 108.88 L 920.84 104.90 L 921.12 100.91 L 921.89 97.16 L 923.13 93.61 L 924.83 90.24 L 926.90 87.18 L 929.36 84.40 L 932.16 81.94 L 935.22 79.88 L 938.59 78.19 L 942.15 76.96 L 945.90 76.20 L 949.88 75.93 L 953.87 76.21 L 957.62 76.98 L 961.17 78.23 L 964.53 79.92 L 967.59 82.00 L 970.38 84.46 L 972.83 87.25 L 974.89 90.32 L 976.58 93.69 L 977.82 97.25 L 978.57 101.00 L 978.84 104.98"
          fill="#25003f" fill-rule="evenodd" group-id="1,2,4" id="Fill-78" node-id="65"
          stroke="none" target-height="58.019997" target-width="58" target-x="920.84"
          target-y="75.93"></path>
        <path d="M 968.98 171.76 L 968.87 242.88 L 860.83 242.72 L 860.94 171.60 Z" fill="#25003f"
          fill-rule="evenodd" group-id="1,2,4" id="Fill-80" node-id="66" stroke="none"
          target-height="71.28" target-width="108.14996" target-x="860.83" target-y="171.6"></path>
        <path d="M 967.10 321.36 L 987.29 307.81 L 985.27 302.12 L 964.41 314.61 Z" fill="#da327c"
          fill-rule="evenodd" group-id="1,2,4" id="Fill-82" node-id="67" stroke="none"
          target-height="19.23999" target-width="22.880005" target-x="964.41" target-y="302.12"></path>
        <path d="M 839.33 276.52 L 830.65 247.36 L 827.81 248.51 L 831.34 278.51 Z" fill="#da327c"
          fill-rule="evenodd" group-id="1,2,4" id="Fill-84" node-id="68" stroke="none"
          target-height="31.15001" target-width="11.52002" target-x="827.81" target-y="247.36"></path>
        <path
          d="M 991.72 298.26 L 956.46 319.37 L 951.64 288.42 L 952.71 288.46 L 955.10 288.83 L 956.42 289.28 L 957.61 289.97 L 958.52 290.93 L 959.02 292.27 L 959.05 293.26 L 958.79 294.52 L 958.12 296.16 L 954.20 304.14 L 952.82 307.49 L 951.89 310.44 L 951.32 313.40 L 951.12 316.56 L 951.27 319.88 L 951.81 324.01 L 953.90 334.32 L 954.67 338.27 L 955.62 343.67 L 956.41 348.43 L 956.75 350.47 L 859.00 350.47 L 860.84 345.75 L 863.07 340.55 L 866.98 332.13 L 871.67 322.74 L 878.33 310.41 L 879.61 307.62 L 880.46 304.77 L 880.90 301.83 L 880.93 297.34 L 880.32 292.85 L 879.21 288.47 L 877.78 284.36 L 876.12 280.48 L 874.49 277.23 L 871.64 272.31 L 870.43 270.47 L 843.85 291.69 L 829.29 242.79 L 832.42 241.39 L 840.46 237.80 L 851.39 232.96 L 863.16 227.77 L 868.89 225.49 L 873.82 223.95 L 878.71 222.89 L 883.67 222.26 L 888.82 221.96 L 894.90 221.86 L 909.67 221.93 L 920.18 222.08 L 928.95 222.56 L 934.58 223.18 L 939.54 224.08 L 943.89 225.23 L 948.08 226.81 L 951.82 228.81 L 955.17 231.22 L 958.40 234.23 L 961.63 237.82 L 964.89 242.04 L 969.36 248.75 L 973.62 256.09 L 977.53 263.66 L 981.01 271.06 L 984.18 278.34 L 986.73 284.63 L 990.42 294.46 L 991.72 298.26"
          fill="#ffc100" fill-rule="evenodd" group-id="1,2,4" id="Fill-86" node-id="69"
          stroke="none" target-height="128.61" target-width="162.43" target-x="829.29"
          target-y="221.86"></path>
        <path
          d="M 930.74 255.00 L 925.66 254.73 L 921.20 253.97 L 917.27 252.76 L 913.81 251.14 L 910.76 249.12 L 908.08 246.68 L 905.74 243.80 L 903.73 240.42 L 902.05 236.47 L 899.73 229.51 L 898.07 224.13 L 897.43 221.93 L 896.92 220.12 L 898.80 220.15 L 899.92 220.16 L 902.79 220.17 L 907.69 220.13 L 912.69 219.96 L 913.62 219.94 L 917.02 220.23 L 920.31 220.97 L 923.40 221.99 L 925.72 222.94 L 928.12 224.09 L 929.91 225.26 L 931.59 226.57 L 933.90 228.70 L 936.20 231.24 L 938.71 234.67 L 940.35 237.58 L 941.43 240.29 L 942.03 242.83 L 942.17 245.41 L 941.82 247.72 L 940.99 249.82 L 939.93 251.36 L 938.61 252.63 L 937.00 253.66 L 935.22 254.38 L 933.18 254.84 L 930.82 255.00 L 930.74 255.00 Z"
          fill="#ff77ca" fill-rule="evenodd" group-id="1,2,4" id="Fill-88" node-id="70"
          stroke="none" target-height="35.059998" target-width="45.25" target-x="896.92"
          target-y="219.94"></path>
        <path
          d="M 913.62 218.54 L 913.62 218.54 L 912.61 218.57 L 907.65 218.73 L 902.79 218.77 L 899.95 218.76 L 898.82 218.75 L 895.06 218.70 L 896.09 222.31 L 896.73 224.52 L 898.40 229.93 L 900.73 236.94 L 902.31 240.69 L 904.20 243.98 L 906.39 246.84 L 908.89 249.32 L 911.73 251.45 L 914.79 253.16 L 918.17 254.53 L 921.93 255.54 L 926.10 256.18 L 930.74 256.40 L 930.82 256.40 L 933.44 256.21 L 935.73 255.69 L 937.73 254.87 L 939.53 253.70 L 941.02 252.25 L 942.22 250.48 L 943.15 248.14 L 943.56 245.59 L 943.43 242.77 L 942.80 239.99 L 941.65 237.05 L 939.88 233.91 L 937.27 230.34 L 934.86 227.69 L 932.44 225.46 L 930.68 224.09 L 928.80 222.86 L 927.28 222.11 L 923.74 220.63 L 921.50 219.87 L 918.94 219.19 L 916.30 218.72 L 913.62 218.54 M 913.62 221.34 L 916.07 221.51 L 918.51 221.96 L 920.88 222.61 L 922.96 223.33 L 926.20 224.70 L 927.46 225.32 L 929.04 226.36 L 930.63 227.59 L 932.87 229.65 L 935.09 232.10 L 937.54 235.43 L 939.38 238.83 L 940.41 241.82 L 940.77 244.47 L 940.64 246.49 L 940.18 248.23 L 939.40 249.74 L 938.29 251.05 L 936.94 252.09 L 935.29 252.88 L 933.27 253.39 L 930.82 253.60 L 930.74 253.60 L 926.80 253.44 L 922.78 252.87 L 918.84 251.82 L 915.04 250.19 L 912.67 248.76 L 910.43 246.98 L 908.31 244.81 L 906.48 242.40 L 904.83 239.49 L 903.37 236.01 L 901.05 229.03 L 899.40 223.68 L 898.78 221.55 L 899.91 221.56 L 902.79 221.57 L 907.76 221.53 L 912.77 221.36 L 913.62 221.34"
          fill="#924e08" fill-rule="evenodd" group-id="1,2,4" id="Fill-90" node-id="71"
          stroke="none" target-height="37.86" target-width="48.5" target-x="895.06"
          target-y="218.54"></path>
        <path
          d="M 927.63 194.77 L 926.48 197.24 L 925.93 199.82 L 925.87 202.45 L 926.19 204.96 L 926.81 207.34 L 927.57 209.29 L 928.48 211.65 L 929.98 215.65 L 931.46 219.51 L 932.36 221.43 L 932.47 221.74 L 932.24 222.21 L 931.34 223.03 L 929.70 224.15 L 927.20 225.61 L 921.40 228.61 L 915.43 231.45 L 910.77 233.58 L 908.89 234.41 L 907.19 213.36 L 903.41 213.50 L 899.54 213.44 L 895.71 213.14 L 892.19 212.54 L 888.92 211.56 L 886.30 210.22 L 884.09 208.45 L 882.07 206.32 L 880.25 203.79 L 877.97 199.63 L 876.08 194.99 L 874.60 190.15 L 873.46 185.32 L 872.61 180.53 L 872.05 176.30 L 871.50 169.45 L 871.47 166.29 L 883.40 152.93 L 885.29 152.10 L 889.91 150.23 L 895.65 148.31 L 898.54 147.61 L 900.92 147.29 L 902.44 147.34 L 903.46 147.64 L 904.13 148.15 L 905.42 150.05 L 907.15 153.01 L 911.01 160.09 L 915.44 167.87 L 917.82 171.62 L 920.15 174.85 L 922.64 177.65 L 924.88 179.48 L 926.49 180.28 L 927.95 180.52 L 929.35 180.26 L 929.30 178.86 L 929.40 177.48 L 929.75 175.77 L 930.45 174.13 L 931.62 172.68 L 932.63 171.96 L 933.98 171.49 L 935.79 171.28 L 937.60 171.47 L 939.02 171.90 L 940.12 172.54 L 941.46 173.87 L 942.30 175.38 L 942.77 176.99 L 942.90 178.37 L 942.64 180.46 L 942.03 182.23 L 941.06 183.73 L 939.13 185.71 L 936.74 187.48 L 931.68 190.77 L 929.40 192.63 L 927.63 194.77"
          fill="#ff77ca" fill-rule="evenodd" group-id="1,2,4" id="Fill-92" node-id="72"
          stroke="none" target-height="87.12001" target-width="71.43005" target-x="871.47"
          target-y="147.29"></path>
        <path d="M 888.46 184.37 L 883.09 197.37 L 889.32 197.25 Z" fill="#285fd7"
          fill-rule="evenodd" group-id="1,2,4" id="Fill-94" node-id="73" stroke="none"
          target-height="13" target-width="6.2299805" target-x="883.09" target-y="184.37"></path>
        <path
          d="M 894.17 184.93 L 894.52 186.79 L 895.26 188.20 L 895.98 188.93 L 896.74 189.33 L 897.58 189.45 L 898.40 189.24 L 899.11 188.75 L 899.75 187.95 L 900.34 186.46 L 900.51 184.57 L 900.15 182.70 L 899.41 181.29 L 898.69 180.57 L 897.93 180.17 L 897.09 180.05 L 896.27 180.26 L 895.56 180.75 L 894.92 181.55 L 894.33 183.04 L 894.17 184.93"
          fill="#0b096f" fill-rule="evenodd" group-id="1,2,4" id="Fill-96" node-id="74"
          stroke="none" target-height="9.399994" target-width="6.340027" target-x="894.17"
          target-y="180.05"></path>
        <path
          d="M 877.73 184.52 L 878.09 186.38 L 878.83 187.79 L 879.54 188.52 L 880.30 188.92 L 881.14 189.04 L 881.96 188.82 L 882.67 188.34 L 883.31 187.53 L 883.90 186.04 L 884.07 184.15 L 883.71 182.29 L 882.97 180.88 L 882.25 180.15 L 881.49 179.75 L 880.65 179.63 L 879.83 179.85 L 879.12 180.33 L 878.48 181.14 L 877.89 182.62 L 877.73 184.52"
          fill="#0b096f" fill-rule="evenodd" group-id="1,2,4" id="Fill-98" node-id="75"
          stroke="none" target-height="9.409988" target-width="6.340027" target-x="877.73"
          target-y="179.63"></path>
        <path
          d="M 887.47 152.79 L 887.26 156.37 L 886.69 159.78 L 885.76 163.03 L 885.30 164.24 L 883.43 168.12 L 881.10 171.63 L 878.61 174.46 L 875.83 176.90 L 872.73 178.97 L 869.40 180.60 L 865.86 181.76 L 862.09 182.44 L 860.92 182.53 L 860.94 171.60 L 860.94 171.60 L 860.94 170.58 L 861.16 165.50 L 861.77 160.62 L 862.75 155.91 L 864.10 151.35 L 865.82 146.90 L 867.85 142.68 L 870.18 138.70 L 872.81 134.92 L 874.96 132.27 L 877.25 129.76 L 879.79 132.27 L 882.02 135.11 L 883.90 138.21 L 885.43 141.58 L 886.55 145.11 L 887.23 148.83 L 887.47 152.79"
          fill="#25003f" fill-rule="evenodd" group-id="1,2,4" id="Fill-100" node-id="76"
          stroke="none" target-height="52.770004" target-width="26.549988" target-x="860.92"
          target-y="129.76"></path>
        <path
          d="M 929.39 152.15 L 929.13 154.71 L 928.40 157.12 L 927.19 159.43 L 925.61 161.51 L 923.65 163.41 L 921.28 165.13 L 918.70 166.54 L 915.83 167.68 L 912.65 168.54 L 910.31 168.93 L 906.37 169.18 L 902.14 168.88 L 898.29 168.09 L 894.77 166.83 L 891.47 165.09 L 888.75 163.05 L 886.53 160.70 L 885.17 158.69 L 884.21 156.60 L 883.62 154.41 L 883.40 152.09 L 883.69 149.43 L 884.54 146.80 L 885.90 144.36 L 887.80 142.07 L 890.06 140.10 L 892.71 138.39 L 895.81 136.96 L 899.07 135.93 L 902.59 135.29 L 906.42 135.05 L 910.62 135.35 L 914.43 136.12 L 917.93 137.36 L 921.20 139.07 L 923.92 141.08 L 926.15 143.39 L 927.52 145.37 L 928.50 147.43 L 929.12 149.59 L 929.38 151.88 L 929.39 152.15"
          fill="#25003f" fill-rule="evenodd" group-id="1,2,4" id="Fill-102" node-id="77"
          stroke="none" target-height="34.12999" target-width="45.98999" target-x="883.4"
          target-y="135.05"></path>
        <path
          d="M 889.20 202.07 L 890.40 202.25 L 891.63 202.18 L 893.40 201.71 L 895.19 200.75 L 897.31 198.87"
          fill="none" group-id="1,2,4" id="Stroke-104" node-id="78" stroke="#0c245f"
          stroke-linecap="butt" stroke-width="2.1" target-height="3.380005" target-width="8.109985"
          target-x="889.2" target-y="198.87"></path>
        <path
          d="M 907.19 213.36 L 908.71 213.37 L 912.37 213.23 L 916.78 212.67 L 918.89 212.14 L 920.55 211.45 L 907.68 219.53 L 907.19 213.36 Z"
          fill="#ef3c86" fill-rule="evenodd" group-id="1,2,4" id="Fill-106" node-id="79"
          stroke="none" target-height="8.080002" target-width="13.359985" target-x="907.19"
          target-y="211.45"></path>
        <path
          d="M 895.47 221.81 L 897.16 221.78 L 901.69 221.93 L 905.64 222.17 L 907.47 222.26 L 907.91 222.28 L 907.29 214.59 L 893.04 216.47 L 895.47 221.81 Z"
          fill="#25003f" fill-rule="evenodd" group-id="1,2,4" id="Fill-108" node-id="80"
          stroke="none" target-height="7.6900024" target-width="14.869995" target-x="893.04"
          target-y="214.59"></path>
        <path d="M 913.28 698.03 L 950.32 697.98 L 950.30 688.54 L 913.27 688.59 Z" fill="#272636"
          fill-rule="evenodd" group-id="1,2,4" id="Fill-110" node-id="81" stroke="none"
          target-height="9.490051" target-width="37.049988" target-x="913.27" target-y="688.54"></path>
        <path d="M 822.51 698.03 L 860.86 697.98 L 861.50 688.54 L 823.16 688.59 Z" fill="#272636"
          fill-rule="evenodd" group-id="1,2,4" id="Fill-112" node-id="82" stroke="none"
          target-height="9.490051" target-width="38.98999" target-x="822.51" target-y="688.54"></path>
        <path
          d="M 947.88 264.68 L 925.78 264.65 L 925.88 200.47 L 968.93 200.53 L 968.87 243.74 L 968.65 246.65 L 968.10 249.36 L 967.21 251.91 L 965.99 254.32 L 963.90 257.26 L 961.41 259.75 L 958.46 261.83 L 956.05 263.05 L 953.49 263.93 L 950.78 264.47 L 947.88 264.68"
          fill="#25003f" fill-rule="evenodd" group-id="1,2,4" id="Fill-114" node-id="83"
          stroke="none" target-height="64.20999" target-width="43.149963" target-x="925.78"
          target-y="200.47"></path>
        <path
          d="M 721.41 242.28 L 721.41 242.28 L 721.04 242.87 L 720.35 243.32 L 719.24 243.61 L 717.41 243.62 L 715.13 243.13 L 693.96 236.11 L 692.68 235.51 L 692.14 234.96 L 691.95 234.33 L 692.07 233.77 L 692.74 232.97 L 693.74 232.55 L 695.48 232.27 L 697.42 232.31 L 699.82 232.77 L 716.71 237.87 L 718.85 238.81 L 720.36 239.90 L 721.12 240.79 L 721.43 241.56 L 721.41 242.28"
          fill="#ff77ca" fill-rule="evenodd" group-id="1,2,4" id="Fill-116" node-id="84"
          stroke="none" target-height="11.349991" target-width="29.47998" target-x="691.95"
          target-y="232.27"></path>
        <path
          d="M 722.42 244.39 L 722.42 244.39 L 721.87 244.91 L 721.07 245.21 L 719.89 245.25 L 718.06 244.84 L 715.94 243.82 L 696.84 231.83 L 695.73 230.93 L 695.34 230.25 L 695.32 229.56 L 695.60 229.01 L 696.48 228.35 L 697.59 228.16 L 699.39 228.27 L 701.31 228.75 L 703.57 229.76 L 718.95 238.82 L 720.82 240.26 L 722.02 241.72 L 722.52 242.80 L 722.63 243.66 L 722.42 244.39"
          fill="#ff77ca" fill-rule="evenodd" group-id="1,2,4" id="Fill-118" node-id="85"
          stroke="none" target-height="17.089996" target-width="27.309998" target-x="695.32"
          target-y="228.16"></path>
        <path
          d="M 725.94 247.36 L 725.94 247.36 L 725.25 247.79 L 724.40 247.95 L 723.34 247.81 L 721.78 247.14 L 720.16 245.85 L 706.48 231.47 L 705.76 230.45 L 705.62 229.72 L 705.82 229.07 L 706.26 228.58 L 707.28 228.08 L 708.38 228.05 L 709.98 228.43 L 711.60 229.19 L 713.34 230.49 L 724.55 241.50 L 725.80 243.15 L 726.44 244.74 L 726.55 245.82 L 726.38 246.67 L 725.94 247.36"
          fill="#ff77ca" fill-rule="evenodd" group-id="1,2,4" id="Fill-120" node-id="86"
          stroke="none" target-height="19.899994" target-width="20.929993" target-x="705.62"
          target-y="228.05"></path>
        <path
          d="M 725.56 248.58 L 725.56 248.58 L 724.58 248.79 L 723.46 248.46 L 722.45 247.69 L 721.55 246.46 L 714.83 233.46 L 714.55 232.59 L 714.63 232.02 L 714.95 231.57 L 715.40 231.28 L 716.31 231.09 L 717.16 231.27 L 718.28 231.82 L 719.32 232.67 L 720.30 233.93 L 726.01 244.00 L 726.53 245.44 L 726.61 246.73 L 726.27 247.86 L 725.56 248.58"
          fill="#ff77ca" fill-rule="evenodd" group-id="1,2,4" id="Fill-122" node-id="87"
          stroke="none" target-height="17.699997" target-width="12.059998" target-x="714.55"
          target-y="231.09"></path>
        <path
          d="M 953.09 304.11 L 954.16 302.03 L 955.16 299.81 L 956.40 296.59 L 957.48 293.07 L 958.36 289.01 L 958.79 284.81 L 958.61 280.50"
          fill="none" group-id="1,2,4" id="Stroke-124" node-id="88" stroke="#ff9a0f"
          stroke-linecap="butt" stroke-width="2.1" target-height="23.609985" target-width="5.699951"
          target-x="953.09" target-y="280.5"></path>
      </g>
      <g node-id="133">
        <path
          d="M 607.08 725.25 L 606.19 725.48 L 598.95 725.92 L 576.02 726.53 L 540.45 727.04 L 494.42 727.44 L 440.08 727.69 L 379.61 727.78 L 319.14 727.69 L 264.80 727.44 L 218.76 727.04 L 183.19 726.53 L 160.26 725.93 L 153.02 725.48 L 152.14 725.25 L 153.02 725.03 L 160.26 724.58 L 183.19 723.98 L 218.76 723.46 L 264.80 723.07 L 319.14 722.81 L 379.61 722.72 L 440.08 722.81 L 494.42 723.07 L 540.45 723.46 L 576.02 723.98 L 598.95 724.58 L 606.19 725.03 L 607.08 725.25"
          fill="#afb4c8" fill-rule="evenodd" group-id="1,2,5" id="Fill-127" node-id="90"
          stroke="none" target-height="5.0600586" target-width="454.94" target-x="152.14"
          target-y="722.72"></path>
        <path
          d="M 306.20 697.18 L 303.97 694.70 L 298.14 688.34 L 289.96 679.72 L 280.66 670.43 L 275.90 665.97 L 271.51 662.10 L 267.19 658.65 L 263.75 656.32 L 259.53 653.98 L 254.57 651.53 L 244.21 646.96 L 234.52 643.11 L 227.35 640.45 L 224.54 639.46"
          fill="none" group-id="1,2,5" id="Stroke-129" node-id="91" stroke="#2b2b3b"
          stroke-linecap="butt" stroke-width="6.3" target-height="57.71997" target-width="81.66002"
          target-x="224.54" target-y="639.46"></path>
        <path
          d="M 325.40 720.36 L 317.82 724.63 L 315.72 725.47 L 313.57 725.71 L 311.44 725.39 L 309.46 724.56 L 307.75 723.24 L 306.38 721.44 L 305.62 720.08 L 304.79 717.98 L 304.55 715.83 L 304.86 713.70 L 305.69 711.72 L 307.01 710.01 L 308.82 708.64 L 316.40 704.37 L 318.50 703.53 L 320.65 703.30 L 322.78 703.61 L 324.76 704.44 L 326.47 705.76 L 327.84 707.57 L 328.60 708.92 L 329.43 711.02 L 329.67 713.17 L 329.36 715.30 L 328.52 717.28 L 327.21 718.99 L 325.40 720.36"
          fill="#272636" fill-rule="evenodd" group-id="1,2,5" id="Fill-131" node-id="92"
          stroke="none" target-height="22.410034" target-width="25.120026" target-x="304.55"
          target-y="703.3"></path>
        <path
          d="M 301.81 690.03 L 304.85 717.20 L 325.77 705.41 L 301.81 690.03 Z M 306.96 698.33 L 317.63 705.18 L 308.32 710.43 L 306.96 698.33 Z"
          fill="#2b2b3b" fill-rule="evenodd" group-id="1,2,5" id="Fill-133" node-id="93"
          stroke="none" target-height="27.169983" target-width="23.959991" target-x="301.81"
          target-y="690.03"></path>
        <path
          d="M 445.74 698.35 L 444.05 695.76 L 439.57 689.11 L 433.25 680.03 L 426.00 670.19 L 422.25 665.42 L 418.75 661.25 L 415.26 657.47 L 412.43 654.85 L 408.87 652.11 L 404.65 649.16 L 395.77 643.51 L 387.40 638.62 L 381.18 635.17 L 378.74 633.86"
          fill="none" group-id="1,2,5" id="Stroke-135" node-id="94" stroke="#2b2b3b"
          stroke-linecap="butt" stroke-width="6.3" target-height="64.48999" target-width="67"
          target-x="378.74" target-y="633.86"></path>
        <path
          d="M 460.10 722.38 L 452.65 725.20 L 450.58 725.68 L 448.56 725.60 L 446.63 725.01 L 444.91 723.95 L 443.51 722.49 L 442.49 720.62 L 442.03 719.39 L 441.55 717.33 L 441.64 715.30 L 442.23 713.37 L 443.28 711.65 L 444.74 710.25 L 446.61 709.24 L 454.06 706.42 L 456.12 705.94 L 458.15 706.02 L 460.08 706.61 L 461.80 707.67 L 463.20 709.13 L 464.21 711.00 L 464.67 712.22 L 465.15 714.29 L 465.07 716.32 L 464.48 718.25 L 463.42 719.97 L 461.96 721.37 L 460.10 722.38"
          fill="#272636" fill-rule="evenodd" group-id="1,2,5" id="Fill-137" node-id="95"
          stroke="none" target-height="19.73999" target-width="23.600006" target-x="441.55"
          target-y="705.94"></path>
        <path
          d="M 442.71 691.17 L 441.70 716.57 L 462.59 708.67 L 442.71 691.17 Z M 446.55 700.15 L 454.58 707.21 L 446.15 710.40 L 446.55 700.15 Z"
          fill="#2b2b3b" fill-rule="evenodd" group-id="1,2,5" id="Fill-139" node-id="96"
          stroke="none" target-height="25.400024" target-width="20.889984" target-x="441.7"
          target-y="691.17"></path>
        <path
          d="M 537.30 702.14 L 534.79 700.33 L 528.22 695.73 L 519.06 689.53 L 508.76 682.96 L 503.55 679.85 L 498.78 677.22 L 494.17 674.95 L 490.58 673.52 L 486.28 672.24 L 481.28 671.00 L 470.96 668.93 L 461.39 667.37 L 454.34 666.39 L 451.60 666.05"
          fill="none" group-id="1,2,5" id="Stroke-141" node-id="97" stroke="#2b2b3b"
          stroke-linecap="butt" stroke-width="6.3" target-height="36.090027" target-width="85.69998"
          target-x="451.6" target-y="666.05"></path>
        <path
          d="M 559.33 719.40 L 553.39 724.71 L 551.63 725.89 L 549.72 726.55 L 547.70 726.69 L 545.72 726.32 L 543.89 725.46 L 542.27 724.08 L 541.40 723.11 L 540.21 721.35 L 539.56 719.43 L 539.41 717.42 L 539.78 715.43 L 540.64 713.60 L 542.02 711.98 L 547.95 706.67 L 549.71 705.48 L 551.63 704.83 L 553.64 704.69 L 555.63 705.06 L 557.46 705.92 L 559.08 707.29 L 559.95 708.27 L 561.14 710.03 L 561.79 711.95 L 561.93 713.96 L 561.57 715.95 L 560.70 717.78 L 559.33 719.40"
          fill="#272636" fill-rule="evenodd" group-id="1,2,5" id="Fill-143" node-id="98"
          stroke="none" target-height="22" target-width="22.52002" target-x="539.41"
          target-y="704.69"></path>
        <path
          d="M 531.89 696.53 L 540.08 720.59 L 556.73 705.70 L 531.89 696.53 Z M 538.70 703.52 L 548.73 707.22 L 542.01 713.23 L 538.70 703.52 Z"
          fill="#2b2b3b" fill-rule="evenodd" group-id="1,2,5" id="Fill-145" node-id="99"
          stroke="none" target-height="24.059998" target-width="24.839966" target-x="531.89"
          target-y="696.53"></path>
        <path
          d="M 386.74 591.68 L 385.30 593.98 L 381.80 599.99 L 377.44 608.37 L 375.33 613.04 L 373.47 617.80 L 371.97 622.58 L 371.08 626.95 L 370.84 629.83 L 371.00 632.32 L 371.51 634.48 L 372.48 636.39 L 373.94 637.90 L 375.98 639.06 L 378.18 639.59 L 380.10 639.56 L 381.81 639.03 L 383.40 638.08 L 384.85 636.84 L 386.18 635.26 L 387.85 632.64 L 389.19 629.91 L 390.92 625.12 L 391.48 623.05 L 486.43 558.78 L 486.82 557.87 L 487.05 556.85 L 487.13 555.22 L 486.89 553.42 L 486.12 551.00 L 484.82 548.50 L 482.53 545.34 L 479.90 542.50 L 477.91 540.80 L 475.97 539.57 L 474.61 539.02 L 473.37 538.79 L 472.64 538.82 L 471.99 539.02 L 428.99 568.12 L 423.20 567.01 L 386.74 591.68 Z"
          fill="#272636" fill-rule="evenodd" group-id="1,2,5" id="Fill-147" node-id="100"
          stroke="none" target-height="100.80005" target-width="116.29001" target-x="370.84"
          target-y="538.79"></path>
        <path
          d="M 229.61 597.19 L 228.42 599.78 L 225.60 606.52 L 223.95 610.86 L 222.22 615.85 L 220.67 621.01 L 219.38 626.22 L 218.49 631.41 L 218.16 636.07 L 218.31 639.11 L 218.82 641.68 L 219.65 643.85 L 220.56 645.30 L 221.72 646.46 L 223.16 647.36 L 224.93 648.01 L 227.30 648.26 L 229.29 647.97 L 231.00 647.17 L 232.52 645.97 L 233.87 644.47 L 235.03 642.65 L 236.41 639.68 L 237.42 636.66 L 238.15 633.69 L 238.56 631.44 L 238.86 629.20 L 328.87 549.18 L 329.14 548.17 L 329.24 547.09 L 329.10 545.38 L 328.61 543.54 L 327.47 541.12 L 325.77 538.70 L 322.95 535.73 L 319.82 533.13 L 317.51 531.63 L 315.32 530.62 L 313.84 530.23 L 312.51 530.16 L 311.76 530.30 L 311.10 530.60 L 270.34 566.83 L 264.16 566.47 L 229.61 597.19 Z"
          fill="#272636" fill-rule="evenodd" group-id="1,2,5" id="Fill-149" node-id="101"
          stroke="none" target-height="118.10004" target-width="111.07999" target-x="218.16"
          target-y="530.16"></path>
        <path
          d="M 485.25 576.47 L 450.33 574.44 L 448.50 574.07 L 446.96 573.32 L 445.65 572.18 L 444.67 570.74 L 444.10 569.12 L 443.95 567.27 L 445.62 538.44 L 445.99 536.62 L 446.74 535.08 L 447.88 533.76 L 449.32 532.78 L 450.94 532.21 L 452.79 532.06 L 498.02 534.69 L 499.54 534.95 L 500.87 535.49 L 502.03 536.29 L 503.39 537.88 L 504.21 539.81 L 504.42 541.21 L 504.31 542.63 L 503.87 544.12 L 491.89 572.34 L 490.77 574.14 L 489.22 575.46 L 487.35 576.26 L 485.25 576.47"
          fill="#2b2b3b" fill-rule="evenodd" group-id="1,2,5" id="Fill-151" node-id="102"
          stroke="none" target-height="44.409973" target-width="60.47" target-x="443.95"
          target-y="532.06"></path>
        <path
          d="M 449.40 535.50 L 447.33 571.16 L 446.87 573.53 L 445.85 575.59 L 444.35 577.32 L 442.46 578.61 L 440.30 579.38 L 437.89 579.57 L 414.42 578.20 L 414.29 576.61 L 413.80 575.22 L 412.95 573.98 L 411.82 573.00 L 410.50 572.35 L 408.93 572.04 L 323.26 567.06 L 321.67 567.19 L 320.28 567.68 L 319.04 568.52 L 318.06 569.65 L 317.41 570.98 L 317.10 572.55 L 238.73 567.99 L 236.36 567.53 L 234.30 566.51 L 232.57 565.01 L 231.28 563.12 L 230.51 560.95 L 230.33 558.54 L 232.40 522.88 L 232.86 520.51 L 233.88 518.45 L 235.38 516.72 L 237.27 515.43 L 239.43 514.66 L 241.84 514.47 L 441.00 526.05 L 443.37 526.51 L 445.43 527.53 L 447.16 529.03 L 448.45 530.92 L 449.22 533.09 L 449.40 535.50"
          fill="#ffc100" fill-rule="evenodd" group-id="1,2,5" id="Fill-153" node-id="103"
          stroke="none" target-height="65.10004" target-width="219.06999" target-x="230.33"
          target-y="514.47"></path>
        <path
          d="M 448.47 551.68 L 447.33 571.15 L 446.87 573.53 L 445.85 575.59 L 444.35 577.32 L 442.46 578.61 L 440.30 579.38 L 437.89 579.57 L 414.42 578.20 L 414.42 577.85 L 414.22 576.34 L 413.69 575.03 L 412.84 573.86 L 411.73 572.94 L 410.44 572.33 L 408.93 572.04 L 323.26 567.05 L 321.67 567.19 L 320.28 567.68 L 319.04 568.52 L 318.06 569.65 L 317.41 570.98 L 317.10 572.55 L 238.73 567.99 L 236.62 567.61 L 234.75 566.79 L 233.12 565.57 L 231.82 564.03 L 264.44 552.56 L 279.94 531.02 L 305.02 532.35 L 314.49 527.88 L 350.58 532.05 L 371.12 547.40 L 448.47 551.68 Z"
          fill="#f38c01" fill-rule="evenodd" group-id="1,2,5" id="Fill-155" node-id="104"
          stroke="none" target-height="51.690002" target-width="216.65" target-x="231.82"
          target-y="527.88"></path>
        <path
          d="M 283.73 564.76 L 257.70 563.24 L 255.74 562.86 L 254.04 562.02 L 252.62 560.78 L 251.55 559.23 L 250.92 557.44 L 250.76 555.45 L 252.40 527.28 L 252.78 525.33 L 253.62 523.63 L 254.86 522.20 L 256.42 521.14 L 258.20 520.50 L 260.19 520.35 L 286.22 521.86 L 288.18 522.25 L 289.88 523.08 L 291.30 524.32 L 292.37 525.88 L 293.00 527.67 L 293.16 529.65 L 291.52 557.82 L 291.14 559.78 L 290.30 561.48 L 289.06 562.90 L 287.51 563.97 L 285.72 564.60 L 283.73 564.76"
          fill="#2b2b3b" fill-rule="evenodd" group-id="1,2,5" id="Fill-157" node-id="105"
          stroke="none" target-height="44.410034" target-width="42.40001" target-x="250.76"
          target-y="520.35"></path>
        <path
          d="M 346.47 546.66 L 311.88 544.65 L 309.92 544.27 L 308.22 543.43 L 306.80 542.19 L 305.74 540.63 L 305.10 538.85 L 304.95 536.86 L 304.99 536.07 L 305.38 534.11 L 306.21 532.41 L 307.45 530.99 L 309.01 529.92 L 310.79 529.29 L 312.78 529.14 L 347.37 531.15 L 349.33 531.53 L 351.03 532.37 L 352.45 533.60 L 353.51 535.16 L 354.15 536.95 L 354.30 538.94 L 354.26 539.73 L 353.88 541.68 L 353.04 543.38 L 351.80 544.81 L 350.24 545.87 L 348.46 546.51 L 346.47 546.66"
          fill="#2b2b3b" fill-rule="evenodd" group-id="1,2,5" id="Fill-159" node-id="106"
          stroke="none" target-height="17.519958" target-width="49.349976" target-x="304.95"
          target-y="529.14"></path>
        <path
          d="M 448.45 551.90 L 371.12 547.40 L 348.13 530.21 L 311.65 528.09 L 305.02 532.35 L 289.65 531.45"
          fill="none" group-id="1,2,5" id="Stroke-161" node-id="107" stroke="#2b2b3b"
          stroke-linecap="butt" stroke-width="3.5" target-height="23.809998"
          target-width="158.80002" target-x="289.65" target-y="528.09"></path>
        <path d="M 442.10 537.58 L 399.77 535.36" fill="none" group-id="1,2,5" id="Stroke-163"
          node-id="108" stroke="#333337" stroke-linecap="butt" stroke-width="6.3"
          target-height="2.2200317" target-width="42.330017" target-x="399.77" target-y="535.36"></path>
        <path
          d="M 482.74 506.03 L 482.34 508.67 L 481.53 511.07 L 480.33 513.26 L 478.76 515.22 L 476.93 516.85 L 474.80 518.18 L 472.49 519.12 L 470.01 519.65 L 467.34 519.74 L 464.70 519.34 L 462.31 518.53 L 460.11 517.32 L 458.16 515.76 L 456.52 513.92 L 455.20 511.80 L 454.25 509.48 L 453.73 507.01 L 453.64 504.34 L 454.04 501.69 L 454.84 499.30 L 456.05 497.10 L 457.61 495.14 L 459.45 493.51 L 461.57 492.18 L 463.89 491.24 L 466.36 490.72 L 469.03 490.62 L 471.68 491.03 L 474.07 491.83 L 476.26 493.04 L 478.22 494.60 L 479.85 496.44 L 481.18 498.56 L 482.13 500.88 L 482.65 503.36 L 482.74 506.03"
          fill="#2b2b3b" fill-rule="evenodd" group-id="1,2,5" id="Fill-165" node-id="109"
          stroke="none" target-height="29.119995" target-width="29.099976" target-x="453.64"
          target-y="490.62"></path>
        <path d="M 478.01 541.16 L 453.91 539.76 L 455.96 504.47 L 480.06 505.87 Z" fill="#2b2b3b"
          fill-rule="evenodd" group-id="1,2,5" id="Fill-167" node-id="110" stroke="none"
          target-height="36.689972" target-width="26.149994" target-x="453.91" target-y="504.47"></path>
        <path
          d="M 433.50 634.83 L 433.86 637.52 L 434.99 644.38 L 436.99 653.61 L 438.35 658.56 L 439.95 663.41 L 441.86 668.04 L 443.95 671.97 L 445.61 674.35 L 447.32 676.16 L 449.09 677.49 L 451.06 678.35 L 453.14 678.58 L 455.46 678.17 L 457.49 677.17 L 458.94 675.93 L 459.92 674.42 L 460.54 672.68 L 460.87 670.79 L 460.88 668.73 L 460.50 665.64 L 459.78 662.69 L 458.06 657.90 L 457.16 655.95 L 489.23 545.84 L 488.95 544.89 L 488.48 543.97 L 487.50 542.66 L 486.17 541.42 L 484.02 540.06 L 481.43 538.96 L 477.65 537.99 L 473.81 537.49 L 471.19 537.45 L 468.92 537.74 L 467.52 538.18 L 466.42 538.80 L 465.88 539.29 L 465.50 539.86 L 450.98 589.71 L 445.82 592.56 L 433.50 634.83 Z"
          fill="#ffc100" fill-rule="evenodd" group-id="1,2,5" id="Fill-169" node-id="111"
          stroke="none" target-height="141.13" target-width="55.73001" target-x="433.5"
          target-y="537.45"></path>
        <path
          d="M 190.53 694.79 L 190.32 691.47 L 189.71 682.87 L 188.65 671.02 L 187.14 657.97 L 186.18 651.51 L 185.15 645.75 L 183.90 640.36 L 182.66 636.40 L 180.80 631.94 L 178.44 626.93 L 173.16 616.92 L 167.96 607.87 L 164.00 601.33 L 162.42 598.81"
          fill="none" group-id="1,2,5" id="Stroke-171" node-id="112" stroke="#2b2b3b"
          stroke-linecap="butt" stroke-width="6.3" target-height="95.97998" target-width="28.11"
          target-x="162.42" target-y="598.81"></path>
        <path
          d="M 191.17 724.90 L 182.57 723.53 L 180.40 722.87 L 178.57 721.73 L 177.10 720.16 L 176.07 718.27 L 175.55 716.17 L 175.60 713.91 L 175.84 712.38 L 176.50 710.21 L 177.64 708.38 L 179.21 706.91 L 181.10 705.87 L 183.19 705.35 L 185.45 705.40 L 194.05 706.77 L 196.22 707.43 L 198.05 708.57 L 199.52 710.14 L 200.55 712.03 L 201.07 714.12 L 201.02 716.39 L 200.78 717.92 L 200.13 720.09 L 198.98 721.92 L 197.41 723.39 L 195.53 724.42 L 193.43 724.95 L 191.17 724.90"
          fill="#272636" fill-rule="evenodd" group-id="1,2,5" id="Fill-173" node-id="113"
          stroke="none" target-height="19.600037" target-width="25.520004" target-x="175.55"
          target-y="705.35"></path>
        <path
          d="M 191.53 686.47 L 177.03 709.64 L 200.75 713.42 L 191.53 686.47 Z M 190.41 696.17 L 194.51 708.17 L 183.95 706.49 L 190.41 696.17 Z"
          fill="#2b2b3b" fill-rule="evenodd" group-id="1,2,5" id="Fill-175" node-id="114"
          stroke="none" target-height="26.950012" target-width="23.720001" target-x="177.03"
          target-y="686.47"></path>
        <path d="M 360.88 490.76 L 364.49 473.33 L 470.02 495.20 L 466.41 512.63 Z" fill="#2b2b3b"
          fill-rule="evenodd" group-id="1,2,5" id="Fill-177" node-id="115" stroke="none"
          target-height="39.30002" target-width="109.139984" target-x="360.88" target-y="473.33"></path>
        <path
          d="M 464.90 447.14 L 373.56 470.16 L 365.51 486.79 L 364.18 488.80 L 362.46 490.31 L 360.42 491.32 L 358.19 491.79 L 355.90 491.68 L 353.61 490.93 L 351.61 489.60 L 350.10 487.88 L 349.08 485.84 L 348.61 483.62 L 348.72 481.33 L 349.46 479.05 L 361.03 454.97 L 460.55 429.88 L 464.90 447.14 Z"
          fill="#2b2b3b" fill-rule="evenodd" group-id="1,2,5" id="Fill-179" node-id="116"
          stroke="none" target-height="61.910004" target-width="116.29001" target-x="348.61"
          target-y="429.88"></path>
        <path d="M 476.68 441.62 L 463.13 430.08 L 473.29 418.27 L 486.84 429.81 Z" fill="#2b2b3b"
          fill-rule="evenodd" group-id="1,2,5" id="Fill-181" node-id="117" stroke="none"
          target-height="23.350006" target-width="23.709991" target-x="463.13" target-y="418.27"></path>
        <path
          d="M 484.34 434.32 L 502.57 435.05 L 503.63 434.78 L 504.37 433.98 L 522.11 397.78 L 522.30 396.72 L 521.93 395.80 L 521.16 395.18 L 520.09 395.05 L 480.60 401.46 L 479.69 401.86 L 479.11 402.67 L 471.61 422.46 L 471.49 423.05 L 471.55 423.62 L 471.78 424.15 L 472.17 424.60 L 483.19 433.87 L 483.73 434.19 L 484.34 434.32"
          fill="#2b2b3b" fill-rule="evenodd" group-id="1,2,5" id="Fill-183" node-id="118"
          stroke="none" target-height="40" target-width="50.809998" target-x="471.49"
          target-y="395.05"></path>
        <path
          d="M 183.93 567.88 L 181.89 569.87 L 176.84 575.15 L 173.75 578.60 L 170.35 582.64 L 167.05 586.90 L 163.98 591.30 L 161.28 595.82 L 159.31 600.06 L 158.36 602.95 L 157.91 605.53 L 157.90 607.86 L 158.23 609.53 L 158.90 611.03 L 159.92 612.39 L 161.35 613.63 L 163.46 614.72 L 165.43 615.16 L 167.31 615.03 L 169.16 614.45 L 170.95 613.54 L 172.69 612.25 L 175.04 609.98 L 177.07 607.52 L 178.82 605.01 L 180.01 603.05 L 181.09 601.07 L 293.80 558.67 L 294.42 557.83 L 294.90 556.85 L 295.38 555.21 L 295.58 553.31 L 295.38 550.64 L 294.67 547.77 L 293.10 543.99 L 291.11 540.44 L 289.49 538.22 L 287.81 536.49 L 286.56 535.59 L 285.35 535.05 L 284.60 534.91 L 283.88 534.95 L 232.84 554.15 L 227.20 551.60 L 183.93 567.88 Z"
          fill="#ffc100" fill-rule="evenodd" group-id="1,2,5" id="Fill-185" node-id="119"
          stroke="none" target-height="80.25" target-width="137.68" target-x="157.9"
          target-y="534.91"></path>
        <path
          d="M 171.87 603.97 L 172.20 605.26 L 172.19 606.47 L 171.86 607.67 L 171.24 608.74 L 170.37 609.60 L 169.23 610.27 L 167.95 610.60 L 166.73 610.59 L 165.53 610.26 L 164.46 609.64 L 163.60 608.77 L 162.93 607.63 L 162.61 606.34 L 162.62 605.13 L 162.95 603.93 L 163.57 602.86 L 164.43 602.00 L 165.57 601.33 L 166.86 601.00 L 168.08 601.01 L 169.27 601.34 L 170.35 601.96 L 171.21 602.83 L 171.87 603.97"
          fill="#2b2b3b" fill-rule="evenodd" group-id="1,2,5" id="Fill-187" node-id="120"
          stroke="none" target-height="9.599976" target-width="9.589996" target-x="162.61"
          target-y="601"></path>
        <path
          d="M 456.69 666.71 L 457.01 667.99 L 457.00 669.21 L 456.67 670.41 L 456.05 671.48 L 455.19 672.34 L 454.05 673.01 L 452.76 673.33 L 451.54 673.33 L 450.35 672.99 L 449.28 672.37 L 448.41 671.51 L 447.75 670.37 L 447.42 669.08 L 447.43 667.86 L 447.76 666.67 L 448.38 665.59 L 449.25 664.73 L 450.39 664.06 L 451.67 663.74 L 452.89 663.75 L 454.09 664.08 L 455.16 664.70 L 456.02 665.56 L 456.69 666.71"
          fill="#2b2b3b" fill-rule="evenodd" group-id="1,2,5" id="Fill-189" node-id="121"
          stroke="none" target-height="9.590027" target-width="9.589996" target-x="447.42"
          target-y="663.74"></path>
        <path
          d="M 362.93 478.59 L 363.23 479.79 L 363.23 480.92 L 362.92 482.03 L 362.34 483.03 L 361.54 483.83 L 360.47 484.45 L 359.28 484.75 L 358.15 484.75 L 357.04 484.44 L 356.04 483.86 L 355.24 483.06 L 354.62 481.99 L 354.31 480.80 L 354.32 479.67 L 354.63 478.55 L 355.21 477.56 L 356.01 476.75 L 357.07 476.13 L 358.27 475.83 L 359.40 475.84 L 360.51 476.15 L 361.51 476.73 L 362.31 477.53 L 362.93 478.59"
          fill="#7a8090" fill-rule="evenodd" group-id="1,2,5" id="Fill-191" node-id="122"
          stroke="none" target-height="8.920013" target-width="8.920013" target-x="354.31"
          target-y="475.83"></path>
        <path
          d="M 491.29 408.84 L 491.60 410.03 L 491.59 411.17 L 491.28 412.28 L 490.70 413.28 L 489.90 414.08 L 488.84 414.70 L 487.64 415.00 L 486.51 414.99 L 485.40 414.68 L 484.40 414.11 L 483.60 413.31 L 482.98 412.24 L 482.68 411.05 L 482.68 409.91 L 482.99 408.80 L 483.57 407.80 L 484.37 407.00 L 485.43 406.38 L 486.63 406.08 L 487.76 406.09 L 488.87 406.40 L 489.87 406.97 L 490.67 407.77 L 491.29 408.84"
          fill="#7a8090" fill-rule="evenodd" group-id="1,2,5" id="Fill-193" node-id="123"
          stroke="none" target-height="8.920013" target-width="8.920013" target-x="482.68"
          target-y="406.08"></path>
        <path
          d="M 480.37 431.68 L 481.03 433.85 L 481.29 435.98 L 481.17 438.10 L 480.69 440.17 L 479.89 442.09 L 478.75 443.88 L 477.32 445.45 L 475.62 446.76 L 473.61 447.80 L 471.45 448.46 L 469.32 448.72 L 467.20 448.60 L 465.13 448.12 L 463.22 447.32 L 461.42 446.18 L 459.85 444.75 L 458.55 443.05 L 457.50 441.04 L 456.84 438.87 L 456.58 436.75 L 456.70 434.63 L 457.18 432.56 L 457.99 430.64 L 459.13 428.85 L 460.55 427.27 L 462.25 425.97 L 464.26 424.92 L 466.43 424.26 L 468.55 424.00 L 470.67 424.12 L 472.74 424.60 L 474.66 425.41 L 476.45 426.55 L 478.02 427.97 L 479.33 429.68 L 480.37 431.68"
          fill="#2b2b3b" fill-rule="evenodd" group-id="1,2,5" id="Fill-195" node-id="124"
          stroke="none" target-height="24.720001" target-width="24.710022" target-x="456.58"
          target-y="424"></path>
        <path
          d="M 474.85 413.91 L 479.08 418.44 L 480.66 419.86 L 482.37 420.94 L 484.22 421.71 L 486.17 422.17 L 488.13 422.31 L 490.13 422.12 L 492.06 421.62 L 493.90 420.78 L 495.67 419.60 L 521.79 395.63"
          fill="none" group-id="1,2,5" id="Stroke-197" node-id="125" stroke="#6d7386"
          stroke-linecap="butt" stroke-width="2.1" target-height="26.679993"
          target-width="46.939972" target-x="474.85" target-y="395.63"></path>
      </g>
    </g>
  </g>
</svg>
